SplineFontDB: 3.0
FontName: Route159-UltraLight
FullName: Route 159 UltraLight
FamilyName: Route 159 UltraLight
Weight: UltraLight
Copyright: __ 2015 Sora Sagano.
Version: 001.100
ItalicAngle: 0
UnderlinePosition: -100
UnderlineWidth: 50
Ascent: 770
Descent: 230
InvalidEm: 0
sfntRevision: 0x00011999
LayerCount: 2
Layer: 0 0 "Back" 1
Layer: 1 0 "Fore" 0
XUID: [1021 1017 285194369 19721]
StyleMap: 0x0040
FSType: 8
OS2Version: 0
OS2_WeightWidthSlopeOnly: 0
OS2_UseTypoMetrics: 0
CreationTime: 1458085815
ModificationTime: 1486717816
PfmFamily: 81
TTFWeight: 250
TTFWidth: 5
LineGap: 0
VLineGap: 0
Panose: 0 0 3 0 0 0 0 0 0 0
OS2TypoAscent: 770
OS2TypoAOffset: 0
OS2TypoDescent: -230
OS2TypoDOffset: 0
OS2TypoLinegap: 100
OS2WinAscent: 970
OS2WinAOffset: 0
OS2WinDescent: 230
OS2WinDOffset: 0
HheadAscent: 970
HheadAOffset: 0
HheadDescent: -230
HheadDOffset: 0
OS2SubXSize: 650
OS2SubYSize: 600
OS2SubXOff: 0
OS2SubYOff: 75
OS2SupXSize: 650
OS2SupYSize: 600
OS2SupXOff: 0
OS2SupYOff: 350
OS2StrikeYSize: 50
OS2StrikeYPos: 312
OS2CapHeight: 740
OS2XHeight: 520
OS2Vendor: 'UKWN'
OS2CodePages: 20000093.00000000
OS2UnicodeRanges: 00000007.00000000.00000000.00000000
Lookup: 1 0 0 "'ss02' Style Set 2 in Latin lookup 6" { "'ss02' Style Set 2 in Latin lookup 6-1" ("loclSRB") } ['ss02' ('DFLT' <'dflt' > 'cyrl' <'BGR ' 'SRB ' 'dflt' > 'latn' <'CAT ' 'dflt' > ) ]
Lookup: 1 0 0 "'ss03' Style Set 3 in Latin lookup 7" { "'ss03' Style Set 3 in Latin lookup 7-1" ("loclSRB") } ['ss03' ('DFLT' <'dflt' > 'cyrl' <'BGR ' 'SRB ' 'dflt' > 'latn' <'CAT ' 'dflt' > ) ]
Lookup: 1 0 0 "'ss01' Style Set 1 in Latin lookup 5" { "'ss01' Style Set 1 in Latin lookup 5-1" ("loclBGR") } ['ss01' ('DFLT' <'dflt' > 'cyrl' <'BGR ' 'SRB ' 'dflt' > 'latn' <'CAT ' 'dflt' > ) ]
Lookup: 1 0 0 "'locl' Localized Forms in Cyrillic lookup 4" { "'locl' Localized Forms in Cyrillic lookup 4-1" ("loclSRB") } ['locl' ('cyrl' <'SRB ' > ) ]

StartChar: .notdef
Encoding: 440 -1 0
Width: 500
Flags: MW
HStem: -230 69<167 333 167 410> -128 47<167 237 231 231 231 237 301 333> -48 23<167 333 167 333> 8 47<200 300 200 300> 88 60<167 333 167 333> 181 24<233 267 233 300> 261 22<167 200 167 333 233 333 233 233> 317 23<167 267 167 300 167 267> 373 37<167 233 167 233> 443 27<167 333 167 333> 504 36<200 233 200 233 200 333 200 267> 574 26<167 267 167 333> 633 37<168 233 168 233 167 233 168 267 267 333> 703 67<168 333 168 168>
VStem: 93 74<-161 -128 -81 -48 -25 88 148 261 283 317 340 373 410 443 470 574 600 633> 200 33<205 261 205 261 205 261 504 540> 267 33<205 228 340 383> 333 77<-161 -128 -128 -128 -81 -48 -48 -48 -25 88 88 88 148 261 261 261 283 383 383 383 410 443 443 443 470 504 504 504 600 633 633 633 670 703 703 703>
LayerCount: 2
Fore
SplineSet
410 770 m 5
 410 -230 l 5
 93 -230 l 5
 93 770 l 5
 410 770 l 5
333 703 m 5
 168 703 l 5
 168 670 l 5
 233 670 l 5
 233 633 l 5
 167 633 l 5
 167 600 l 5
 333 600 l 5
 333 633 l 5
 267 633 l 5
 267 670 l 5
 333 670 l 5
 333 703 l 5
267 574 m 5
 167 574 l 5
 167 470 l 5
 333 470 l 5
 333 504 l 5
 267 504 l 5
 267 574 l 5
233 540 m 5
 233 504 l 5
 200 504 l 5
 200 540 l 5
 233 540 l 5
333 443 m 5
 167 443 l 5
 167 410 l 5
 233 410 l 5
 233 373 l 5
 167 373 l 5
 167 340 l 5
 267 340 l 5
 267 410 l 5
 333 410 l 5
 333 443 l 5
333 383 m 5
 300 383 l 5
 300 317 l 5
 167 317 l 5
 167 283 l 5
 333 283 l 5
 333 383 l 5
333 261 m 5
 233 261 l 5
 233 205 l 5
 267 205 l 5
 267 228 l 5
 300 228 l 5
 300 181 l 5
 200 181 l 5
 200 261 l 5
 167 261 l 5
 167 148 l 5
 333 148 l 5
 333 261 l 5
333 88 m 5
 167 88 l 5
 167 -25 l 5
 333 -25 l 5
 333 88 l 5
300 55 m 5
 300 8 l 5
 200 8 l 5
 200 55 l 5
 300 55 l 5
333 -48 m 5
 167 -48 l 5
 167 -81 l 5
 237 -81 l 5
 167 -128 l 5
 167 -161 l 5
 333 -161 l 5
 333 -128 l 5
 231 -128 l 5
 301 -81 l 5
 333 -81 l 5
 333 -48 l 5
EndSplineSet
Validated: 1
EndChar

StartChar: A
Encoding: 33 65 1
Width: 654
GlyphClass: 2
Flags: HMW
HStem: 0 21G<31 58 31 31 578 606 578 578> 287 23<177 469 177 478 167 469> 707 33<329 329>
VStem: 31 575<0 0>
LayerCount: 2
Fore
SplineSet
578 0 m 1
 478 287 l 1
 167 287 l 1
 58 0 l 1
 31 0 l 1
 317 740 l 1
 342 740 l 1
 606 0 l 1
 578 0 l 1
469 310 m 5
 329 707 l 1
 177 310 l 1
 469 310 l 5
EndSplineSet
Position2: "'cpsp' Capital Spacing in Latin lookup 0 subtable" dx=5 dy=0 dh=10 dv=0
EndChar

StartChar: Aacute
Encoding: 117 193 2
Width: 654
GlyphClass: 2
Flags: MW
HStem: 0 21G<31 58 31 31 578 606 578 578> 287 23<177 469 177 478 167 469> 707 33<329 329>
VStem: 31 575<0 0>
LayerCount: 2
Fore
SplineSet
413 935 m 1
 318 799 l 1
 295 799 l 1
 383 935 l 1
 413 935 l 1
578 0 m 1
 478 287 l 1
 167 287 l 1
 58 0 l 1
 31 0 l 1
 317 740 l 1
 342 740 l 1
 606 0 l 1
 578 0 l 1
329 707 m 1
 177 310 l 1
 469 310 l 1
 329 707 l 1
EndSplineSet
Validated: 1
Position2: "'cpsp' Capital Spacing in Latin lookup 0 subtable" dx=5 dy=0 dh=10 dv=0
EndChar

StartChar: Abreve
Encoding: 182 258 3
Width: 654
GlyphClass: 2
Flags: MW
HStem: 0 21G<31 58 31 31 578 606 578 578> 287 23<177 469 177 478 167 469> 707 33<329 329> 786 22<300.5 359.5 300.5 365>
VStem: 220 20<936 936> 420 20<936 936>
LayerCount: 2
Fore
SplineSet
330 786 m 0
 259 786 213 845 220 936 c 1
 240 936 l 1
 237 861 271 808 330 808 c 0
 389 808 423 861 420 936 c 1
 440 936 l 1
 447 845 400 786 330 786 c 0
578 0 m 1
 478 287 l 1
 167 287 l 1
 58 0 l 1
 31 0 l 1
 317 740 l 1
 342 740 l 1
 606 0 l 1
 578 0 l 1
329 707 m 1
 177 310 l 1
 469 310 l 1
 329 707 l 1
EndSplineSet
Validated: 33
Position2: "'cpsp' Capital Spacing in Latin lookup 0 subtable" dx=5 dy=0 dh=10 dv=0
EndChar

StartChar: Acircumflex
Encoding: 118 194 4
Width: 654
GlyphClass: 2
Flags: MW
HStem: 0 21G<31 58 31 31 578 606 578 578> 287 23<177 469 177 478 167 469> 707 33<329 329> 913 22<330 330>
VStem: 31 575<0 0>
LayerCount: 2
Fore
SplineSet
330 913 m 1
 247 799 l 1
 222 799 l 1
 320 935 l 1
 340 935 l 1
 438 799 l 1
 413 799 l 1
 330 913 l 1
578 0 m 1
 478 287 l 1
 167 287 l 1
 58 0 l 1
 31 0 l 1
 317 740 l 1
 342 740 l 1
 606 0 l 1
 578 0 l 1
329 707 m 1
 177 310 l 1
 469 310 l 1
 329 707 l 1
EndSplineSet
Validated: 1
Position2: "'cpsp' Capital Spacing in Latin lookup 0 subtable" dx=5 dy=0 dh=10 dv=0
EndChar

StartChar: Adieresis
Encoding: 120 196 5
Width: 654
GlyphClass: 2
Flags: MW
HStem: 0 21G<31 58 31 31 578 606 578 578> 287 23<177 469 177 478 167 469> 707 33<329 329> 821 88<273 297 273 297 273 363 363 387>
VStem: 273 24<821 909> 363 24<821 909>
LayerCount: 2
Fore
SplineSet
297 821 m 1
 290 818 280 818 273 821 c 1
 273 909 l 1
 280 912 290 912 297 909 c 1
 297 821 l 1
387 821 m 1
 380 818 370 818 363 821 c 1
 363 909 l 1
 370 912 380 912 387 909 c 1
 387 821 l 1
578 0 m 1
 478 287 l 1
 167 287 l 1
 58 0 l 1
 31 0 l 1
 317 740 l 1
 342 740 l 1
 606 0 l 1
 578 0 l 1
329 707 m 1
 177 310 l 1
 469 310 l 1
 329 707 l 1
EndSplineSet
Validated: 1
Position2: "'cpsp' Capital Spacing in Latin lookup 0 subtable" dx=5 dy=0 dh=10 dv=0
EndChar

StartChar: Agrave
Encoding: 116 192 6
Width: 654
GlyphClass: 2
Flags: MW
HStem: 0 21G<31 58 31 31 578 606 578 578> 287 23<177 469 177 478 167 469> 707 33<329 329>
VStem: 31 575<0 0>
LayerCount: 2
Fore
SplineSet
365 799 m 1
 342 799 l 1
 247 935 l 1
 277 935 l 1
 365 799 l 1
578 0 m 1
 478 287 l 1
 167 287 l 1
 58 0 l 1
 31 0 l 1
 317 740 l 1
 342 740 l 1
 606 0 l 1
 578 0 l 1
329 707 m 1
 177 310 l 1
 469 310 l 1
 329 707 l 1
EndSplineSet
Validated: 1
Position2: "'cpsp' Capital Spacing in Latin lookup 0 subtable" dx=5 dy=0 dh=10 dv=0
EndChar

StartChar: Amacron
Encoding: 180 256 7
Width: 654
GlyphClass: 2
Flags: MW
HStem: 0 21G<31 58 31 31 578 606 578 578> 287 23<177 469 177 478 167 469> 707 33<329 329> 861 22<235 425 235 425>
VStem: 235 190<861 883 861 883>
LayerCount: 2
Fore
SplineSet
425 883 m 1
 425 861 l 1
 235 861 l 1
 235 883 l 1
 425 883 l 1
578 0 m 1
 478 287 l 1
 167 287 l 1
 58 0 l 1
 31 0 l 1
 317 740 l 1
 342 740 l 1
 606 0 l 1
 578 0 l 1
329 707 m 1
 177 310 l 1
 469 310 l 1
 329 707 l 1
EndSplineSet
Validated: 1
Position2: "'cpsp' Capital Spacing in Latin lookup 0 subtable" dx=5 dy=0 dh=10 dv=0
EndChar

StartChar: Aogonek
Encoding: 184 260 8
Width: 654
GlyphClass: 2
Flags: MW
HStem: -220 22<533 560> 0 21G<31 58 31 31 606 606> 287 23<177 469 177 478 167 469> 707 33<329 329>
VStem: 474 24<-154 -108.5>
LayerCount: 2
Fore
SplineSet
551 -198 m 0
 573 -198 595 -191 616 -178 c 1
 614 -201 l 1
 589 -214 569 -220 551 -220 c 0
 506 -220 474 -197 474 -138 c 0
 474 -79 523 -17 576 5 c 1
 478 287 l 1
 167 287 l 1
 58 0 l 1
 31 0 l 1
 317 740 l 1
 342 740 l 1
 606 0 l 1
 542 -31 498 -76 498 -135 c 0
 498 -173 515 -198 551 -198 c 0
329 707 m 1
 177 310 l 1
 469 310 l 1
 329 707 l 1
EndSplineSet
Validated: 1
Position2: "'cpsp' Capital Spacing in Latin lookup 0 subtable" dx=5 dy=0 dh=10 dv=0
EndChar

StartChar: Aring
Encoding: 121 197 9
Width: 654
GlyphClass: 2
Flags: MW
HStem: 0 21G<31 58 31 31 578 606 578 578> 287 23<177 469 177 478 167 469> 707 33<329 329> 777 21<310.5 349.5 310.5 355.5> 930 21<310.5 349.5>
VStem: 237 23<845.5 882.5 845.5 888> 400 23<845.5 882.5>
LayerCount: 2
Fore
SplineSet
330 777 m 0
 279 777 237 816 237 864 c 0
 237 912 279 951 330 951 c 0
 381 951 423 912 423 864 c 0
 423 816 381 777 330 777 c 0
330 930 m 0
 291 930 260 901 260 864 c 0
 260 827 291 798 330 798 c 0
 369 798 400 827 400 864 c 0
 400 901 369 930 330 930 c 0
578 0 m 1
 478 287 l 1
 167 287 l 1
 58 0 l 1
 31 0 l 1
 317 740 l 1
 342 740 l 1
 606 0 l 1
 578 0 l 1
329 707 m 1
 177 310 l 1
 469 310 l 1
 329 707 l 1
EndSplineSet
Validated: 1
Position2: "'cpsp' Capital Spacing in Latin lookup 0 subtable" dx=5 dy=0 dh=10 dv=0
EndChar

StartChar: Atilde
Encoding: 119 195 10
Width: 654
GlyphClass: 2
Flags: MW
HStem: 0 21G<31 58 31 31 578 606 578 578> 287 23<177 469 177 478 167 469> 707 33<329 329> 833 22<394 408.5 394 415> 889 22<269.5 284>
VStem: 226 20<828 830> 432 20<914 916>
LayerCount: 2
Fore
SplineSet
278 889 m 0
 261 889 253 875 246 828 c 1
 226 830 l 1
 231 888 248 911 278 911 c 0
 297 911 315 901 341 884 c 0
 376 861 388 855 400 855 c 0
 417 855 425 869 432 916 c 1
 452 914 l 1
 447 856 430 833 400 833 c 0
 381 833 363 843 337 860 c 0
 302 883 290 889 278 889 c 0
578 0 m 1
 478 287 l 1
 167 287 l 1
 58 0 l 1
 31 0 l 1
 317 740 l 1
 342 740 l 1
 606 0 l 1
 578 0 l 1
329 707 m 1
 177 310 l 1
 469 310 l 1
 329 707 l 1
EndSplineSet
Validated: 1
Position2: "'cpsp' Capital Spacing in Latin lookup 0 subtable" dx=5 dy=0 dh=10 dv=0
EndChar

StartChar: AE
Encoding: 122 198 11
Width: 901
GlyphClass: 2
Flags: MW
HStem: 0 23<502 843> 287 23<214 478 214 478 199 478> 366 23<502 813 502 818> 717 23<476 478 476 476 502 839 502 502>
VStem: 478 24<23 23 23 287 287 287 310 366 389 717>
AnchorPoint: "Anchor-0" 640 0 basechar 0
LayerCount: 2
Fore
SplineSet
502 23 m 1
 848 23 l 1
 843 0 l 1
 478 0 l 1
 478 287 l 1
 199 287 l 1
 14 0 l 1
 -14 0 l 1
 465 740 l 1
 497 740 l 1
 844 740 l 1
 839 717 l 1
 502 717 l 1
 502 389 l 1
 818 389 l 1
 813 366 l 1
 502 366 l 1
 502 23 l 1
214 310 m 1
 478 310 l 1
 478 717 l 1
 476 717 l 1
 214 310 l 1
EndSplineSet
Validated: 1
Position2: "'cpsp' Capital Spacing in Latin lookup 0 subtable" dx=5 dy=0 dh=10 dv=0
EndChar

StartChar: B
Encoding: 34 66 12
Width: 585
GlyphClass: 2
Flags: MW
HStem: 0 23<100 253 124 210> 369 23<124 285 124 300> 717 23<124 194 194 210 100 124>
VStem: 100 24<23 369 392 717> 436 26<517 613 517 614> 481 26<143 249.5>
LayerCount: 2
Fore
SplineSet
346 383 m 5
 445 369 507 305 507 199 c 4xf4
 507 80 428 16 320 5 c 4
 288 2 251 0 210 0 c 6
 115 0 l 5
 100 0 l 5
 100 740 l 5
 124 740 l 5
 194 740 l 6
 226 740 256 740 286 739 c 4
 400 731 462 669 462 557 c 4xfc
 462 477 407 404 346 383 c 5
246 717 m 6
 124 717 l 5
 124 392 l 5
 300 392 l 6
 360 392 436 459 436 557 c 4xfc
 436 671 371 717 246 717 c 6
253 23 m 6xf4
 414 23 481 89 481 197 c 4
 481 302 410 369 285 369 c 6
 124 369 l 5
 124 23 l 5
 253 23 l 6xf4
EndSplineSet
Validated: 1
Position2: "'cpsp' Capital Spacing in Latin lookup 0 subtable" dx=5 dy=0 dh=10 dv=0
EndChar

StartChar: C
Encoding: 35 67 13
Width: 623
GlyphClass: 2
Flags: MW
HStem: -14 23<273.5 396.5 273.5 401> 731 23<307 432.5>
VStem: 48 26<238.5 480.5 238.5 483.5>
AnchorPoint: "Anchor-0" 349 0 basechar 0
LayerCount: 2
Fore
SplineSet
358 -14 m 0
 169 -14 48 99 48 364 c 0
 48 603 191 754 401 754 c 0
 470 754 527 741 574 717 c 1
 566 699 l 1
 522 719 464 731 401 731 c 0
 213 731 74 597 74 364 c 0
 74 113 190 9 357 9 c 0
 436 9 495 28 558 70 c 1
 569 52 l 1
 514 13 444 -14 358 -14 c 0
EndSplineSet
Validated: 1
Position2: "'cpsp' Capital Spacing in Latin lookup 0 subtable" dx=5 dy=0 dh=10 dv=0
EndChar

StartChar: Cacute
Encoding: 186 262 14
Width: 623
GlyphClass: 2
Flags: MW
HStem: -14 23<273.5 396.5 273.5 401> 731 23<307 432.5>
VStem: 48 26<238.5 480.5 238.5 483.5>
AnchorPoint: "Anchor-0" 349 0 basechar 0
LayerCount: 2
Fore
SplineSet
331 799 m 1
 419 935 l 1
 449 935 l 1
 354 799 l 1
 331 799 l 1
358 -14 m 0
 169 -14 48 99 48 364 c 0
 48 603 191 754 401 754 c 0
 470 754 527 741 574 717 c 1
 566 699 l 1
 522 719 464 731 401 731 c 0
 213 731 74 597 74 364 c 0
 74 113 190 9 357 9 c 0
 436 9 495 28 558 70 c 1
 569 52 l 1
 514 13 444 -14 358 -14 c 0
EndSplineSet
Validated: 1
Position2: "'cpsp' Capital Spacing in Latin lookup 0 subtable" dx=5 dy=0 dh=10 dv=0
EndChar

StartChar: Ccaron
Encoding: 190 268 15
Width: 623
GlyphClass: 2
Flags: MW
HStem: -14 23<273.5 396.5 273.5 401> 731 23<307 432.5> 799 22<366 366 366 376 356 366>
VStem: 48 26<238.5 480.5 238.5 483.5>
AnchorPoint: "Anchor-0" 349 0 basechar 0
LayerCount: 2
Fore
SplineSet
376 799 m 1
 356 799 l 1
 258 935 l 1
 283 935 l 1
 366 821 l 1
 449 935 l 1
 474 935 l 1
 376 799 l 1
357 9 m 0
 436 9 495 28 558 70 c 1
 569 52 l 1
 514 13 444 -14 358 -14 c 0
 169 -14 48 99 48 364 c 0
 48 603 191 754 401 754 c 0
 470 754 527 741 574 717 c 1
 566 699 l 1
 522 719 464 731 401 731 c 0
 213 731 74 597 74 364 c 0
 74 113 190 9 357 9 c 0
EndSplineSet
Validated: 1
Position2: "'cpsp' Capital Spacing in Latin lookup 0 subtable" dx=5 dy=0 dh=10 dv=0
EndChar

StartChar: Ccedilla
Encoding: 123 199 16
Width: 623
GlyphClass: 2
Flags: MW
HStem: -210 23<314.5 347.5 314.5 350> -75 20 -14 23<354 358 354 354> -13 22<330 330> 731 23<307 432.5>
VStem: 48 26<238.5 480.5 238.5 483.5> 405 24<-148 -109.5>
AnchorPoint: "Anchor-0" 349 0 basechar 0
LayerCount: 2
Fore
SplineSet
358 -14 m 2xee
 354 -14 l 1xee
 333 -55 l 1
 389 -56 429 -80 429 -128 c 0
 429 -184 377 -210 323 -210 c 0
 298 -210 277 -204 263 -194 c 1
 272 -176 l 1
 289 -184 303 -187 326 -187 c 0
 369 -187 405 -167 405 -129 c 0
 405 -90 368 -70 299 -75 c 1
 330 -13 l 1xde
 157 -2 48 112 48 364 c 0
 48 603 191 754 401 754 c 0
 470 754 527 741 574 717 c 1
 566 699 l 1
 522 719 464 731 401 731 c 0
 213 731 74 597 74 364 c 0
 74 113 190 9 357 9 c 0
 436 9 495 28 558 70 c 1
 569 52 l 1
 514 13 444 -14 358 -14 c 2xee
EndSplineSet
Validated: 33
Position2: "'cpsp' Capital Spacing in Latin lookup 0 subtable" dx=5 dy=0 dh=10 dv=0
EndChar

StartChar: Cdotaccent
Encoding: 188 266 17
Width: 623
GlyphClass: 2
Flags: MW
HStem: -14 23<273.5 396.5 273.5 401> 731 23<307 432.5> 821 88<354 378 354 378>
VStem: 48 26<238.5 480.5 238.5 483.5> 354 24<821 909 821 909>
AnchorPoint: "Anchor-0" 349 0 basechar 0
LayerCount: 2
Fore
SplineSet
354 821 m 1
 354 909 l 1
 361 912 371 912 378 909 c 1
 378 821 l 1
 371 818 361 818 354 821 c 1
358 -14 m 0
 169 -14 48 99 48 364 c 0
 48 603 191 754 401 754 c 0
 470 754 527 741 574 717 c 1
 566 699 l 1
 522 719 464 731 401 731 c 0
 213 731 74 597 74 364 c 0
 74 113 190 9 357 9 c 0
 436 9 495 28 558 70 c 1
 569 52 l 1
 514 13 444 -14 358 -14 c 0
EndSplineSet
Validated: 1
Position2: "'cpsp' Capital Spacing in Latin lookup 0 subtable" dx=5 dy=0 dh=10 dv=0
EndChar

StartChar: D
Encoding: 36 68 18
Width: 691
GlyphClass: 2
Flags: MW
HStem: 0 23<124 230> 717 23<124 244 244 262 100 277 124 124>
VStem: 100 24<23 23 23 717> 617 26<278 499 278 500.5>
LayerCount: 2
Fore
SplineSet
100 0 m 1
 100 740 l 1
 244 740 l 2
 280 740 322 739 353 735 c 0
 518 712 643 609 643 389 c 0
 643 167 509 40 360 10 c 0
 323 3 273 0 230 0 c 2
 100 0 l 1
124 23 m 1
 264 23 l 2
 469 23 617 158 617 388 c 0
 617 613 485 717 277 717 c 2
 124 717 l 1
 124 23 l 1
EndSplineSet
Validated: 1
Position2: "'cpsp' Capital Spacing in Latin lookup 0 subtable" dx=5 dy=0 dh=10 dv=0
EndChar

StartChar: Eth
Encoding: 132 208 19
Width: 691
GlyphClass: 2
Flags: MW
HStem: 0 23<124 230> 349 22<57 100 57 100 124 267> 717 23<124 244 244 262 100 277 124 124>
VStem: 100 24<23 349 23 349 23 349 371 717> 617 26<278 499 278 500.5>
LayerCount: 2
Fore
SplineSet
353 735 m 0
 518 712 643 609 643 389 c 0
 643 167 509 40 360 10 c 0
 323 3 273 0 230 0 c 2
 100 0 l 1
 100 349 l 1
 57 349 l 1
 57 371 l 1
 100 371 l 1
 100 740 l 1
 244 740 l 2
 280 740 322 739 353 735 c 0
264 23 m 2
 469 23 617 158 617 388 c 0
 617 613 485 717 277 717 c 2
 124 717 l 1
 124 371 l 1
 267 371 l 1
 267 349 l 1
 124 349 l 1
 124 23 l 1
 264 23 l 2
EndSplineSet
Validated: 1
Position2: "'cpsp' Capital Spacing in Latin lookup 0 subtable" dx=5 dy=0 dh=10 dv=0
EndChar

StartChar: Dcaron
Encoding: 192 270 20
Width: 691
GlyphClass: 2
Flags: MW
HStem: 0 23<124 230> 717 23<124 244 244 262 100 277 124 124> 799 22<304 304 304 314 294 304>
VStem: 100 24<23 717 23 740 23 740> 617 26<278 499 278 500.5>
LayerCount: 2
Fore
SplineSet
314 799 m 1
 294 799 l 1
 196 935 l 1
 221 935 l 1
 304 821 l 1
 387 935 l 1
 412 935 l 1
 314 799 l 1
353 735 m 0
 518 712 643 609 643 389 c 0
 643 167 509 40 360 10 c 0
 323 3 273 0 230 0 c 2
 100 0 l 1
 100 740 l 1
 244 740 l 2
 280 740 322 739 353 735 c 0
264 23 m 2
 469 23 617 158 617 388 c 0
 617 613 485 717 277 717 c 2
 124 717 l 1
 124 23 l 1
 264 23 l 2
EndSplineSet
Validated: 1
Position2: "'cpsp' Capital Spacing in Latin lookup 0 subtable" dx=5 dy=0 dh=10 dv=0
EndChar

StartChar: Dcroat
Encoding: 194 272 21
Width: 691
GlyphClass: 2
Flags: MW
HStem: 0 23<124 230> 349 22<57 100 57 100 124 267> 717 23<124 244 244 262 100 277 124 124>
VStem: 100 24<23 349 23 349 23 349 371 717> 617 26<278 499 278 500.5>
LayerCount: 2
Fore
SplineSet
353 735 m 0
 518 712 643 609 643 389 c 0
 643 167 509 40 360 10 c 0
 323 3 273 0 230 0 c 2
 100 0 l 1
 100 349 l 1
 57 349 l 1
 57 371 l 1
 100 371 l 1
 100 740 l 1
 244 740 l 2
 280 740 322 739 353 735 c 0
264 23 m 2
 469 23 617 158 617 388 c 0
 617 613 485 717 277 717 c 2
 124 717 l 1
 124 371 l 1
 267 371 l 1
 267 349 l 1
 124 349 l 1
 124 23 l 1
 264 23 l 2
EndSplineSet
Validated: 1
Position2: "'cpsp' Capital Spacing in Latin lookup 0 subtable" dx=5 dy=0 dh=10 dv=0
EndChar

StartChar: E
Encoding: 37 69 22
Width: 523
GlyphClass: 2
Flags: MW
HStem: 0 23<124 465> 366 23<124 435 124 440> 717 23<124 461 124 124>
VStem: 100 24<23 366 389 717>
AnchorPoint: "Anchor-0" 262 0 basechar 0
LayerCount: 2
Fore
SplineSet
100 0 m 5
 100 740 l 5
 466 740 l 5
 461 717 l 5
 124 717 l 5
 124 389 l 5
 440 389 l 5
 435 366 l 5
 124 366 l 5
 124 23 l 5
 470 23 l 5
 465 0 l 5
 100 0 l 5
EndSplineSet
Validated: 1
Position2: "'cpsp' Capital Spacing in Latin lookup 0 subtable" dx=5 dy=0 dh=10 dv=0
EndChar

StartChar: Eacute
Encoding: 125 201 23
Width: 523
GlyphClass: 2
Flags: MW
HStem: 0 23<124 465> 366 23<124 435 124 440> 717 23<124 461 124 124>
VStem: 100 24<23 366 389 717>
AnchorPoint: "Anchor-0" 262 0 basechar 0
LayerCount: 2
Fore
SplineSet
255 799 m 1
 343 935 l 1
 373 935 l 1
 278 799 l 1
 255 799 l 1
100 0 m 1
 100 740 l 1
 466 740 l 1
 461 717 l 1
 124 717 l 1
 124 389 l 1
 440 389 l 1
 435 366 l 1
 124 366 l 1
 124 23 l 1
 470 23 l 1
 465 0 l 1
 100 0 l 1
EndSplineSet
Validated: 1
Position2: "'cpsp' Capital Spacing in Latin lookup 0 subtable" dx=5 dy=0 dh=10 dv=0
EndChar

StartChar: Ecaron
Encoding: 202 282 24
Width: 523
GlyphClass: 2
Flags: MW
HStem: 0 23<124 465> 366 23<124 435 124 440> 717 23<124 461 124 124> 799 22<290 290 290 300 280 290>
VStem: 100 24<23 23 23 366 389 717>
AnchorPoint: "Anchor-0" 262 0 basechar 0
LayerCount: 2
Fore
SplineSet
300 799 m 1
 280 799 l 1
 182 935 l 1
 207 935 l 1
 290 821 l 1
 373 935 l 1
 398 935 l 1
 300 799 l 1
124 23 m 1
 470 23 l 1
 465 0 l 1
 100 0 l 1
 100 740 l 1
 466 740 l 1
 461 717 l 1
 124 717 l 1
 124 389 l 1
 440 389 l 1
 435 366 l 1
 124 366 l 1
 124 23 l 1
EndSplineSet
Validated: 1
Position2: "'cpsp' Capital Spacing in Latin lookup 0 subtable" dx=5 dy=0 dh=10 dv=0
EndChar

StartChar: Ecircumflex
Encoding: 126 202 25
Width: 523
GlyphClass: 2
Flags: MW
HStem: 0 23<124 465> 366 23<124 435 124 440> 717 23<124 461 124 124> 913 22<290 290>
VStem: 100 24<23 23 23 366 389 717>
AnchorPoint: "Anchor-0" 262 0 basechar 0
LayerCount: 2
Fore
SplineSet
290 913 m 1
 207 799 l 1
 182 799 l 1
 280 935 l 1
 300 935 l 1
 398 799 l 1
 373 799 l 1
 290 913 l 1
124 23 m 1
 470 23 l 1
 465 0 l 1
 100 0 l 1
 100 740 l 1
 466 740 l 1
 461 717 l 1
 124 717 l 1
 124 389 l 1
 440 389 l 1
 435 366 l 1
 124 366 l 1
 124 23 l 1
EndSplineSet
Validated: 1
Position2: "'cpsp' Capital Spacing in Latin lookup 0 subtable" dx=5 dy=0 dh=10 dv=0
EndChar

StartChar: Edieresis
Encoding: 127 203 26
Width: 523
GlyphClass: 2
Flags: MW
HStem: 0 23<124 465> 366 23<124 435 124 440> 717 23<124 461 124 124> 821 88<233 257 233 257 323 347 233 323>
VStem: 100 24<23 366 389 717> 233 24<821 909 821 909> 323 24<821 909 821 909>
AnchorPoint: "Anchor-0" 262 0 basechar 0
LayerCount: 2
Fore
SplineSet
233 821 m 1
 233 909 l 1
 240 912 250 912 257 909 c 1
 257 821 l 1
 250 818 240 818 233 821 c 1
323 821 m 1
 323 909 l 1
 330 912 340 912 347 909 c 1
 347 821 l 1
 340 818 330 818 323 821 c 1
100 0 m 1
 100 740 l 1
 466 740 l 1
 461 717 l 1
 124 717 l 1
 124 389 l 1
 440 389 l 1
 435 366 l 1
 124 366 l 1
 124 23 l 1
 470 23 l 1
 465 0 l 1
 100 0 l 1
EndSplineSet
Validated: 1
Position2: "'cpsp' Capital Spacing in Latin lookup 0 subtable" dx=5 dy=0 dh=10 dv=0
EndChar

StartChar: Edotaccent
Encoding: 198 278 27
Width: 523
GlyphClass: 2
Flags: MW
HStem: 0 23<124 465> 366 23<124 435 124 440> 717 23<124 461 124 124> 821 88<278 302 278 302>
VStem: 100 24<23 366 389 717> 278 24<821 909 821 909>
AnchorPoint: "Anchor-0" 262 0 basechar 0
LayerCount: 2
Fore
SplineSet
278 821 m 1
 278 909 l 1
 285 912 295 912 302 909 c 1
 302 821 l 1
 295 818 285 818 278 821 c 1
100 0 m 1
 100 740 l 1
 466 740 l 1
 461 717 l 1
 124 717 l 1
 124 389 l 1
 440 389 l 1
 435 366 l 1
 124 366 l 1
 124 23 l 1
 470 23 l 1
 465 0 l 1
 100 0 l 1
EndSplineSet
Validated: 1
Position2: "'cpsp' Capital Spacing in Latin lookup 0 subtable" dx=5 dy=0 dh=10 dv=0
EndChar

StartChar: Egrave
Encoding: 124 200 28
Width: 523
GlyphClass: 2
Flags: MW
HStem: 0 23<124 465> 366 23<124 435 124 440> 717 23<124 461 124 124>
VStem: 100 24<23 366 389 717>
AnchorPoint: "Anchor-0" 262 0 basechar 0
LayerCount: 2
Fore
SplineSet
325 799 m 1
 302 799 l 1
 207 935 l 1
 237 935 l 1
 325 799 l 1
100 0 m 1
 100 740 l 1
 466 740 l 1
 461 717 l 1
 124 717 l 1
 124 389 l 1
 440 389 l 1
 435 366 l 1
 124 366 l 1
 124 23 l 1
 470 23 l 1
 465 0 l 1
 100 0 l 1
EndSplineSet
Validated: 1
Position2: "'cpsp' Capital Spacing in Latin lookup 0 subtable" dx=5 dy=0 dh=10 dv=0
EndChar

StartChar: Emacron
Encoding: 196 274 29
Width: 523
GlyphClass: 2
Flags: MW
HStem: 0 23<124 465> 366 23<124 435 124 440> 717 23<124 461 124 124> 861 22<195 385 195 385>
VStem: 100 24<23 366 389 717> 195 190<861 883 861 883>
AnchorPoint: "Anchor-0" 262 0 basechar 0
LayerCount: 2
Fore
SplineSet
195 861 m 1
 195 883 l 1
 385 883 l 1
 385 861 l 1
 195 861 l 1
100 0 m 1
 100 740 l 1
 466 740 l 1
 461 717 l 1
 124 717 l 1
 124 389 l 1
 440 389 l 1
 435 366 l 1
 124 366 l 1
 124 23 l 1
 470 23 l 1
 465 0 l 1
 100 0 l 1
EndSplineSet
Validated: 1
Position2: "'cpsp' Capital Spacing in Latin lookup 0 subtable" dx=5 dy=0 dh=10 dv=0
EndChar

StartChar: Eogonek
Encoding: 200 280 30
Width: 523
GlyphClass: 2
Flags: MW
HStem: -220 22<392 419> 0 23<124 425 465 465> 366 23<124 435 124 440> 717 23<124 461 124 124>
VStem: 100 24<23 366 389 717> 333 24<-154 -110.5>
AnchorPoint: "Anchor-0" 262 0 basechar 0
LayerCount: 2
Fore
SplineSet
410 -198 m 0
 432 -198 454 -191 475 -178 c 1
 473 -201 l 1
 448 -214 428 -220 410 -220 c 0
 365 -220 333 -197 333 -138 c 0
 333 -83 376 -25 425 0 c 1
 100 0 l 1
 100 740 l 1
 466 740 l 1
 461 717 l 1
 124 717 l 1
 124 389 l 1
 440 389 l 1
 435 366 l 1
 124 366 l 1
 124 23 l 1
 470 23 l 1
 465 0 l 1
 401 -31 357 -76 357 -135 c 0
 357 -173 374 -198 410 -198 c 0
EndSplineSet
Validated: 1
Position2: "'cpsp' Capital Spacing in Latin lookup 0 subtable" dx=5 dy=0 dh=10 dv=0
EndChar

StartChar: F
Encoding: 38 70 31
Width: 519
GlyphClass: 2
Flags: MW
HStem: 0 21G<100 100 100 124> 364 23<124 444 124 449> 717 23<124 466 124 124>
VStem: 100 24<0 364 387 717>
LayerCount: 2
Fore
SplineSet
100 0 m 1
 100 740 l 1
 471 740 l 1
 466 717 l 1
 124 717 l 1
 124 387 l 1
 449 387 l 1
 444 364 l 1
 124 364 l 5
 124 0 l 1
 100 0 l 1
EndSplineSet
Validated: 1
Position2: "'cpsp' Capital Spacing in Latin lookup 0 subtable" dx=5 dy=0 dh=10 dv=0
EndChar

StartChar: G
Encoding: 39 71 32
Width: 646
GlyphClass: 2
Flags: MW
HStem: -14 23<292.5 398.5 292.5 403> 731 23<294.5 419.5>
VStem: 48 24<227.5 491.5 227.5 493.5> 547 24<46 355 34 355>
AnchorPoint: "Anchor-0" 337 0 basechar 0
LayerCount: 2
Fore
SplineSet
547 355 m 1
 571 355 l 1
 571 34 l 1
 526 5 444 -14 362 -14 c 0
 198 -14 48 85 48 364 c 0
 48 623 187 754 378 754 c 0
 464 754 520 741 565 719 c 1
 557 701 l 1
 505 723 461 731 378 731 c 0
 211 731 72 619 72 364 c 0
 72 91 222 9 363 9 c 0
 434 9 496 18 547 46 c 1
 547 355 l 1
EndSplineSet
Validated: 1
Position2: "'cpsp' Capital Spacing in Latin lookup 0 subtable" dx=5 dy=0 dh=10 dv=0
EndChar

StartChar: Gbreve
Encoding: 204 286 33
Width: 646
GlyphClass: 2
Flags: MW
HStem: -14 23<292.5 398.5 292.5 403> 731 23<294.5 419.5> 786 22<332.5 391.5 332.5 397>
VStem: 48 24<227.5 491.5 227.5 493.5> 252 20<936 936> 452 20<936 936> 547 24<46 355 34 355>
AnchorPoint: "Anchor-0" 337 0 basechar 0
LayerCount: 2
Fore
SplineSet
362 786 m 0
 291 786 245 845 252 936 c 1
 272 936 l 1
 269 861 303 808 362 808 c 0
 421 808 455 861 452 936 c 1
 472 936 l 1
 479 845 432 786 362 786 c 0
547 355 m 1
 571 355 l 1
 571 34 l 1
 526 5 444 -14 362 -14 c 0
 198 -14 48 85 48 364 c 0
 48 623 187 754 378 754 c 0
 464 754 520 741 565 719 c 1
 557 701 l 1
 505 723 461 731 378 731 c 0
 211 731 72 619 72 364 c 0
 72 91 222 9 363 9 c 0
 434 9 496 18 547 46 c 1
 547 355 l 1
EndSplineSet
Validated: 33
Position2: "'cpsp' Capital Spacing in Latin lookup 0 subtable" dx=5 dy=0 dh=10 dv=0
EndChar

StartChar: Gcommaaccent
Encoding: 208 290 34
Width: 646
GlyphClass: 2
Flags: MW
HStem: -14 23<292.5 398.5 292.5 403> 731 23<294.5 419.5>
VStem: 48 24<227.5 491.5 227.5 493.5> 326 23 547 24<46 355 34 355>
AnchorPoint: "Anchor-0" 337 0 basechar 0
LayerCount: 2
Fore
SplineSet
547 355 m 1
 571 355 l 1
 571 34 l 1
 526 5 444 -14 362 -14 c 0
 198 -14 48 85 48 364 c 0
 48 623 187 754 378 754 c 0
 464 754 520 741 565 719 c 1
 557 701 l 1
 505 723 461 731 378 731 c 0
 211 731 72 619 72 364 c 0
 72 91 222 9 363 9 c 0
 434 9 496 18 547 46 c 1
 547 355 l 1
326 -58 m 1
 331 -54 340 -51 349 -50 c 1
 353 -118 333 -177 287 -239 c 1
 266 -239 l 1
 314 -167 328 -110 326 -58 c 1
EndSplineSet
Validated: 33
Position2: "'cpsp' Capital Spacing in Latin lookup 0 subtable" dx=5 dy=0 dh=10 dv=0
EndChar

StartChar: Gdotaccent
Encoding: 206 288 35
Width: 646
GlyphClass: 2
Flags: MW
HStem: -14 23<292.5 398.5 292.5 403> 731 23<294.5 419.5> 821 88<350 374 350 374>
VStem: 48 24<227.5 491.5 227.5 493.5> 350 24<821 909> 547 24<46 355 34 355>
AnchorPoint: "Anchor-0" 337 0 basechar 0
LayerCount: 2
Fore
SplineSet
374 821 m 1
 367 818 357 818 350 821 c 1
 350 909 l 1
 357 912 367 912 374 909 c 1
 374 821 l 1
547 355 m 1
 571 355 l 1
 571 34 l 1
 526 5 444 -14 362 -14 c 0
 198 -14 48 85 48 364 c 0
 48 623 187 754 378 754 c 0
 464 754 520 741 565 719 c 1
 557 701 l 1
 505 723 461 731 378 731 c 0
 211 731 72 619 72 364 c 0
 72 91 222 9 363 9 c 0
 434 9 496 18 547 46 c 1
 547 355 l 1
EndSplineSet
Validated: 1
Position2: "'cpsp' Capital Spacing in Latin lookup 0 subtable" dx=5 dy=0 dh=10 dv=0
EndChar

StartChar: H
Encoding: 40 72 36
Width: 714
GlyphClass: 2
Flags: MW
HStem: 0 21G<100 100 100 124 590 590 590 614> 362 23<124 590 124 590> 720 20G<100 124 124 124 590 614 614 614>
VStem: 100 24<0 362 385 740> 590 24<0 362 362 362 385 740 0 740>
LayerCount: 2
Fore
SplineSet
100 0 m 1
 100 740 l 1
 124 740 l 1
 124 385 l 1
 590 385 l 1
 590 740 l 1
 614 740 l 1
 614 0 l 1
 590 0 l 1
 590 362 l 5
 124 362 l 1
 124 0 l 1
 100 0 l 1
EndSplineSet
Validated: 1
Position2: "'cpsp' Capital Spacing in Latin lookup 0 subtable" dx=5 dy=0 dh=10 dv=0
EndChar

StartChar: Hbar
Encoding: 210 294 37
Width: 714
GlyphClass: 2
Flags: MW
HStem: 0 21G<100 124 100 100 590 614 590 590> 362 23<124 590 124 590> 555 22<41 100 41 100 124 590 614 673> 555 185<41 124 41 124 100 124 100 590>
VStem: 100 24<0 362 0 385 385 555 577 740> 590 24<0 362 362 362 385 555 0 555 577 740>
LayerCount: 2
Fore
SplineSet
673 577 m 1xec
 673 555 l 1
 614 555 l 1
 614 0 l 1
 590 0 l 1
 590 362 l 1
 124 362 l 1
 124 0 l 1
 100 0 l 1
 100 555 l 1
 41 555 l 1
 41 577 l 1
 100 577 l 1xec
 100 740 l 1
 124 740 l 1xdc
 124 577 l 1
 590 577 l 1xec
 590 740 l 1
 614 740 l 1xdc
 614 577 l 1
 673 577 l 1xec
590 385 m 1
 590 555 l 1
 124 555 l 1
 124 385 l 1
 590 385 l 1
EndSplineSet
Validated: 1
Position2: "'cpsp' Capital Spacing in Latin lookup 0 subtable" dx=5 dy=0 dh=10 dv=0
EndChar

StartChar: I
Encoding: 41 73 38
Width: 224
GlyphClass: 2
Flags: MW
HStem: 0 21G<100 100 100 124> 720 20G<100 124 124 124>
VStem: 100 24<0 740 0 740>
LayerCount: 2
Fore
SplineSet
100 0 m 5
 100 740 l 5
 124 740 l 5
 124 0 l 5
 100 0 l 5
EndSplineSet
Validated: 1
Position2: "'cpsp' Capital Spacing in Latin lookup 0 subtable" dx=5 dy=0 dh=10 dv=0
EndChar

StartChar: uni0132
Encoding: 441 306 39
Width: 563
GlyphClass: 2
Flags: MW
HStem: -14 23<332 378 332 380.5> -3 21G<277 277> 0 21G<100 100 100 124> 720 20G<100 124 124 124 439 463 463 463>
VStem: 100 24<0 740 0 740> 439 24<180.5 200 200 740>
LayerCount: 2
Fore
SplineSet
100 0 m 1x3c
 100 740 l 1
 124 740 l 1
 124 0 l 1
 100 0 l 1x3c
343 -14 m 0x9c
 320 -14 295 -11 277 -3 c 1x5c
 282 17 l 1
 304 11 322 9 342 9 c 0
 414 9 439 50 439 147 c 2
 439 740 l 1
 463 740 l 1
 463 200 l 2
 463 161 463 128 462 111 c 0
 458 33 418 -14 343 -14 c 0x9c
EndSplineSet
Validated: 1
Position2: "'cpsp' Capital Spacing in Latin lookup 0 subtable" dx=5 dy=0 dh=10 dv=0
EndChar

StartChar: Iacute
Encoding: 129 205 40
Width: 224
GlyphClass: 2
Flags: MW
HStem: 0 21G<100 100 100 124> 720 20G<100 124 124 124>
VStem: 100 24<0 740 0 740>
LayerCount: 2
Fore
SplineSet
77 799 m 1
 165 935 l 1
 195 935 l 1
 100 799 l 1
 77 799 l 1
100 0 m 1
 100 740 l 1
 124 740 l 1
 124 0 l 1
 100 0 l 1
EndSplineSet
Validated: 1
Position2: "'cpsp' Capital Spacing in Latin lookup 0 subtable" dx=5 dy=0 dh=10 dv=0
EndChar

StartChar: Icircumflex
Encoding: 130 206 41
Width: 224
GlyphClass: 2
Flags: MW
HStem: 0 21G<100 100 100 124> 720 20G<100 124 124 124> 913 22<112 112>
VStem: 100 24<0 740 0 740>
LayerCount: 2
Fore
SplineSet
122 935 m 1
 220 799 l 1
 195 799 l 1
 112 913 l 1
 29 799 l 1
 4 799 l 1
 102 935 l 1
 122 935 l 1
100 0 m 1
 100 740 l 1
 124 740 l 1
 124 0 l 1
 100 0 l 1
EndSplineSet
Validated: 1
Position2: "'cpsp' Capital Spacing in Latin lookup 0 subtable" dx=5 dy=0 dh=10 dv=0
EndChar

StartChar: Idieresis
Encoding: 131 207 42
Width: 224
GlyphClass: 2
Flags: MW
HStem: 0 21G<100 100 100 124> 720 20G<100 124 124 124> 821 88<55 79 55 79 145 169 55 145>
VStem: 55 24<821 909 821 909> 100 24<0 740 0 740> 145 24<821 909 821 909>
LayerCount: 2
Fore
SplineSet
55 821 m 1
 55 909 l 1
 62 912 72 912 79 909 c 1
 79 821 l 1
 72 818 62 818 55 821 c 1
145 821 m 1
 145 909 l 1
 152 912 162 912 169 909 c 1
 169 821 l 1
 162 818 152 818 145 821 c 1
100 0 m 1xe8
 100 740 l 1
 124 740 l 1
 124 0 l 1
 100 0 l 1xe8
EndSplineSet
Validated: 1
Position2: "'cpsp' Capital Spacing in Latin lookup 0 subtable" dx=5 dy=0 dh=10 dv=0
EndChar

StartChar: Idotaccent
Encoding: 216 304 43
Width: 224
GlyphClass: 2
Flags: MW
HStem: 0 21G<100 100 100 124> 720 20G<100 124 124 124> 821 88<100 124 100 124>
VStem: 100 24<0 740 0 740 821 909>
LayerCount: 2
Fore
SplineSet
100 821 m 1
 100 909 l 1
 107 912 117 912 124 909 c 1
 124 821 l 1
 117 818 107 818 100 821 c 1
100 0 m 1
 100 740 l 1
 124 740 l 1
 124 0 l 1
 100 0 l 1
EndSplineSet
Validated: 1
Position2: "'cpsp' Capital Spacing in Latin lookup 0 subtable" dx=5 dy=0 dh=10 dv=0
EndChar

StartChar: Igrave
Encoding: 128 204 44
Width: 224
GlyphClass: 2
Flags: MW
HStem: 0 21G<100 100 100 124> 720 20G<100 124 124 124>
VStem: 100 24<0 740 0 740>
LayerCount: 2
Fore
SplineSet
147 799 m 1
 124 799 l 1
 29 935 l 1
 59 935 l 1
 147 799 l 1
100 0 m 1
 100 740 l 1
 124 740 l 1
 124 0 l 1
 100 0 l 1
EndSplineSet
Validated: 1
Position2: "'cpsp' Capital Spacing in Latin lookup 0 subtable" dx=5 dy=0 dh=10 dv=0
EndChar

StartChar: Imacron
Encoding: 212 298 45
Width: 224
GlyphClass: 2
Flags: MW
HStem: 0 21G<100 100 100 124> 720 20G<100 124 124 124> 861 22<17 207 17 207>
VStem: 100 24<0 740 0 740>
LayerCount: 2
Fore
SplineSet
17 861 m 1
 17 883 l 1
 207 883 l 1
 207 861 l 1
 17 861 l 1
100 0 m 1
 100 740 l 1
 124 740 l 1
 124 0 l 1
 100 0 l 1
EndSplineSet
Validated: 1
Position2: "'cpsp' Capital Spacing in Latin lookup 0 subtable" dx=5 dy=0 dh=10 dv=0
EndChar

StartChar: Iogonek
Encoding: 214 302 46
Width: 224
GlyphClass: 2
Flags: MW
HStem: -220 22<51 78> 0 21G<124 124> 720 20G<100 124 124 124>
VStem: -8 24<-154 -107.5> 100 24<7 740 0 740>
LayerCount: 2
Fore
SplineSet
69 -198 m 0
 91 -198 113 -191 134 -178 c 1
 132 -201 l 1
 107 -214 87 -220 69 -220 c 0
 24 -220 -8 -197 -8 -138 c 0
 -8 -77 44 -13 100 7 c 1
 100 740 l 1
 124 740 l 1
 124 0 l 1
 60 -31 16 -76 16 -135 c 0
 16 -173 33 -198 69 -198 c 0
EndSplineSet
Validated: 1
Position2: "'cpsp' Capital Spacing in Latin lookup 0 subtable" dx=5 dy=0 dh=10 dv=0
EndChar

StartChar: J
Encoding: 42 74 47
Width: 339
GlyphClass: 2
Flags: MW
HStem: -14 23<108 154 108 156.5> -3 21G<53 53> 720 20G<215 239 239 239>
VStem: 215 24<180.5 200 200 740>
LayerCount: 2
Fore
SplineSet
119 -14 m 4xb0
 96 -14 71 -11 53 -3 c 5x70
 58 17 l 5
 80 11 98 9 118 9 c 4
 190 9 215 50 215 147 c 6
 215 740 l 1
 239 740 l 1
 239 200 l 6
 239 161 239 128 238 111 c 4
 234 33 194 -14 119 -14 c 4xb0
EndSplineSet
Validated: 1
Position2: "'cpsp' Capital Spacing in Latin lookup 0 subtable" dx=5 dy=0 dh=10 dv=0
EndChar

StartChar: K
Encoding: 43 75 48
Width: 558
GlyphClass: 2
Flags: MW
HStem: 0 21G<100 100 100 124 492 527 492 492> 720 20G<100 124 124 124 505 505>
VStem: 100 24<0 740 0 740>
AnchorPoint: "Anchor-0" 268 0 basechar 0
LayerCount: 2
Fore
SplineSet
100 0 m 5
 100 740 l 5
 124 740 l 5
 124 0 l 5
 100 0 l 5
492 0 m 5
 146 367 l 5
 505 740 l 5
 527 730 l 5
 178 367 l 5
 527 0 l 5
 492 0 l 5
EndSplineSet
Validated: 1
Position2: "'cpsp' Capital Spacing in Latin lookup 0 subtable" dx=5 dy=0 dh=10 dv=0
EndChar

StartChar: Kcommaaccent
Encoding: 218 310 49
Width: 558
GlyphClass: 2
Flags: MW
HStem: 0 21G<100 100 100 124 492 527 492 492> 720 20G<100 124 124 124 505 505>
VStem: 100 24<0 740 0 740> 257 23
AnchorPoint: "Anchor-0" 268 0 basechar 0
LayerCount: 2
Fore
SplineSet
100 0 m 1
 100 740 l 1
 124 740 l 1
 124 0 l 1
 100 0 l 1
492 0 m 1
 146 367 l 1
 505 740 l 1
 527 730 l 1
 178 367 l 1
 527 0 l 1
 492 0 l 1
197 -239 m 1
 245 -167 259 -110 257 -58 c 1
 262 -54 271 -51 280 -50 c 1
 284 -118 264 -177 218 -239 c 1
 197 -239 l 1
EndSplineSet
Validated: 33
Position2: "'cpsp' Capital Spacing in Latin lookup 0 subtable" dx=5 dy=0 dh=10 dv=0
EndChar

StartChar: L
Encoding: 44 76 50
Width: 538
GlyphClass: 2
Flags: MW
HStem: 0 23<124 492> 720 20G<100 124 124 124>
VStem: 100 24<23 740 23 740 23 740>
AnchorPoint: "Anchor-0" 295 0 basechar 0
LayerCount: 2
Fore
SplineSet
100 0 m 1
 100 740 l 1
 124 740 l 1
 124 23 l 1
 497 23 l 1
 492 0 l 1
 100 0 l 1
EndSplineSet
Validated: 1
Position2: "'cpsp' Capital Spacing in Latin lookup 0 subtable" dx=5 dy=0 dh=10 dv=0
EndChar

StartChar: Lacute
Encoding: 220 313 51
Width: 538
GlyphClass: 2
Flags: MW
HStem: 0 23<124 492> 720 20G<100 124 124 124>
VStem: 100 24<23 740 23 740 23 740>
AnchorPoint: "Anchor-0" 295 0 basechar 0
LayerCount: 2
Fore
SplineSet
77 799 m 1
 165 935 l 1
 195 935 l 1
 100 799 l 1
 77 799 l 1
100 0 m 1
 100 740 l 1
 124 740 l 1
 124 23 l 1
 497 23 l 1
 492 0 l 1
 100 0 l 1
EndSplineSet
Validated: 1
Position2: "'cpsp' Capital Spacing in Latin lookup 0 subtable" dx=5 dy=0 dh=10 dv=0
EndChar

StartChar: Lcaron
Encoding: 224 317 52
Width: 538
GlyphClass: 2
Flags: MW
HStem: 0 23<124 492> 720 20G<100 124 124 124> 736 20G
VStem: 100 24<23 740 23 740 23 740> 225 23
AnchorPoint: "Anchor-0" 295 0 basechar 0
LayerCount: 2
Fore
SplineSet
165 567 m 1xb8
 213 639 227 696 225 748 c 1
 230 752 239 755 248 756 c 1
 252 688 232 629 186 567 c 1
 165 567 l 1xb8
100 0 m 1
 100 740 l 1
 124 740 l 1xd8
 124 23 l 1
 497 23 l 1
 492 0 l 1
 100 0 l 1
EndSplineSet
Validated: 33
Position2: "'cpsp' Capital Spacing in Latin lookup 0 subtable" dx=5 dy=0 dh=10 dv=0
EndChar

StartChar: Lcommaaccent
Encoding: 222 315 53
Width: 538
GlyphClass: 2
Flags: MW
HStem: 0 23<124 492> 720 20G<100 124 124 124>
VStem: 100 24<23 740 23 740 23 740> 284 23
AnchorPoint: "Anchor-0" 295 0 basechar 0
LayerCount: 2
Fore
SplineSet
100 0 m 1
 100 740 l 1
 124 740 l 1
 124 23 l 1
 497 23 l 1
 492 0 l 1
 100 0 l 1
224 -239 m 1
 272 -167 286 -110 284 -58 c 1
 289 -54 298 -51 307 -50 c 1
 311 -118 291 -177 245 -239 c 1
 224 -239 l 1
EndSplineSet
Validated: 33
Position2: "'cpsp' Capital Spacing in Latin lookup 0 subtable" dx=5 dy=0 dh=10 dv=0
EndChar

StartChar: Ldot
Encoding: 226 319 54
Width: 538
GlyphClass: 2
Flags: MW
HStem: 0 23<124 492> 318 115<377 401 377 401> 720 20G<100 124 124 124>
VStem: 100 24<23 740 23 740 23 740> 377 24<318 433 318 433>
AnchorPoint: "Anchor-0" 295 0 basechar 0
LayerCount: 2
Fore
SplineSet
100 0 m 1
 100 740 l 1
 124 740 l 1
 124 23 l 1
 497 23 l 1
 492 0 l 1
 100 0 l 1
377 318 m 1
 377 433 l 1
 383 435 395 435 401 433 c 1
 401 318 l 1
 395 316 383 316 377 318 c 1
EndSplineSet
Validated: 1
Ligature2: "Ligature Substitution lookup 2 subtable" L periodcentered
Position2: "'cpsp' Capital Spacing in Latin lookup 0 subtable" dx=5 dy=0 dh=10 dv=0
EndChar

StartChar: Lslash
Encoding: 228 321 55
Width: 538
GlyphClass: 2
Flags: MW
HStem: 0 23<124 492> 720 20G<100 124 124 124>
VStem: 100 24<23 23 23 294 294 294 338 740>
AnchorPoint: "Anchor-0" 295 0 basechar 0
LayerCount: 2
Fore
SplineSet
124 23 m 1
 497 23 l 1
 492 0 l 1
 100 0 l 1
 100 294 l 1
 60 264 l 1
 60 291 l 1
 100 321 l 1
 100 740 l 1
 124 740 l 1
 124 338 l 1
 224 412 l 1
 224 385 l 1
 124 311 l 1
 124 23 l 1
EndSplineSet
Validated: 1
Position2: "'cpsp' Capital Spacing in Latin lookup 0 subtable" dx=5 dy=0 dh=10 dv=0
EndChar

StartChar: M
Encoding: 45 77 56
Width: 911
GlyphClass: 2
Flags: MW
HStem: 1.75438 150
LayerCount: 2
Fore
SplineSet
821 0 m 5
 798 0 l 5
 728 705 l 5
 460 20 l 5
 437 20 l 5
 193 696 l 5
 112 0 l 5
 90 0 l 5
 175 740 l 5
 202 740 l 5
 450 55 l 5
 718 740 l 5
 748 740 l 5
 821 0 l 5
EndSplineSet
Validated: 1
Position2: "'cpsp' Capital Spacing in Latin lookup 0 subtable" dx=5 dy=0 dh=10 dv=0
EndChar

StartChar: N
Encoding: 46 78 57
Width: 730
GlyphClass: 2
Flags: MW
HStem: 0 21G<100 123 100 100 610 630 610 610> 720 20G<100 119 119 119 607 630 630 630>
VStem: 100 23<0 692 0 740> 607 23<49 740 0 740>
AnchorPoint: "Anchor-0" 365 0 basechar 0
LayerCount: 2
Fore
SplineSet
607 740 m 1
 630 740 l 1
 630 0 l 1
 610 0 l 1
 123 692 l 1
 123 0 l 1
 100 0 l 1
 100 740 l 1
 119 740 l 1
 607 49 l 1
 607 740 l 1
EndSplineSet
Validated: 1
Position2: "'cpsp' Capital Spacing in Latin lookup 0 subtable" dx=5 dy=0 dh=10 dv=0
EndChar

StartChar: Nacute
Encoding: 230 323 58
Width: 730
GlyphClass: 2
Flags: MW
HStem: 0 21G<100 123 100 100 610 630 610 610> 720 20G<100 119 119 119 607 630 630 630>
VStem: 100 23<0 692 0 740> 607 23<49 740 0 740>
AnchorPoint: "Anchor-0" 365 0 basechar 0
LayerCount: 2
Fore
SplineSet
448 935 m 1
 353 799 l 1
 330 799 l 1
 418 935 l 1
 448 935 l 1
607 740 m 1
 630 740 l 1
 630 0 l 1
 610 0 l 1
 123 692 l 1
 123 0 l 1
 100 0 l 1
 100 740 l 1
 119 740 l 1
 607 49 l 1
 607 740 l 1
EndSplineSet
Validated: 1
Position2: "'cpsp' Capital Spacing in Latin lookup 0 subtable" dx=5 dy=0 dh=10 dv=0
EndChar

StartChar: Ncaron
Encoding: 234 327 59
Width: 730
GlyphClass: 2
Flags: MW
HStem: 0 21G<100 123 100 100 610 630 610 610> 720 20G<100 119 119 119 607 630 630 630> 799 22<365 365 365 375 355 365>
VStem: 100 23<0 692 0 740> 607 23<49 740 0 740>
AnchorPoint: "Anchor-0" 365 0 basechar 0
LayerCount: 2
Fore
SplineSet
375 799 m 1
 355 799 l 1
 257 935 l 1
 282 935 l 1
 365 821 l 1
 448 935 l 1
 473 935 l 1
 375 799 l 1
607 740 m 1
 630 740 l 1
 630 0 l 1
 610 0 l 1
 123 692 l 1
 123 0 l 1
 100 0 l 1
 100 740 l 1
 119 740 l 1
 607 49 l 1
 607 740 l 1
EndSplineSet
Validated: 1
Position2: "'cpsp' Capital Spacing in Latin lookup 0 subtable" dx=5 dy=0 dh=10 dv=0
EndChar

StartChar: Ncommaaccent
Encoding: 232 325 60
Width: 730
GlyphClass: 2
Flags: MW
HStem: 0 21G<100 123 100 100 610 630 610 610> 720 20G<100 119 119 119 607 630 630 630>
VStem: 100 23<0 692 0 740> 354 23 607 23<49 740 0 740>
AnchorPoint: "Anchor-0" 365 0 basechar 0
LayerCount: 2
Fore
SplineSet
607 740 m 1
 630 740 l 1
 630 0 l 1
 610 0 l 1
 123 692 l 1
 123 0 l 1
 100 0 l 1
 100 740 l 1
 119 740 l 1
 607 49 l 1
 607 740 l 1
354 -58 m 1
 359 -54 368 -51 377 -50 c 1
 381 -118 361 -177 315 -239 c 1
 294 -239 l 1
 342 -167 356 -110 354 -58 c 1
EndSplineSet
Validated: 33
Position2: "'cpsp' Capital Spacing in Latin lookup 0 subtable" dx=5 dy=0 dh=10 dv=0
EndChar

StartChar: Eng
Encoding: 236 330 61
Width: 730
GlyphClass: 2
Flags: MW
HStem: -223 22<488 535.5> 0 21G<100 123 100 100 630 630> 720 20G<100 119 119 119 607 630 630 630>
VStem: 100 23<0 692 0 740> 607 23<49 740>
AnchorPoint: "Anchor-0" 365 0 basechar 0
LayerCount: 2
Fore
SplineSet
607 740 m 1
 630 740 l 1
 630 0 l 2
 630 -35 629 -64 626 -98 c 0
 619 -167 583 -223 488 -223 c 1
 488 -201 l 1
 584 -195 609 -154 608 -13 c 2
 608 3 l 1
 123 692 l 1
 123 0 l 1
 100 0 l 1
 100 740 l 1
 119 740 l 1
 607 49 l 1
 607 740 l 1
EndSplineSet
Validated: 33
Position2: "'cpsp' Capital Spacing in Latin lookup 0 subtable" dx=5 dy=0 dh=10 dv=0
EndChar

StartChar: Ntilde
Encoding: 133 209 62
Width: 730
GlyphClass: 2
Flags: MW
HStem: 0 21G<100 123 100 100 610 630 610 610> 720 20G<100 119 119 119 607 630 630 630> 833 22<429 443.5 429 450> 889 22<304.5 319>
VStem: 100 23<0 692 0 740> 261 20<828 830> 467 20<914 916> 607 23<49 740 0 740>
AnchorPoint: "Anchor-0" 365 0 basechar 0
LayerCount: 2
Fore
SplineSet
313 889 m 0
 296 889 288 875 281 828 c 1
 261 830 l 1
 266 888 283 911 313 911 c 0
 332 911 350 901 376 884 c 0
 411 861 423 855 435 855 c 0
 452 855 460 869 467 916 c 1
 487 914 l 1
 482 856 465 833 435 833 c 0
 416 833 398 843 372 860 c 0
 337 883 325 889 313 889 c 0
607 740 m 1
 630 740 l 1
 630 0 l 1
 610 0 l 1
 123 692 l 1
 123 0 l 1
 100 0 l 1
 100 740 l 1
 119 740 l 1
 607 49 l 1
 607 740 l 1
EndSplineSet
Validated: 1
Position2: "'cpsp' Capital Spacing in Latin lookup 0 subtable" dx=5 dy=0 dh=10 dv=0
EndChar

StartChar: O
Encoding: 47 79 63
Width: 744
GlyphClass: 2
Flags: MW
HStem: -14 23<289 455 289 461> 731 23<289 455>
VStem: 48 26<254.5 485.5 254.5 495> 670 26<254.5 485.5>
LayerCount: 2
Fore
SplineSet
372 754 m 0
 550 754 696 620 696 370 c 0
 696 120 550 -14 372 -14 c 4
 194 -14 48 120 48 370 c 0
 48 620 194 754 372 754 c 0
372 9 m 0
 538 9 670 139 670 370 c 0
 670 601 538 731 372 731 c 0
 206 731 74 601 74 370 c 0
 74 139 206 9 372 9 c 0
EndSplineSet
Validated: 1
Position2: "'cpsp' Capital Spacing in Latin lookup 0 subtable" dx=5 dy=0 dh=10 dv=0
EndChar

StartChar: Oacute
Encoding: 135 211 64
Width: 744
GlyphClass: 2
Flags: MW
HStem: -14 23<289 455 289 461> 731 23<289 455>
VStem: 48 26<254.5 485.5 254.5 495> 670 26<254.5 485.5>
LayerCount: 2
Fore
SplineSet
455 935 m 1
 360 799 l 1
 337 799 l 1
 425 935 l 1
 455 935 l 1
372 754 m 0
 550 754 696 620 696 370 c 0
 696 120 550 -14 372 -14 c 0
 194 -14 48 120 48 370 c 0
 48 620 194 754 372 754 c 0
372 9 m 0
 538 9 670 139 670 370 c 0
 670 601 538 731 372 731 c 0
 206 731 74 601 74 370 c 0
 74 139 206 9 372 9 c 0
EndSplineSet
Validated: 1
Position2: "'cpsp' Capital Spacing in Latin lookup 0 subtable" dx=5 dy=0 dh=10 dv=0
EndChar

StartChar: Ocircumflex
Encoding: 136 212 65
Width: 744
GlyphClass: 2
Flags: MW
HStem: -14 23<289 455 289 461> 731 23<289 455> 913 22<372 372>
VStem: 48 26<254.5 485.5 254.5 495> 670 26<254.5 485.5>
LayerCount: 2
Fore
SplineSet
372 913 m 1
 289 799 l 1
 264 799 l 1
 362 935 l 1
 382 935 l 1
 480 799 l 1
 455 799 l 1
 372 913 l 1
372 754 m 0
 550 754 696 620 696 370 c 0
 696 120 550 -14 372 -14 c 0
 194 -14 48 120 48 370 c 0
 48 620 194 754 372 754 c 0
372 9 m 0
 538 9 670 139 670 370 c 0
 670 601 538 731 372 731 c 0
 206 731 74 601 74 370 c 0
 74 139 206 9 372 9 c 0
EndSplineSet
Validated: 1
Position2: "'cpsp' Capital Spacing in Latin lookup 0 subtable" dx=5 dy=0 dh=10 dv=0
EndChar

StartChar: Odieresis
Encoding: 138 214 66
Width: 744
GlyphClass: 2
Flags: MW
HStem: -14 23<289 455 289 461> 731 23<289 455> 821 88<315 339 315 339 315 405 405 429>
VStem: 48 26<254.5 485.5 254.5 495> 315 24<821 909> 405 24<821 909> 670 26<254.5 485.5>
LayerCount: 2
Fore
SplineSet
339 821 m 1
 332 818 322 818 315 821 c 1
 315 909 l 1
 322 912 332 912 339 909 c 1
 339 821 l 1
429 821 m 1
 422 818 412 818 405 821 c 1
 405 909 l 1
 412 912 422 912 429 909 c 1
 429 821 l 1
372 754 m 0
 550 754 696 620 696 370 c 0
 696 120 550 -14 372 -14 c 0
 194 -14 48 120 48 370 c 0
 48 620 194 754 372 754 c 0
372 9 m 0
 538 9 670 139 670 370 c 0
 670 601 538 731 372 731 c 0
 206 731 74 601 74 370 c 0
 74 139 206 9 372 9 c 0
EndSplineSet
Validated: 1
Position2: "'cpsp' Capital Spacing in Latin lookup 0 subtable" dx=5 dy=0 dh=10 dv=0
EndChar

StartChar: Ograve
Encoding: 134 210 67
Width: 744
GlyphClass: 2
Flags: MW
HStem: -14 23<289 455 289 461> 731 23<289 455>
VStem: 48 26<254.5 485.5 254.5 495> 670 26<254.5 485.5>
LayerCount: 2
Fore
SplineSet
407 799 m 1
 384 799 l 1
 289 935 l 1
 319 935 l 1
 407 799 l 1
372 754 m 0
 550 754 696 620 696 370 c 0
 696 120 550 -14 372 -14 c 0
 194 -14 48 120 48 370 c 0
 48 620 194 754 372 754 c 0
372 9 m 0
 538 9 670 139 670 370 c 0
 670 601 538 731 372 731 c 0
 206 731 74 601 74 370 c 0
 74 139 206 9 372 9 c 0
EndSplineSet
Validated: 1
Position2: "'cpsp' Capital Spacing in Latin lookup 0 subtable" dx=5 dy=0 dh=10 dv=0
EndChar

StartChar: Ohungarumlaut
Encoding: 240 336 68
Width: 744
GlyphClass: 2
Flags: MW
HStem: -14 23<289 455 289 461> 731 23<289 455> 799 136<287 405 287 405 385 385 385 405 375 408>
VStem: 48 26<254.5 485.5 254.5 495> 670 26<254.5 485.5>
LayerCount: 2
Fore
SplineSet
405 935 m 1
 310 799 l 1
 287 799 l 1
 375 935 l 1
 405 935 l 1
408 799 m 1
 385 799 l 1
 473 935 l 1
 503 935 l 1
 408 799 l 1
372 754 m 0
 550 754 696 620 696 370 c 0
 696 120 550 -14 372 -14 c 0
 194 -14 48 120 48 370 c 0
 48 620 194 754 372 754 c 0
372 9 m 0
 538 9 670 139 670 370 c 0
 670 601 538 731 372 731 c 0
 206 731 74 601 74 370 c 0
 74 139 206 9 372 9 c 0
EndSplineSet
Validated: 1
Position2: "'cpsp' Capital Spacing in Latin lookup 0 subtable" dx=5 dy=0 dh=10 dv=0
EndChar

StartChar: Omacron
Encoding: 238 332 69
Width: 744
GlyphClass: 2
Flags: MW
HStem: -14 23<289 455 289 461> 731 23<289 455> 861 22<277 467 277 467>
VStem: 48 26<254.5 485.5 254.5 495> 277 190<861 883 861 883> 670 26<254.5 485.5>
LayerCount: 2
Fore
SplineSet
467 883 m 1
 467 861 l 1
 277 861 l 1
 277 883 l 1
 467 883 l 1
372 754 m 0
 550 754 696 620 696 370 c 0
 696 120 550 -14 372 -14 c 0
 194 -14 48 120 48 370 c 0
 48 620 194 754 372 754 c 0
372 9 m 0
 538 9 670 139 670 370 c 0
 670 601 538 731 372 731 c 0
 206 731 74 601 74 370 c 0
 74 139 206 9 372 9 c 0
EndSplineSet
Validated: 1
Position2: "'cpsp' Capital Spacing in Latin lookup 0 subtable" dx=5 dy=0 dh=10 dv=0
EndChar

StartChar: Oslash
Encoding: 140 216 70
Width: 744
GlyphClass: 2
Flags: MW
HStem: -14 23<335.5 455 335.5 461> -10 21G<87 87> 730 20G<653 653> 731 23<289 408> 740 20G<630 630>
VStem: 48 26<311 485.5 311 495> 670 26<254.5 429.5>
LayerCount: 2
Fore
SplineSet
593 664 m 1xa6
 656 600 696 501 696 370 c 0
 696 120 550 -14 372 -14 c 0
 294 -14 223 11 167 61 c 1
 110 -20 l 1x96
 87 -10 l 1
 149 78 l 1
 87 143 48 241 48 370 c 0
 48 620 194 754 372 754 c 0
 448 754 519 729 575 681 c 1x56
 630 760 l 1x8e
 653 750 l 1
 593 664 l 1xa6
74 370 m 0x96
 74 252 108 161 164 99 c 1
 560 661 l 1
 509 707 444 731 372 731 c 0
 206 731 74 601 74 370 c 0x96
372 9 m 0
 538 9 670 139 670 370 c 0
 670 489 635 582 578 643 c 1
 182 81 l 1
 233 34 299 9 372 9 c 0
EndSplineSet
Validated: 1
Position2: "'cpsp' Capital Spacing in Latin lookup 0 subtable" dx=5 dy=0 dh=10 dv=0
EndChar

StartChar: Otilde
Encoding: 137 213 71
Width: 744
GlyphClass: 2
Flags: MW
HStem: -14 23<289 455 289 461> 731 23<289 455> 833 22<436 450.5 436 457> 889 22<311.5 326>
VStem: 48 26<254.5 485.5 254.5 495> 268 20<828 830> 474 20<914 916> 670 26<254.5 485.5>
LayerCount: 2
Fore
SplineSet
320 889 m 0
 303 889 295 875 288 828 c 1
 268 830 l 1
 273 888 290 911 320 911 c 0
 339 911 357 901 383 884 c 0
 418 861 430 855 442 855 c 0
 459 855 467 869 474 916 c 1
 494 914 l 1
 489 856 472 833 442 833 c 0
 423 833 405 843 379 860 c 0
 344 883 332 889 320 889 c 0
372 754 m 0
 550 754 696 620 696 370 c 0
 696 120 550 -14 372 -14 c 0
 194 -14 48 120 48 370 c 0
 48 620 194 754 372 754 c 0
372 9 m 0
 538 9 670 139 670 370 c 0
 670 601 538 731 372 731 c 0
 206 731 74 601 74 370 c 0
 74 139 206 9 372 9 c 0
EndSplineSet
Validated: 1
Position2: "'cpsp' Capital Spacing in Latin lookup 0 subtable" dx=5 dy=0 dh=10 dv=0
EndChar

StartChar: OE
Encoding: 242 338 72
Width: 1005
GlyphClass: 2
Flags: MW
HStem: -14 23<289 405> 0 23<606 947> 366 23<606 917 606 922> 717 23<606 943 606 606> 731 23<289 404.5>
VStem: 48 26<254.5 485.5 254.5 495> 582 24<0 23 23 23 23 366 389 717>
AnchorPoint: "Anchor-0" 744 0 basechar 0
LayerCount: 2
Fore
SplineSet
606 23 m 1x76
 952 23 l 1
 947 0 l 1
 582 0 l 2x76
 523 0 438 -14 372 -14 c 0
 194 -14 48 120 48 370 c 0xae
 48 620 194 754 372 754 c 0
 438 754 523 740 582 740 c 2
 948 740 l 1
 943 717 l 1
 606 717 l 1
 606 389 l 1
 922 389 l 1
 917 366 l 1
 606 366 l 1
 606 23 l 1x76
372 9 m 0xae
 449 9 513 22 582 22 c 1
 582 718 l 1x76
 507 718 437 731 372 731 c 0
 206 731 74 601 74 370 c 0
 74 139 206 9 372 9 c 0xae
EndSplineSet
Validated: 1
Position2: "'cpsp' Capital Spacing in Latin lookup 0 subtable" dx=5 dy=0 dh=10 dv=0
EndChar

StartChar: P
Encoding: 48 80 73
Width: 543
GlyphClass: 2
Flags: MW
HStem: 0 21G<100 124 100 100> 314 23<124 172 124 249> 717 23<124 193 193 211 100 264 124 124>
VStem: 100 24<0 314 0 337 337 717> 470 26<475.5 580>
LayerCount: 2
Fore
SplineSet
304 738 m 0
 434 724 496 639 496 528 c 0
 496 414 405 322 273 316 c 0
 237 314 208 314 172 314 c 2
 124 314 l 1
 124 0 l 1
 100 0 l 1
 100 740 l 1
 193 740 l 2
 229 740 272 740 304 738 c 0
249 337 m 2
 388 337 470 423 470 528 c 0
 470 632 410 717 264 717 c 2
 124 717 l 1
 124 337 l 1
 249 337 l 2
EndSplineSet
Validated: 1
Position2: "'cpsp' Capital Spacing in Latin lookup 0 subtable" dx=5 dy=0 dh=10 dv=0
EndChar

StartChar: Thorn
Encoding: 146 222 74
Width: 536
GlyphClass: 2
Flags: MW
HStem: 0 21G<100 124 100 100> 194 23<124 167 124 244> 577 23<124 188 188 206 124 259 124 188> 720 20G<100 124 124 124>
VStem: 100 24<0 194 0 217 217 577 600 740> 465 26<348 447.5>
LayerCount: 2
Fore
SplineSet
299 598 m 0
 429 584 491 503 491 398 c 0
 491 290 400 202 268 196 c 0
 232 194 203 194 167 194 c 2
 124 194 l 1
 124 0 l 1
 100 0 l 1
 100 740 l 1
 124 740 l 1
 124 600 l 1
 188 600 l 2
 224 600 267 600 299 598 c 0
244 217 m 2
 383 217 465 298 465 398 c 0
 465 497 405 577 259 577 c 2
 124 577 l 1
 124 217 l 1
 244 217 l 2
EndSplineSet
Validated: 1
Position2: "'cpsp' Capital Spacing in Latin lookup 0 subtable" dx=5 dy=0 dh=10 dv=0
EndChar

StartChar: Q
Encoding: 49 81 75
Width: 744
GlyphClass: 2
Flags: MW
HStem: -213 21G<643 643> -14 23<289 372> -7 16<441 441> 731 23<289 455>
VStem: 48 26<254.5 485.5 254.5 495> 670 26<261.5 485.5>
LayerCount: 2
Fore
SplineSet
696 370 m 0xdc
 696 153 586 24 441 -7 c 1xbc
 667 -200 l 1
 643 -213 l 1
 454 -47 l 2
 428 -24 415 -17 372 -14 c 0
 194 -14 48 120 48 370 c 0
 48 620 194 754 372 754 c 0
 550 754 696 620 696 370 c 0xdc
74 370 m 0
 74 139 206 9 372 9 c 0
 538 9 670 139 670 370 c 0
 670 601 538 731 372 731 c 0
 206 731 74 601 74 370 c 0
EndSplineSet
Validated: 1
Position2: "'cpsp' Capital Spacing in Latin lookup 0 subtable" dx=5 dy=0 dh=10 dv=0
EndChar

StartChar: R
Encoding: 50 82 76
Width: 573
GlyphClass: 2
Flags: MW
HStem: 0 21G<100 124 100 100 485 513 485 485> 336 23<124 315 315 327 124 315> 717 23<124 220 220 238 100 250 124 124>
VStem: 100 24<0 336 359 717> 466 26<492.5 591.5 483 592.5>
AnchorPoint: "Anchor-0" 281 0 basechar 0
LayerCount: 2
Fore
SplineSet
485 0 m 1
 327 336 l 1
 124 336 l 1
 124 0 l 1
 100 0 l 1
 100 740 l 1
 220 740 l 2
 256 740 287 740 313 737 c 0
 431 723 492 648 492 535 c 0
 492 431 432 356 351 340 c 1
 513 0 l 1
 485 0 l 1
124 359 m 1
 315 359 l 2
 417 359 466 452 466 533 c 0
 466 652 404 717 250 717 c 2
 124 717 l 1
 124 359 l 1
EndSplineSet
Validated: 1
Position2: "'cpsp' Capital Spacing in Latin lookup 0 subtable" dx=5 dy=0 dh=10 dv=0
EndChar

StartChar: Racute
Encoding: 244 340 77
Width: 573
GlyphClass: 2
Flags: MW
HStem: 0 21G<100 124 100 100 485 513 485 485> 336 23<124 315 315 327 124 315> 717 23<124 220 220 238 100 250 124 124>
VStem: 100 24<0 336 359 717> 466 26<492.5 591.5 483 592.5>
AnchorPoint: "Anchor-0" 281 0 basechar 0
LayerCount: 2
Fore
SplineSet
354 935 m 1
 259 799 l 1
 236 799 l 1
 324 935 l 1
 354 935 l 1
485 0 m 1
 327 336 l 1
 124 336 l 1
 124 0 l 1
 100 0 l 1
 100 740 l 1
 220 740 l 2
 256 740 287 740 313 737 c 0
 431 723 492 648 492 535 c 0
 492 431 432 356 351 340 c 1
 513 0 l 1
 485 0 l 1
124 359 m 1
 315 359 l 2
 417 359 466 452 466 533 c 0
 466 652 404 717 250 717 c 2
 124 717 l 1
 124 359 l 1
EndSplineSet
Validated: 1
Position2: "'cpsp' Capital Spacing in Latin lookup 0 subtable" dx=5 dy=0 dh=10 dv=0
EndChar

StartChar: Rcaron
Encoding: 248 344 78
Width: 573
GlyphClass: 2
Flags: MW
HStem: 0 21G<100 124 100 100 485 513 485 485> 336 23<124 315 315 327 124 315> 717 23<124 220 220 238 100 250 124 124> 799 22<271 271 271 281 261 271>
VStem: 100 24<0 336 359 717> 466 26<492.5 591.5 483 592.5>
AnchorPoint: "Anchor-0" 281 0 basechar 0
LayerCount: 2
Fore
SplineSet
281 799 m 1
 261 799 l 1
 163 935 l 1
 188 935 l 1
 271 821 l 1
 354 935 l 1
 379 935 l 1
 281 799 l 1
485 0 m 1
 327 336 l 1
 124 336 l 1
 124 0 l 1
 100 0 l 1
 100 740 l 1
 220 740 l 2
 256 740 287 740 313 737 c 0
 431 723 492 648 492 535 c 0
 492 431 432 356 351 340 c 1
 513 0 l 1
 485 0 l 1
124 359 m 1
 315 359 l 2
 417 359 466 452 466 533 c 0
 466 652 404 717 250 717 c 2
 124 717 l 1
 124 359 l 1
EndSplineSet
Validated: 1
Position2: "'cpsp' Capital Spacing in Latin lookup 0 subtable" dx=5 dy=0 dh=10 dv=0
EndChar

StartChar: Rcommaaccent
Encoding: 246 342 79
Width: 573
GlyphClass: 2
Flags: MW
HStem: 0 21G<100 124 100 100 485 513 485 485> 336 23<124 315 315 327 124 315> 717 23<124 220 220 238 100 250 124 124>
VStem: 100 24<0 336 359 717> 270 23 466 26<492.5 591.5 483 592.5>
AnchorPoint: "Anchor-0" 281 0 basechar 0
LayerCount: 2
Fore
SplineSet
513 0 m 1
 485 0 l 1
 327 336 l 1
 124 336 l 1
 124 0 l 1
 100 0 l 1
 100 740 l 1
 220 740 l 2
 256 740 287 740 313 737 c 0
 431 723 492 648 492 535 c 0
 492 431 432 356 351 340 c 1
 513 0 l 1
124 359 m 1
 315 359 l 2
 417 359 466 452 466 533 c 0
 466 652 404 717 250 717 c 2
 124 717 l 1
 124 359 l 1
270 -58 m 1
 275 -54 284 -51 293 -50 c 1
 297 -118 277 -177 231 -239 c 1
 210 -239 l 1
 258 -167 272 -110 270 -58 c 1
EndSplineSet
Validated: 33
Position2: "'cpsp' Capital Spacing in Latin lookup 0 subtable" dx=5 dy=0 dh=10 dv=0
EndChar

StartChar: S
Encoding: 51 83 80
Width: 545
GlyphClass: 2
Flags: MW
HStem: -14 23<223 305.5 223 313.5> 731 23<254 336.5>
VStem: 104 26<544.5 621.5 544.5 632.5> 437 26<112.5 199.5>
AnchorPoint: "Anchor-0" 271 0 basechar 0
LayerCount: 2
Fore
SplineSet
257 -14 m 0
 188 -14 123 0 65 52 c 1
 75 73 l 1
 133 26 185 9 261 9 c 0
 350 9 437 63 437 162 c 0
 437 237 394 291 263 372 c 0
 143 447 104 497 104 580 c 0
 104 685 195 754 313 754 c 0
 372 754 413 742 456 717 c 1
 448 698 l 1
 399 723 365 731 308 731 c 0
 198 731 130 663 130 580 c 0
 130 509 169 462 283 391 c 0
 408 313 463 249 463 163 c 0
 463 57 370 -14 257 -14 c 0
EndSplineSet
Validated: 1
Position2: "'cpsp' Capital Spacing in Latin lookup 0 subtable" dx=5 dy=0 dh=10 dv=0
EndChar

StartChar: Sacute
Encoding: 250 346 81
Width: 545
GlyphClass: 2
Flags: MW
HStem: -14 23<223 305.5 223 313.5> 731 23<254 336.5>
VStem: 104 26<544.5 621.5 544.5 632.5> 437 26<112.5 199.5>
AnchorPoint: "Anchor-0" 271 0 basechar 0
LayerCount: 2
Fore
SplineSet
258 799 m 1
 346 935 l 1
 376 935 l 1
 281 799 l 1
 258 799 l 1
257 -14 m 0
 188 -14 123 0 65 52 c 1
 75 73 l 1
 133 26 185 9 261 9 c 0
 350 9 437 63 437 162 c 0
 437 237 394 291 263 372 c 0
 143 447 104 497 104 580 c 0
 104 685 195 754 313 754 c 0
 372 754 413 742 456 717 c 1
 448 698 l 1
 399 723 365 731 308 731 c 0
 198 731 130 663 130 580 c 0
 130 509 169 462 283 391 c 0
 408 313 463 249 463 163 c 0
 463 57 370 -14 257 -14 c 0
EndSplineSet
Validated: 1
Position2: "'cpsp' Capital Spacing in Latin lookup 0 subtable" dx=5 dy=0 dh=10 dv=0
EndChar

StartChar: Scaron
Encoding: 254 352 82
Width: 545
GlyphClass: 2
Flags: MW
HStem: -14 23<223 305.5 223 313.5> 731 23<254 336.5> 799 22<293 293 293 303 283 293>
VStem: 104 26<544.5 621.5 544.5 632.5> 437 26<112.5 199.5>
AnchorPoint: "Anchor-0" 271 0 basechar 0
LayerCount: 2
Fore
SplineSet
303 799 m 1
 283 799 l 1
 185 935 l 1
 210 935 l 1
 293 821 l 1
 376 935 l 1
 401 935 l 1
 303 799 l 1
283 391 m 0
 408 313 463 249 463 163 c 0
 463 57 370 -14 257 -14 c 0
 188 -14 123 0 65 52 c 1
 75 73 l 1
 133 26 185 9 261 9 c 0
 350 9 437 63 437 162 c 0
 437 237 394 291 263 372 c 0
 143 447 104 497 104 580 c 0
 104 685 195 754 313 754 c 0
 372 754 413 742 456 717 c 1
 448 698 l 1
 399 723 365 731 308 731 c 0
 198 731 130 663 130 580 c 0
 130 509 169 462 283 391 c 0
EndSplineSet
Validated: 1
Position2: "'cpsp' Capital Spacing in Latin lookup 0 subtable" dx=5 dy=0 dh=10 dv=0
EndChar

StartChar: Scedilla
Encoding: 252 350 83
Width: 545
GlyphClass: 2
Flags: MW
HStem: -210 23<236.5 269.5 236.5 272> -75 20 -14 23<252 252> 731 23<254 336.5>
VStem: 104 26<544.5 621.5 544.5 632.5> 327 24<-148 -109.5> 437 26<113 199.5>
AnchorPoint: "Anchor-0" 271 0 basechar 0
LayerCount: 2
Fore
SplineSet
463 163 m 0
 463 63 380 -6 276 -13 c 1
 255 -55 l 1
 311 -56 351 -80 351 -128 c 0
 351 -184 299 -210 245 -210 c 0
 220 -210 199 -204 185 -194 c 1
 194 -176 l 1
 211 -184 225 -187 248 -187 c 0
 291 -187 327 -167 327 -129 c 0
 327 -90 290 -70 221 -75 c 1
 252 -14 l 1
 185 -13 122 1 65 52 c 1
 75 73 l 1
 133 26 185 9 261 9 c 0
 350 9 437 63 437 162 c 0
 437 237 394 291 263 372 c 0
 143 447 104 497 104 580 c 0
 104 685 195 754 313 754 c 0
 372 754 413 742 456 717 c 1
 448 698 l 1
 399 723 365 731 308 731 c 0
 198 731 130 663 130 580 c 0
 130 509 169 462 283 391 c 0
 408 313 463 249 463 163 c 0
EndSplineSet
Validated: 33
Position2: "'cpsp' Capital Spacing in Latin lookup 0 subtable" dx=5 dy=0 dh=10 dv=0
EndChar

StartChar: T
Encoding: 52 84 84
Width: 536
GlyphClass: 2
Flags: MW
HStem: 0 21G<252 252 252 276> 717 23<15 252 15 523 276 276 276 513>
VStem: 252 24<0 717 0 717>
AnchorPoint: "Anchor-0" 264 0 basechar 0
LayerCount: 2
Fore
SplineSet
252 0 m 1
 252 717 l 1
 15 717 l 1
 15 740 l 1
 523 740 l 1
 513 717 l 1
 276 717 l 1
 276 0 l 1
 252 0 l 1
EndSplineSet
Validated: 1
Position2: "'cpsp' Capital Spacing in Latin lookup 0 subtable" dx=5 dy=0 dh=10 dv=0
EndChar

StartChar: Tbar
Encoding: 260 358 85
Width: 536
GlyphClass: 2
Flags: MW
HStem: 0 21G<252 276 252 252> 379 22<159 252 159 252 276 369> 717 23<15 252 15 523 276 513 276 276>
VStem: 252 24<0 379 0 379 401 717>
AnchorPoint: "Anchor-0" 264 0 basechar 0
LayerCount: 2
Fore
SplineSet
513 717 m 1
 276 717 l 1
 276 401 l 1
 369 401 l 1
 369 379 l 1
 276 379 l 1
 276 0 l 1
 252 0 l 1
 252 379 l 1
 159 379 l 1
 159 401 l 1
 252 401 l 1
 252 717 l 1
 15 717 l 1
 15 740 l 1
 523 740 l 1
 513 717 l 1
EndSplineSet
Validated: 1
Position2: "'cpsp' Capital Spacing in Latin lookup 0 subtable" dx=5 dy=0 dh=10 dv=0
EndChar

StartChar: Tcaron
Encoding: 258 356 86
Width: 536
GlyphClass: 2
Flags: MW
HStem: 0 21G<252 276 252 252> 717 23<15 252 15 523 276 513 276 276> 799 22<264 264 264 274 254 264>
VStem: 252 24<0 717 0 717>
AnchorPoint: "Anchor-0" 264 0 basechar 0
LayerCount: 2
Fore
SplineSet
274 799 m 1
 254 799 l 1
 156 935 l 1
 181 935 l 1
 264 821 l 1
 347 935 l 1
 372 935 l 1
 274 799 l 1
15 740 m 1
 523 740 l 1
 513 717 l 1
 276 717 l 1
 276 0 l 1
 252 0 l 1
 252 717 l 1
 15 717 l 1
 15 740 l 1
EndSplineSet
Validated: 1
Position2: "'cpsp' Capital Spacing in Latin lookup 0 subtable" dx=5 dy=0 dh=10 dv=0
EndChar

StartChar: uni0162
Encoding: 256 354 87
Width: 536
GlyphClass: 2
Flags: MW
HStem: -210 23<229.5 262.5 229.5 265> -75 20 717 23<15 252 15 523 276 513 276 276>
VStem: 252 24<0 717 0 717> 320 24<-148 -109.5>
AnchorPoint: "Anchor-0" 264 0 basechar 0
LayerCount: 2
Fore
SplineSet
276 717 m 1
 276 0 l 1
 248 -55 l 1
 304 -56 344 -80 344 -128 c 0
 344 -184 292 -210 238 -210 c 0
 213 -210 192 -204 178 -194 c 1
 187 -176 l 1
 204 -184 218 -187 241 -187 c 0
 284 -187 320 -167 320 -129 c 0
 320 -90 283 -70 214 -75 c 1
 252 0 l 1
 252 717 l 1
 15 717 l 1
 15 740 l 1
 523 740 l 1
 513 717 l 1
 276 717 l 1
EndSplineSet
Validated: 33
Position2: "'cpsp' Capital Spacing in Latin lookup 0 subtable" dx=5 dy=0 dh=10 dv=0
EndChar

StartChar: U
Encoding: 53 85 88
Width: 621
GlyphClass: 2
Flags: MW
HStem: -14 23<253 373.5 253 374> 720 20G<90 114 114 114 507 531 531 531>
VStem: 90 24<304 740> 507 24<283.5 304 304 740>
LayerCount: 2
Fore
SplineSet
310 -14 m 0
 182 -14 106 54 93 198 c 0
 90 231 90 263 90 304 c 2
 90 740 l 1
 114 740 l 1
 114 245 l 2
 114 74 195 9 311 9 c 0
 436 9 507 81 507 245 c 2
 507 740 l 1
 531 740 l 1
 531 304 l 2
 531 263 531 231 528 198 c 0
 515 54 438 -14 310 -14 c 0
EndSplineSet
Validated: 1
Position2: "'cpsp' Capital Spacing in Latin lookup 0 subtable" dx=5 dy=0 dh=10 dv=0
EndChar

StartChar: Uacute
Encoding: 142 218 89
Width: 621
GlyphClass: 2
Flags: MW
HStem: -14 23<253 373.5 253 374> 720 20G<90 114 114 114 507 531 531 531>
VStem: 90 24<304 740> 507 24<283.5 304 304 740>
LayerCount: 2
Fore
SplineSet
276 799 m 1
 364 935 l 1
 394 935 l 1
 299 799 l 1
 276 799 l 1
310 -14 m 0
 182 -14 106 54 93 198 c 0
 90 231 90 263 90 304 c 2
 90 740 l 1
 114 740 l 1
 114 245 l 2
 114 74 195 9 311 9 c 0
 436 9 507 81 507 245 c 2
 507 740 l 1
 531 740 l 1
 531 304 l 2
 531 263 531 231 528 198 c 0
 515 54 438 -14 310 -14 c 0
EndSplineSet
Validated: 1
Position2: "'cpsp' Capital Spacing in Latin lookup 0 subtable" dx=5 dy=0 dh=10 dv=0
EndChar

StartChar: Ucircumflex
Encoding: 143 219 90
Width: 621
GlyphClass: 2
Flags: MW
HStem: -14 23<253 373.5 253 374> 720 20G<90 114 114 114 507 531 531 531> 913 22<311 311>
VStem: 90 24<304 740> 507 24<283.5 304 304 740>
LayerCount: 2
Fore
SplineSet
311 913 m 1
 228 799 l 1
 203 799 l 1
 301 935 l 1
 321 935 l 1
 419 799 l 1
 394 799 l 1
 311 913 l 1
507 740 m 1
 531 740 l 1
 531 304 l 2
 531 263 531 231 528 198 c 0
 515 54 438 -14 310 -14 c 0
 182 -14 106 54 93 198 c 0
 90 231 90 263 90 304 c 2
 90 740 l 1
 114 740 l 1
 114 245 l 2
 114 74 195 9 311 9 c 0
 436 9 507 81 507 245 c 2
 507 740 l 1
EndSplineSet
Validated: 1
Position2: "'cpsp' Capital Spacing in Latin lookup 0 subtable" dx=5 dy=0 dh=10 dv=0
EndChar

StartChar: Udieresis
Encoding: 144 220 91
Width: 621
GlyphClass: 2
Flags: MW
HStem: -14 23<253 373.5 253 374> 720 20G<90 114 114 114 507 531 531 531> 821 88<254 278 254 278 344 368 254 344>
VStem: 90 24<304 740> 254 24<821 909 821 909> 344 24<821 909 821 909> 507 24<283.5 304 304 740>
LayerCount: 2
Fore
SplineSet
254 821 m 1
 254 909 l 1
 261 912 271 912 278 909 c 1
 278 821 l 1
 271 818 261 818 254 821 c 1
344 821 m 1
 344 909 l 1
 351 912 361 912 368 909 c 1
 368 821 l 1
 361 818 351 818 344 821 c 1
310 -14 m 0
 182 -14 106 54 93 198 c 0
 90 231 90 263 90 304 c 2
 90 740 l 1
 114 740 l 1
 114 245 l 2
 114 74 195 9 311 9 c 0
 436 9 507 81 507 245 c 2
 507 740 l 1
 531 740 l 1
 531 304 l 2
 531 263 531 231 528 198 c 0
 515 54 438 -14 310 -14 c 0
EndSplineSet
Validated: 1
Position2: "'cpsp' Capital Spacing in Latin lookup 0 subtable" dx=5 dy=0 dh=10 dv=0
EndChar

StartChar: Ugrave
Encoding: 141 217 92
Width: 621
GlyphClass: 2
Flags: MW
HStem: -14 23<253 373.5 253 374> 720 20G<90 114 114 114 507 531 531 531>
VStem: 90 24<304 740> 507 24<283.5 304 304 740>
LayerCount: 2
Fore
SplineSet
346 799 m 1
 323 799 l 1
 228 935 l 1
 258 935 l 1
 346 799 l 1
310 -14 m 0
 182 -14 106 54 93 198 c 0
 90 231 90 263 90 304 c 2
 90 740 l 1
 114 740 l 1
 114 245 l 2
 114 74 195 9 311 9 c 0
 436 9 507 81 507 245 c 2
 507 740 l 1
 531 740 l 1
 531 304 l 2
 531 263 531 231 528 198 c 0
 515 54 438 -14 310 -14 c 0
EndSplineSet
Validated: 1
Position2: "'cpsp' Capital Spacing in Latin lookup 0 subtable" dx=5 dy=0 dh=10 dv=0
EndChar

StartChar: Uhungarumlaut
Encoding: 266 368 93
Width: 621
GlyphClass: 2
Flags: MW
HStem: -14 23<253 373.5 253 374> 720 20G<90 114 114 114 507 531 531 531> 799 136<226 344 226 344 324 344 314 347 324 324>
VStem: 90 24<304 740> 507 24<283.5 304 304 740>
LayerCount: 2
Fore
SplineSet
226 799 m 1
 314 935 l 1
 344 935 l 1
 249 799 l 1
 226 799 l 1
324 799 m 1
 412 935 l 1
 442 935 l 1
 347 799 l 1
 324 799 l 1
310 -14 m 0
 182 -14 106 54 93 198 c 0
 90 231 90 263 90 304 c 2
 90 740 l 1
 114 740 l 1
 114 245 l 2
 114 74 195 9 311 9 c 0
 436 9 507 81 507 245 c 2
 507 740 l 1
 531 740 l 1
 531 304 l 2
 531 263 531 231 528 198 c 0
 515 54 438 -14 310 -14 c 0
EndSplineSet
Validated: 1
Position2: "'cpsp' Capital Spacing in Latin lookup 0 subtable" dx=5 dy=0 dh=10 dv=0
EndChar

StartChar: Umacron
Encoding: 262 362 94
Width: 621
GlyphClass: 2
Flags: MW
HStem: -14 23<253 373.5 253 374> 720 20G<90 114 114 114 507 531 531 531> 861 22<216 406 216 406>
VStem: 90 24<304 740> 216 190<861 883 861 883> 507 24<283.5 304 304 740>
LayerCount: 2
Fore
SplineSet
216 861 m 1
 216 883 l 1
 406 883 l 1
 406 861 l 1
 216 861 l 1
310 -14 m 0
 182 -14 106 54 93 198 c 0
 90 231 90 263 90 304 c 2
 90 740 l 1
 114 740 l 1
 114 245 l 2
 114 74 195 9 311 9 c 0
 436 9 507 81 507 245 c 2
 507 740 l 1
 531 740 l 1
 531 304 l 2
 531 263 531 231 528 198 c 0
 515 54 438 -14 310 -14 c 0
EndSplineSet
Validated: 1
Position2: "'cpsp' Capital Spacing in Latin lookup 0 subtable" dx=5 dy=0 dh=10 dv=0
EndChar

StartChar: Uogonek
Encoding: 268 370 95
Width: 621
GlyphClass: 2
Flags: MW
HStem: -220 22<339 366> -14 23<253 318> 720 20G<90 114 114 114 507 531 531 531>
VStem: 90 24<304 740> 280 24<-154 -113.5> 507 24<283.5 304 304 740>
LayerCount: 2
Fore
SplineSet
507 740 m 1
 531 740 l 1
 531 304 l 2
 531 263 531 231 528 198 c 0
 519 94 476 30 405 2 c 1
 344 -30 304 -79 304 -135 c 0
 304 -173 321 -198 357 -198 c 0
 379 -198 401 -191 422 -178 c 1
 420 -201 l 1
 395 -214 375 -220 357 -220 c 0
 312 -220 280 -197 280 -138 c 0
 280 -89 315 -39 355 -11 c 1
 341 -13 326 -14 310 -14 c 0
 182 -14 106 54 93 198 c 0
 90 231 90 263 90 304 c 2
 90 740 l 1
 114 740 l 1
 114 245 l 2
 114 74 195 9 311 9 c 0
 436 9 507 81 507 245 c 2
 507 740 l 1
EndSplineSet
Validated: 1
Position2: "'cpsp' Capital Spacing in Latin lookup 0 subtable" dx=5 dy=0 dh=10 dv=0
EndChar

StartChar: Uring
Encoding: 264 366 96
Width: 621
GlyphClass: 2
Flags: MW
HStem: -14 23<253 373.5 253 374> 720 20G<90 114 114 114 507 531 531 531> 777 21<291.5 330.5 291.5 336.5> 930 21<291.5 330.5>
VStem: 90 24<304 740> 218 23<845.5 882.5 845.5 888> 381 23<845.5 882.5> 507 24<283.5 304 304 740>
LayerCount: 2
Fore
SplineSet
311 777 m 0
 260 777 218 816 218 864 c 0
 218 912 260 951 311 951 c 0
 362 951 404 912 404 864 c 0
 404 816 362 777 311 777 c 0
311 798 m 0
 350 798 381 827 381 864 c 0
 381 901 350 930 311 930 c 0
 272 930 241 901 241 864 c 0
 241 827 272 798 311 798 c 0
310 -14 m 0
 182 -14 106 54 93 198 c 0
 90 231 90 263 90 304 c 2
 90 740 l 1
 114 740 l 1
 114 245 l 2
 114 74 195 9 311 9 c 0
 436 9 507 81 507 245 c 2
 507 740 l 1
 531 740 l 1
 531 304 l 2
 531 263 531 231 528 198 c 0
 515 54 438 -14 310 -14 c 0
EndSplineSet
Validated: 1
Position2: "'cpsp' Capital Spacing in Latin lookup 0 subtable" dx=5 dy=0 dh=10 dv=0
EndChar

StartChar: V
Encoding: 54 86 97
Width: 633
GlyphClass: 2
Flags: MW
HStem: 0 32<307 307 307 319 294 307> 720 20G<30 56 56 56 578 605 605 605>
VStem: 30 575<740 740>
LayerCount: 2
Fore
SplineSet
578 740 m 5
 605 740 l 5
 319 0 l 5
 294 0 l 5
 30 740 l 5
 56 740 l 5
 307 32 l 5
 578 740 l 5
EndSplineSet
Validated: 1
Position2: "'cpsp' Capital Spacing in Latin lookup 0 subtable" dx=5 dy=0 dh=10 dv=0
EndChar

StartChar: W
Encoding: 55 87 98
Width: 934
GlyphClass: 2
Flags: MW
HStem: 0 26<673 673 673 687 656 673> 689 30<467 467> 720 20G<30 55 55 55 881 906 906 906>
VStem: 30 876<740 740>
LayerCount: 2
Fore
SplineSet
881 740 m 1
 906 740 l 1xb0
 687 0 l 1
 656 0 l 1
 467 689 l 1xd0
 262 0 l 1
 235 0 l 1
 30 740 l 1
 55 740 l 1xb0
 249 36 l 1
 453 719 l 1
 482 719 l 1xd0
 673 26 l 1
 881 740 l 1
EndSplineSet
Validated: 1
Position2: "'cpsp' Capital Spacing in Latin lookup 0 subtable" dx=5 dy=0 dh=10 dv=0
EndChar

StartChar: Wacute
Encoding: 379 7810 99
Width: 934
GlyphClass: 2
Flags: MW
HStem: 0 26<673 673 673 687 656 673> 689 30<467 467> 720 20G<30 55 55 55 881 906 906 906>
VStem: 30 876<740 740>
LayerCount: 2
Fore
SplineSet
551 935 m 1
 456 799 l 1
 433 799 l 1
 521 935 l 1
 551 935 l 1
881 740 m 1
 906 740 l 1xb0
 687 0 l 1
 656 0 l 1
 467 689 l 1xd0
 262 0 l 1
 235 0 l 1
 30 740 l 1
 55 740 l 1xb0
 249 36 l 1
 453 719 l 1
 482 719 l 1xd0
 673 26 l 1
 881 740 l 1
EndSplineSet
Validated: 1
Position2: "'cpsp' Capital Spacing in Latin lookup 0 subtable" dx=5 dy=0 dh=10 dv=0
EndChar

StartChar: Wcircumflex
Encoding: 270 372 100
Width: 934
GlyphClass: 2
Flags: MW
HStem: 0 26<673 673 673 687 656 673> 689 30<467 467> 720 20G<30 55 55 55 881 906 906 906> 913 22<468 468>
VStem: 30 876<740 740>
LayerCount: 2
Fore
SplineSet
468 913 m 1
 385 799 l 1
 360 799 l 1
 458 935 l 1
 478 935 l 1
 576 799 l 1
 551 799 l 1
 468 913 l 1
881 740 m 1
 906 740 l 1xb8
 687 0 l 1
 656 0 l 1
 467 689 l 1xd8
 262 0 l 1
 235 0 l 1
 30 740 l 1
 55 740 l 1xb8
 249 36 l 1
 453 719 l 1
 482 719 l 1xd8
 673 26 l 1
 881 740 l 1
EndSplineSet
Validated: 1
Position2: "'cpsp' Capital Spacing in Latin lookup 0 subtable" dx=5 dy=0 dh=10 dv=0
EndChar

StartChar: Wdieresis
Encoding: 381 7812 101
Width: 934
GlyphClass: 2
Flags: MW
HStem: 0 26<673 673 673 687 656 673> 689 30<467 467> 720 20G<30 55 55 55 881 906 906 906> 821 88<411 435 411 435 411 501 501 525>
VStem: 411 24<821 909> 501 24<821 909>
LayerCount: 2
Fore
SplineSet
435 821 m 1
 428 818 418 818 411 821 c 1
 411 909 l 1
 418 912 428 912 435 909 c 1
 435 821 l 1
525 821 m 1
 518 818 508 818 501 821 c 1
 501 909 l 1
 508 912 518 912 525 909 c 1
 525 821 l 1
881 740 m 1
 906 740 l 1xbc
 687 0 l 1
 656 0 l 1
 467 689 l 1xdc
 262 0 l 1
 235 0 l 1
 30 740 l 1
 55 740 l 1xbc
 249 36 l 1
 453 719 l 1
 482 719 l 1xdc
 673 26 l 1
 881 740 l 1
EndSplineSet
Validated: 1
Position2: "'cpsp' Capital Spacing in Latin lookup 0 subtable" dx=5 dy=0 dh=10 dv=0
EndChar

StartChar: Wgrave
Encoding: 377 7808 102
Width: 934
GlyphClass: 2
Flags: MW
HStem: 0 26<673 673 673 687 656 673> 689 30<467 467> 720 20G<30 55 55 55 881 906 906 906>
VStem: 30 876<740 740>
LayerCount: 2
Fore
SplineSet
503 799 m 1
 480 799 l 1
 385 935 l 1
 415 935 l 1
 503 799 l 1
881 740 m 1
 906 740 l 1xb0
 687 0 l 1
 656 0 l 1
 467 689 l 1xd0
 262 0 l 1
 235 0 l 1
 30 740 l 1
 55 740 l 1xb0
 249 36 l 1
 453 719 l 1
 482 719 l 1xd0
 673 26 l 1
 881 740 l 1
EndSplineSet
Validated: 1
Position2: "'cpsp' Capital Spacing in Latin lookup 0 subtable" dx=5 dy=0 dh=10 dv=0
EndChar

StartChar: X
Encoding: 56 88 103
Width: 625
GlyphClass: 2
Flags: MW
HStem: 0 21G<66 94 66 66 544 575 544 544> 720 20G<94 122 122 122 547 575 575 575>
VStem: 66 509<0 0>
LayerCount: 2
Fore
SplineSet
575 740 m 5
 341 378 l 5
 575 0 l 5
 544 0 l 5
 326 359 l 5
 94 0 l 5
 66 0 l 5
 311 376 l 5
 94 740 l 5
 122 740 l 5
 327 396 l 5
 547 740 l 5
 575 740 l 5
EndSplineSet
Validated: 1
Position2: "'cpsp' Capital Spacing in Latin lookup 0 subtable" dx=5 dy=0 dh=10 dv=0
EndChar

StartChar: Y
Encoding: 57 89 104
Width: 536
GlyphClass: 2
Flags: MW
HStem: 0 21G<255 279 255 255> 720 20G<15 42 42 42 494 522 522 522>
VStem: 255 24<0 320 0 320>
LayerCount: 2
Fore
SplineSet
522 740 m 1
 279 320 l 1
 279 0 l 1
 255 0 l 1
 255 320 l 1
 15 740 l 1
 42 740 l 1
 268 346 l 1
 494 740 l 1
 522 740 l 1
EndSplineSet
Validated: 1
Position2: "'cpsp' Capital Spacing in Latin lookup 0 subtable" dx=5 dy=0 dh=10 dv=0
EndChar

StartChar: Yacute
Encoding: 145 221 105
Width: 536
GlyphClass: 2
Flags: MW
HStem: 0 21G<255 279 255 255> 720 20G<15 42 42 42 494 522 522 522>
VStem: 255 24<0 320 0 320>
LayerCount: 2
Fore
SplineSet
352 935 m 1
 257 799 l 1
 234 799 l 1
 322 935 l 1
 352 935 l 1
522 740 m 1
 279 320 l 1
 279 0 l 1
 255 0 l 1
 255 320 l 1
 15 740 l 1
 42 740 l 1
 268 346 l 1
 494 740 l 1
 522 740 l 1
EndSplineSet
Validated: 1
Position2: "'cpsp' Capital Spacing in Latin lookup 0 subtable" dx=5 dy=0 dh=10 dv=0
EndChar

StartChar: Ycircumflex
Encoding: 272 374 106
Width: 536
GlyphClass: 2
Flags: MW
HStem: 0 21G<255 279 255 255> 720 20G<15 42 42 42 494 522 522 522> 913 22<269 269>
VStem: 255 24<0 320 0 320>
LayerCount: 2
Fore
SplineSet
269 913 m 1
 186 799 l 1
 161 799 l 1
 259 935 l 1
 279 935 l 1
 377 799 l 1
 352 799 l 1
 269 913 l 1
522 740 m 1
 279 320 l 1
 279 0 l 1
 255 0 l 1
 255 320 l 1
 15 740 l 1
 42 740 l 1
 268 346 l 1
 494 740 l 1
 522 740 l 1
EndSplineSet
Validated: 1
Position2: "'cpsp' Capital Spacing in Latin lookup 0 subtable" dx=5 dy=0 dh=10 dv=0
EndChar

StartChar: Ydieresis
Encoding: 274 376 107
Width: 536
GlyphClass: 2
Flags: MW
HStem: 0 21G<255 279 255 255> 720 20G<15 42 42 42 494 522 522 522> 821 88<212 236 212 236 212 302 302 326>
VStem: 212 24<821 909> 255 24<0 320 0 320> 302 24<821 909>
LayerCount: 2
Fore
SplineSet
236 821 m 1
 229 818 219 818 212 821 c 1
 212 909 l 1
 219 912 229 912 236 909 c 1
 236 821 l 1
326 821 m 1
 319 818 309 818 302 821 c 1
 302 909 l 1
 309 912 319 912 326 909 c 1
 326 821 l 1
522 740 m 1
 279 320 l 1
 279 0 l 1
 255 0 l 1
 255 320 l 1xe8
 15 740 l 1
 42 740 l 1
 268 346 l 1
 494 740 l 1
 522 740 l 1
EndSplineSet
Validated: 1
Position2: "'cpsp' Capital Spacing in Latin lookup 0 subtable" dx=5 dy=0 dh=10 dv=0
EndChar

StartChar: Ygrave
Encoding: 383 7922 108
Width: 536
GlyphClass: 2
Flags: MW
HStem: 0 21G<255 279 255 255> 720 20G<15 42 42 42 494 522 522 522>
VStem: 255 24<0 320 0 320>
LayerCount: 2
Fore
SplineSet
304 799 m 1
 281 799 l 1
 186 935 l 1
 216 935 l 1
 304 799 l 1
522 740 m 1
 279 320 l 1
 279 0 l 1
 255 0 l 1
 255 320 l 1
 15 740 l 1
 42 740 l 1
 268 346 l 1
 494 740 l 1
 522 740 l 1
EndSplineSet
Validated: 1
Position2: "'cpsp' Capital Spacing in Latin lookup 0 subtable" dx=5 dy=0 dh=10 dv=0
EndChar

StartChar: Z
Encoding: 58 90 109
Width: 608
GlyphClass: 2
Flags: MW
HStem: 0 23<114 551> 717 23<109 494 109 527>
VStem: 80 481<0 23 12 23>
LayerCount: 2
Fore
SplineSet
114 23 m 1
 561 23 l 1
 551 0 l 1
 80 0 l 1
 80 12 l 1
 494 717 l 1
 109 717 l 1
 109 740 l 1
 527 740 l 1
 527 728 l 1
 114 23 l 1
EndSplineSet
Validated: 1
Position2: "'cpsp' Capital Spacing in Latin lookup 0 subtable" dx=5 dy=0 dh=10 dv=0
EndChar

StartChar: Zacute
Encoding: 275 377 110
Width: 608
GlyphClass: 2
Flags: MW
HStem: 0 23<114 551> 717 23<109 494 109 527>
VStem: 80 481<0 23 12 23>
LayerCount: 2
Fore
SplineSet
394 935 m 1
 299 799 l 1
 276 799 l 1
 364 935 l 1
 394 935 l 1
114 23 m 1
 561 23 l 1
 551 0 l 1
 80 0 l 1
 80 12 l 1
 494 717 l 1
 109 717 l 1
 109 740 l 1
 527 740 l 1
 527 728 l 1
 114 23 l 1
EndSplineSet
Validated: 1
Position2: "'cpsp' Capital Spacing in Latin lookup 0 subtable" dx=5 dy=0 dh=10 dv=0
EndChar

StartChar: Zcaron
Encoding: 279 381 111
Width: 608
GlyphClass: 2
Flags: MW
HStem: 0 23<114 551> 717 23<109 494 109 527> 799 22<311 311 311 321 301 311>
VStem: 80 481<0 23 12 23>
LayerCount: 2
Fore
SplineSet
321 799 m 1
 301 799 l 1
 203 935 l 1
 228 935 l 1
 311 821 l 1
 394 935 l 1
 419 935 l 1
 321 799 l 1
114 23 m 1
 561 23 l 1
 551 0 l 1
 80 0 l 1
 80 12 l 1
 494 717 l 1
 109 717 l 1
 109 740 l 1
 527 740 l 1
 527 728 l 1
 114 23 l 1
EndSplineSet
Validated: 1
Position2: "'cpsp' Capital Spacing in Latin lookup 0 subtable" dx=5 dy=0 dh=10 dv=0
EndChar

StartChar: Zdotaccent
Encoding: 277 379 112
Width: 608
GlyphClass: 2
Flags: MW
HStem: 0 23<114 551> 717 23<109 494 109 527> 821 88<299 323 299 323>
VStem: 299 24<821 909>
LayerCount: 2
Fore
SplineSet
323 821 m 1
 316 818 306 818 299 821 c 1
 299 909 l 1
 306 912 316 912 323 909 c 1
 323 821 l 1
114 23 m 1
 561 23 l 1
 551 0 l 1
 80 0 l 1
 80 12 l 1
 494 717 l 1
 109 717 l 1
 109 740 l 1
 527 740 l 1
 527 728 l 1
 114 23 l 1
EndSplineSet
Validated: 1
Position2: "'cpsp' Capital Spacing in Latin lookup 0 subtable" dx=5 dy=0 dh=10 dv=0
EndChar

StartChar: a
Encoding: 65 97 113
Width: 488
GlyphClass: 2
Flags: MW
HStem: -14 23<166.5 231.5 166.5 232> -3 21G<384 384> 0 21G<409 409> 265 23<205.5 282.5 197 284> 507 23<215.5 282.5 215.5 285>
VStem: 61 25<95.5 182 95.5 186> 372 24<75 90 90 255 255 255 278 323>
LayerCount: 2
Fore
SplineSet
409 0 m 1x3e
 384 -3 l 1x5e
 373 46 l 1
 327 9 259 -14 205 -14 c 0x9e
 119 -14 61 30 61 136 c 0
 61 236 132 288 262 288 c 0
 303 288 343 284 372 278 c 1
 372 362 l 2
 372 457 334 507 236 507 c 0
 193 507 150 496 108 472 c 1
 98 491 l 1
 139 516 190 530 241 530 c 0
 324 530 387 488 394 396 c 0
 396 374 396 355 396 323 c 2
 396 90 l 2
 396 60 398 46 409 0 c 1x3e
86 137 m 0x9e
 86 54 126 9 207 9 c 0
 256 9 322 27 372 71 c 1
 372 255 l 1
 343 261 307 265 261 265 c 0
 150 265 86 227 86 137 c 0x9e
EndSplineSet
Validated: 1
EndChar

StartChar: aacute
Encoding: 149 225 114
Width: 488
GlyphClass: 2
Flags: MW
HStem: -14 23<166.5 231.5 166.5 232> -3 21G<384 384> 0 21G<409 409> 265 23<205.5 282.5 197 284> 507 23<215.5 282.5 215.5 285> 740 20G<308 339 339 339>
VStem: 61 25<95.5 182 95.5 186> 372 24<75 90 90 255 255 255 278 323>
LayerCount: 2
Fore
SplineSet
339 760 m 1x9f
 242 604 l 1
 220 604 l 1
 308 760 l 1
 339 760 l 1x9f
409 0 m 1x3f
 384 -3 l 1x5f
 373 46 l 1
 327 9 259 -14 205 -14 c 0x9f
 119 -14 61 30 61 136 c 0
 61 236 132 288 262 288 c 0
 303 288 343 284 372 278 c 1
 372 362 l 2
 372 457 334 507 236 507 c 0
 193 507 150 496 108 472 c 1
 98 491 l 1
 139 516 190 530 241 530 c 0
 324 530 387 488 394 396 c 0
 396 374 396 355 396 323 c 2
 396 90 l 2
 396 60 398 46 409 0 c 1x3f
86 137 m 0x9f
 86 54 126 9 207 9 c 0
 256 9 322 27 372 71 c 1
 372 255 l 1
 343 261 307 265 261 265 c 0
 150 265 86 227 86 137 c 0x9f
EndSplineSet
Validated: 1
EndChar

StartChar: abreve
Encoding: 183 259 115
Width: 488
GlyphClass: 2
Flags: MW
HStem: -14 23<166.5 231.5 166.5 232> -3 21G<384 384> 0 21G<409 409> 265 23<205.5 282.5 197 284> 507 23<215.5 282.5 215.5 285> 594 22<209.5 268.5 209.5 274> 740 20G<129 149 149 149 329 349 349 349>
VStem: 61 25<95.5 182 95.5 186> 129 20<760 760> 329 20<760 760> 372 24<75 90 90 255 255 255 278 323>
LayerCount: 2
Fore
SplineSet
239 594 m 0x9fa0
 168 594 122 653 129 760 c 1
 149 760 l 1
 146 669 180 616 239 616 c 0
 298 616 332 669 329 760 c 1
 349 760 l 1x9fe0
 356 653 309 594 239 594 c 0x9fa0
409 0 m 1x3fa0
 384 -3 l 1x5fa0
 373 46 l 1
 327 9 259 -14 205 -14 c 0x9fa0
 119 -14 61 30 61 136 c 0
 61 236 132 288 262 288 c 0
 303 288 343 284 372 278 c 1
 372 362 l 2
 372 457 334 507 236 507 c 0
 193 507 150 496 108 472 c 1
 98 491 l 1
 139 516 190 530 241 530 c 0
 324 530 387 488 394 396 c 0
 396 374 396 355 396 323 c 2
 396 90 l 2
 396 60 398 46 409 0 c 1x3fa0
86 137 m 0x9fa0
 86 54 126 9 207 9 c 0
 256 9 322 27 372 71 c 1
 372 255 l 1
 343 261 307 265 261 265 c 0
 150 265 86 227 86 137 c 0x9fa0
EndSplineSet
Validated: 33
EndChar

StartChar: acircumflex
Encoding: 150 226 116
Width: 488
GlyphClass: 2
Flags: MW
HStem: -14 23<166.5 231.5 166.5 232> -3 21G<384 384> 0 21G<409 409> 265 23<205.5 282.5 197 284> 507 23<215.5 282.5 215.5 285> 736 24<245 245>
VStem: 61 25<95.5 182 95.5 186> 372 24<75 90 90 255 255 255 278 323>
LayerCount: 2
Fore
SplineSet
245 736 m 1x9f
 161 604 l 1
 137 604 l 1
 235 760 l 1
 255 760 l 1
 353 604 l 1
 328 604 l 1
 245 736 l 1x9f
409 0 m 1x3f
 384 -3 l 1x5f
 373 46 l 1
 327 9 259 -14 205 -14 c 0x9f
 119 -14 61 30 61 136 c 0
 61 236 132 288 262 288 c 0
 303 288 343 284 372 278 c 1
 372 362 l 2
 372 457 334 507 236 507 c 0
 193 507 150 496 108 472 c 1
 98 491 l 1
 139 516 190 530 241 530 c 0
 324 530 387 488 394 396 c 0
 396 374 396 355 396 323 c 2
 396 90 l 2
 396 60 398 46 409 0 c 1x3f
86 137 m 0x9f
 86 54 126 9 207 9 c 0
 256 9 322 27 372 71 c 1
 372 255 l 1
 343 261 307 265 261 265 c 0
 150 265 86 227 86 137 c 0x9f
EndSplineSet
Validated: 1
EndChar

StartChar: adieresis
Encoding: 152 228 117
Width: 488
GlyphClass: 2
Flags: MW
HStem: -14 23<166.5 231.5 166.5 232> -3 21G<384 384> 0 21G<409 409> 265 23<205.5 282.5 197 284> 507 23<215.5 282.5 215.5 285> 611 88<188 212 188 212 188 278 278 302>
VStem: 61 25<95.5 182 95.5 186> 188 24<611 699> 278 24<611 699> 372 24<75 90 90 255 255 255 278 323>
LayerCount: 2
Fore
SplineSet
212 611 m 1x9fc0
 205 608 195 608 188 611 c 1
 188 699 l 1
 195 702 205 702 212 699 c 1
 212 611 l 1x9fc0
302 611 m 1
 295 608 285 608 278 611 c 1
 278 699 l 1
 285 702 295 702 302 699 c 1
 302 611 l 1
409 0 m 1x3fc0
 384 -3 l 1x5fc0
 373 46 l 1
 327 9 259 -14 205 -14 c 0x9fc0
 119 -14 61 30 61 136 c 0
 61 236 132 288 262 288 c 0
 303 288 343 284 372 278 c 1
 372 362 l 2
 372 457 334 507 236 507 c 0
 193 507 150 496 108 472 c 1
 98 491 l 1
 139 516 190 530 241 530 c 0
 324 530 387 488 394 396 c 0
 396 374 396 355 396 323 c 2
 396 90 l 2
 396 60 398 46 409 0 c 1x3fc0
86 137 m 0x9fc0
 86 54 126 9 207 9 c 0
 256 9 322 27 372 71 c 1
 372 255 l 1
 343 261 307 265 261 265 c 0
 150 265 86 227 86 137 c 0x9fc0
EndSplineSet
Validated: 1
EndChar

StartChar: agrave
Encoding: 148 224 118
Width: 488
GlyphClass: 2
Flags: MW
HStem: -14 23<166.5 231.5 166.5 232> -3 21G<384 384> 0 21G<409 409> 265 23<205.5 282.5 197 284> 507 23<215.5 282.5 215.5 285> 740 20G<141 172 172 172>
VStem: 61 25<95.5 182 95.5 186> 372 24<75 90 90 255 255 255 278 323>
LayerCount: 2
Fore
SplineSet
260 604 m 1x9f
 238 604 l 1
 141 760 l 1
 172 760 l 1
 260 604 l 1x9f
409 0 m 1x3f
 384 -3 l 1x5f
 373 46 l 1
 327 9 259 -14 205 -14 c 0x9f
 119 -14 61 30 61 136 c 0
 61 236 132 288 262 288 c 0
 303 288 343 284 372 278 c 1
 372 362 l 2
 372 457 334 507 236 507 c 0
 193 507 150 496 108 472 c 1
 98 491 l 1
 139 516 190 530 241 530 c 0
 324 530 387 488 394 396 c 0
 396 374 396 355 396 323 c 2
 396 90 l 2
 396 60 398 46 409 0 c 1x3f
86 137 m 0x9f
 86 54 126 9 207 9 c 0
 256 9 322 27 372 71 c 1
 372 255 l 1
 343 261 307 265 261 265 c 0
 150 265 86 227 86 137 c 0x9f
EndSplineSet
Validated: 1
EndChar

StartChar: amacron
Encoding: 181 257 119
Width: 488
GlyphClass: 2
Flags: MW
HStem: -14 23<166.5 231.5 166.5 232> -3 21G<384 384> 0 21G<409 409> 265 23<205.5 282.5 197 284> 507 23<215.5 282.5 215.5 285> 663 22<160 330 160 330>
VStem: 61 25<95.5 182 95.5 186> 160 170<663 685 663 685> 372 24<75 90 90 255 255 255 278 323>
LayerCount: 2
Fore
SplineSet
330 685 m 1x9f80
 330 663 l 1
 160 663 l 1
 160 685 l 1
 330 685 l 1x9f80
409 0 m 1x3f80
 384 -3 l 1x5f80
 373 46 l 1
 327 9 259 -14 205 -14 c 0x9f80
 119 -14 61 30 61 136 c 0
 61 236 132 288 262 288 c 0
 303 288 343 284 372 278 c 1
 372 362 l 2
 372 457 334 507 236 507 c 0
 193 507 150 496 108 472 c 1
 98 491 l 1
 139 516 190 530 241 530 c 0
 324 530 387 488 394 396 c 0
 396 374 396 355 396 323 c 2
 396 90 l 2
 396 60 398 46 409 0 c 1x3f80
86 137 m 0x9f80
 86 54 126 9 207 9 c 0
 256 9 322 27 372 71 c 1
 372 255 l 1
 343 261 307 265 261 265 c 0
 150 265 86 227 86 137 c 0x9f80
EndSplineSet
Validated: 1
EndChar

StartChar: aogonek
Encoding: 185 261 120
Width: 488
GlyphClass: 2
Flags: MW
HStem: -220 22<336 363> -14 23<166.5 231.5 166.5 232> 0 21G 265 23<205.5 282.5 197 284> 507 23<215.5 282.5 215.5 285>
VStem: 61 25<95.5 182 95.5 186> 277 24<-154 -108> 372 24<75 90 90 255 255 255 278 323>
LayerCount: 2
Fore
SplineSet
354 -198 m 0xdf
 376 -198 398 -191 419 -178 c 1
 417 -201 l 1
 392 -214 372 -220 354 -220 c 0
 309 -220 277 -197 277 -138 c 0
 277 -78 331 -15 382 5 c 1
 373 46 l 1
 327 9 259 -14 205 -14 c 0xdf
 119 -14 61 30 61 136 c 0
 61 236 132 288 262 288 c 0
 303 288 343 284 372 278 c 1
 372 362 l 2
 372 457 334 507 236 507 c 0
 193 507 150 496 108 472 c 1
 98 491 l 1
 139 516 190 530 241 530 c 0
 324 530 387 488 394 396 c 0
 396 374 396 355 396 323 c 2
 396 90 l 2
 396 60 398 46 409 0 c 1xbf
 345 -31 301 -76 301 -135 c 0
 301 -173 318 -198 354 -198 c 0xdf
86 137 m 0
 86 54 126 9 207 9 c 0
 256 9 322 27 372 71 c 1
 372 255 l 1
 343 261 307 265 261 265 c 0
 150 265 86 227 86 137 c 0
EndSplineSet
Validated: 1
EndChar

StartChar: aring
Encoding: 153 229 121
Width: 488
GlyphClass: 2
Flags: MW
HStem: -14 23<166.5 231.5 166.5 232> -3 21G<384 384> 0 21G<409 409> 265 23<205.5 282.5 197 284> 507 23<215.5 282.5 215.5 285> 580 21<227 263 227 269> 739 21<227 263>
VStem: 61 25<95.5 182 95.5 186> 155 23<650 690 650 695.5> 312 23<650 690> 372 24<75 90 90 255 255 255 278 323>
LayerCount: 2
Fore
SplineSet
245 580 m 0x9fe0
 197 580 155 619 155 670 c 0
 155 721 197 760 245 760 c 0
 293 760 335 721 335 670 c 0
 335 619 293 580 245 580 c 0x9fe0
245 739 m 0
 209 739 178 710 178 670 c 0
 178 630 209 601 245 601 c 0
 281 601 312 630 312 670 c 0
 312 710 281 739 245 739 c 0
409 0 m 1x3fe0
 384 -3 l 1x5fe0
 373 46 l 1
 327 9 259 -14 205 -14 c 0x9fe0
 119 -14 61 30 61 136 c 0
 61 236 132 288 262 288 c 0
 303 288 343 284 372 278 c 1
 372 362 l 2
 372 457 334 507 236 507 c 0
 193 507 150 496 108 472 c 1
 98 491 l 1
 139 516 190 530 241 530 c 0
 324 530 387 488 394 396 c 0
 396 374 396 355 396 323 c 2
 396 90 l 2
 396 60 398 46 409 0 c 1x3fe0
86 137 m 0x9fe0
 86 54 126 9 207 9 c 0
 256 9 322 27 372 71 c 1
 372 255 l 1
 343 261 307 265 261 265 c 0
 150 265 86 227 86 137 c 0x9fe0
EndSplineSet
Validated: 1
EndChar

StartChar: atilde
Encoding: 151 227 122
Width: 488
GlyphClass: 2
Flags: MW
HStem: -14 23<166.5 231.5 166.5 232> -3 21G<384 384> 0 21G<409 409> 265 23<205.5 282.5 197 284> 507 23<215.5 282.5 215.5 285> 643 22<300 314.5 300 321> 699 22<175.5 190>
VStem: 61 25<95.5 182 95.5 186> 132 20<638 640> 338 20<724 726> 372 24<75 90 90 255 255 255 278 323>
LayerCount: 2
Fore
SplineSet
184 699 m 0x9fa0
 167 699 159 685 152 638 c 1
 132 640 l 1
 137 698 154 721 184 721 c 0
 203 721 221 711 247 694 c 0
 282 671 294 665 306 665 c 0
 323 665 331 679 338 726 c 1
 358 724 l 1
 353 666 336 643 306 643 c 0x9fe0
 287 643 269 653 243 670 c 0
 208 693 196 699 184 699 c 0x9fa0
409 0 m 1x3fa0
 384 -3 l 1x5fa0
 373 46 l 1
 327 9 259 -14 205 -14 c 0x9fa0
 119 -14 61 30 61 136 c 0
 61 236 132 288 262 288 c 0
 303 288 343 284 372 278 c 1
 372 362 l 2
 372 457 334 507 236 507 c 0
 193 507 150 496 108 472 c 1
 98 491 l 1
 139 516 190 530 241 530 c 0
 324 530 387 488 394 396 c 0
 396 374 396 355 396 323 c 2
 396 90 l 2
 396 60 398 46 409 0 c 1x3fa0
86 137 m 0x9fa0
 86 54 126 9 207 9 c 0
 256 9 322 27 372 71 c 1
 372 255 l 1
 343 261 307 265 261 265 c 0
 150 265 86 227 86 137 c 0x9fa0
EndSplineSet
Validated: 1
EndChar

StartChar: ae
Encoding: 154 230 123
Width: 821
GlyphClass: 2
Flags: MW
HStem: -14 23<174.5 244 538 609.5> 263 22<411 733 411 757 411 733> 265 23<216.5 290.5 210 291.5> 507 23<546.5 634>
VStem: 61 25<90 181.5 90 186.5> 390 21 733 24<263 285>
AnchorPoint: "Anchor-0" 580 0 basechar 0
LayerCount: 2
Fore
SplineSet
587 9 m 0xde
 636 9 689 19 735 41 c 1
 742 21 l 1
 683 -7 634 -14 585 -14 c 0
 491 -14 431 27 404 118 c 1
 356 18 270 -14 218 -14 c 0
 124 -14 61 28 61 127 c 0
 61 246 152 288 268 288 c 0
 313 288 356 285 388 279 c 1
 389 288 389 297 390 305 c 2xbe
 390 335 l 2
 390 467 355 509 252 509 c 0
 194 509 152 495 106 468 c 1
 96 487 l 1
 140 515 190 532 257 532 c 0
 345 532 403 492 410 404 c 1
 442 491 506 530 587 530 c 0
 694 530 747 469 756 343 c 0
 757 310 757 295 757 263 c 1
 411 263 l 1
 411 67 480 9 587 9 c 0xde
586 507 m 0
 480 507 417 433 411 285 c 1
 733 285 l 1
 735 457 682 507 586 507 c 0
219 9 m 0
 285 9 354 52 397 148 c 1
 391 179 388 214 388 255 c 2
 388 259 l 1
 356 263 316 265 267 265 c 0xbe
 166 265 86 235 86 128 c 0
 86 52 130 9 219 9 c 0
EndSplineSet
Validated: 33
EndChar

StartChar: b
Encoding: 66 98 124
Width: 538
GlyphClass: 2
Flags: MW
HStem: -14 23<237 314.5 237 337.5> 507 23<239.5 327.5> 734 20G<100 100> 740 20G<124 124>
VStem: 100 24<28 485 508 754 754 754> 458 24<179 354.5>
LayerCount: 2
Fore
SplineSet
263 530 m 4xdc
 401 530 482 469 482 263 c 4
 482 95 414 -14 261 -14 c 4
 199 -14 148 -7 100 13 c 5
 100 754 l 5xec
 124 760 l 5
 124 508 l 5
 173 524 216 530 263 530 c 4xdc
261 9 m 4
 368 9 458 67 458 264 c 4
 458 445 391 507 264 507 c 4
 212 507 174 502 124 485 c 5
 124 28 l 5
 167 15 213 9 261 9 c 4
EndSplineSet
Validated: 1
EndChar

StartChar: c
Encoding: 67 99 125
Width: 452
GlyphClass: 2
Flags: MW
HStem: -14 23<196 273.5> 507 23<217 299.5>
VStem: 56 24<171 341 171 348>
AnchorPoint: "Anchor-0" 254 0 basechar 0
LayerCount: 2
Fore
SplineSet
249 -14 m 4
 128 -14 56 66 56 251 c 4
 56 445 138 530 287 530 c 4
 323 530 368 522 400 511 c 5
 393 491 l 5
 361 501 317 507 282 507 c 4
 152 507 80 430 80 252 c 4
 80 90 141 9 251 9 c 4
 300 9 353 19 399 41 c 5
 406 21 l 5
 347 -7 298 -14 249 -14 c 4
EndSplineSet
Validated: 1
EndChar

StartChar: cacute
Encoding: 187 263 126
Width: 452
GlyphClass: 2
Flags: MW
HStem: -14 23<196 273.5> 507 23<217 299.5> 740 20G<314 345 345 345>
VStem: 56 24<171 341 171 348>
AnchorPoint: "Anchor-0" 254 0 basechar 0
LayerCount: 2
Fore
SplineSet
226 604 m 1
 314 760 l 1
 345 760 l 1
 248 604 l 1
 226 604 l 1
249 -14 m 0
 128 -14 56 66 56 251 c 0
 56 445 138 530 287 530 c 0
 323 530 368 522 400 511 c 1
 393 491 l 1
 361 501 317 507 282 507 c 0
 152 507 80 430 80 252 c 0
 80 90 141 9 251 9 c 0
 300 9 353 19 399 41 c 1
 406 21 l 1
 347 -7 298 -14 249 -14 c 0
EndSplineSet
Validated: 1
EndChar

StartChar: ccaron
Encoding: 191 269 127
Width: 452
GlyphClass: 2
Flags: MW
HStem: -14 23<196 273.5> 507 23<217 299.5> 604 24<251 251 251 261 241 251> 740 20G<143 168 168 168 335 359 359 359>
VStem: 56 24<171 341 171 348>
AnchorPoint: "Anchor-0" 254 0 basechar 0
LayerCount: 2
Fore
SplineSet
261 604 m 1
 241 604 l 1
 143 760 l 1
 168 760 l 1
 251 628 l 1
 335 760 l 1
 359 760 l 1
 261 604 l 1
399 41 m 1
 406 21 l 1
 347 -7 298 -14 249 -14 c 0
 128 -14 56 66 56 251 c 0
 56 445 138 530 287 530 c 0
 323 530 368 522 400 511 c 1
 393 491 l 1
 361 501 317 507 282 507 c 0
 152 507 80 430 80 252 c 0
 80 90 141 9 251 9 c 0
 300 9 353 19 399 41 c 1
EndSplineSet
Validated: 1
EndChar

StartChar: ccedilla
Encoding: 155 231 128
Width: 452
GlyphClass: 2
Flags: MW
HStem: -210 23<219.5 252.5 219.5 255> -75 20 -14 23<235 235 259 259> 507 23<217 299.5>
VStem: 56 24<171 341 171 348> 310 24<-148 -109.5>
AnchorPoint: "Anchor-0" 254 0 basechar 0
LayerCount: 2
Fore
SplineSet
238 -55 m 1
 294 -56 334 -80 334 -128 c 0
 334 -184 282 -210 228 -210 c 0
 203 -210 182 -204 168 -194 c 1
 177 -176 l 1
 194 -184 208 -187 231 -187 c 0
 274 -187 310 -167 310 -129 c 0
 310 -90 273 -70 204 -75 c 1
 235 -14 l 1
 123 -8 56 73 56 251 c 0
 56 445 138 530 287 530 c 0
 323 530 368 522 400 511 c 1
 393 491 l 1
 361 501 317 507 282 507 c 0
 152 507 80 430 80 252 c 0
 80 90 141 9 251 9 c 0
 300 9 353 19 399 41 c 1
 406 21 l 1
 351 -5 305 -13 259 -14 c 1
 238 -55 l 1
EndSplineSet
Validated: 33
EndChar

StartChar: cdotaccent
Encoding: 189 267 129
Width: 452
GlyphClass: 2
Flags: MW
HStem: -14 23<196 273.5> 507 23<217 299.5> 611 88<239 263 239 263>
VStem: 56 24<171 341 171 348> 239 24<611 699 611 699>
AnchorPoint: "Anchor-0" 254 0 basechar 0
LayerCount: 2
Fore
SplineSet
239 611 m 1
 239 699 l 1
 246 702 256 702 263 699 c 1
 263 611 l 1
 256 608 246 608 239 611 c 1
249 -14 m 0
 128 -14 56 66 56 251 c 0
 56 445 138 530 287 530 c 0
 323 530 368 522 400 511 c 1
 393 491 l 1
 361 501 317 507 282 507 c 0
 152 507 80 430 80 252 c 0
 80 90 141 9 251 9 c 0
 300 9 353 19 399 41 c 1
 406 21 l 1
 347 -7 298 -14 249 -14 c 0
EndSplineSet
Validated: 1
EndChar

StartChar: d
Encoding: 68 100 130
Width: 538
GlyphClass: 2
Flags: MW
HStem: -14 23<210.5 300 210.5 302> 507 23<223.5 301> 734 20G<414 414> 740 20G<438 438>
VStem: 56 24<161.5 337> 414 24<31 488 488 488 512 754 754 754>
LayerCount: 2
Fore
SplineSet
414 754 m 1xec
 438 760 l 1xdc
 438 17 l 1
 379 -6 329 -14 275 -14 c 0
 137 -14 56 47 56 253 c 0
 56 421 124 530 277 530 c 0
 329 530 373 525 414 512 c 1
 414 754 l 1xec
80 252 m 0
 80 71 147 9 274 9 c 0
 326 9 364 14 414 31 c 1
 414 488 l 1
 371 501 325 507 277 507 c 0
 170 507 80 449 80 252 c 0
EndSplineSet
Validated: 1
EndChar

StartChar: eth
Encoding: 164 240 131
Width: 519
GlyphClass: 2
Flags: MW
HStem: -14 23<199 311 199 311.5> 501 23<252.5 328.5> 726 20G<191 191> 740 20G<211 211>
VStem: 56 24<169.5 329.5> 437 24<216.5 353.5>
LayerCount: 2
Fore
SplineSet
344 659 m 1xdc
 443 552 461 425 461 328 c 0
 461 72 371 -14 252 -14 c 0
 128 -14 56 80 56 241 c 0
 56 418 154 524 310 524 c 0
 349 524 384 516 411 502 c 1
 393 555 363 605 319 650 c 1
 227 617 l 1
 227 638 l 1
 303 666 l 1
 272 694 235 721 191 746 c 1xec
 211 760 l 1
 258 734 297 706 328 675 c 1
 406 703 l 1
 406 682 l 1
 344 659 l 1xdc
252 9 m 0
 370 9 437 107 437 326 c 0
 437 381 432 432 418 480 c 1
 381 495 345 501 312 501 c 0
 193 501 80 432 80 244 c 0
 80 95 146 9 252 9 c 0
EndSplineSet
Validated: 1
EndChar

StartChar: dcaron
Encoding: 193 271 132
Width: 556
GlyphClass: 2
Flags: MW
HStem: -14 23<210.5 300 210.5 302> 507 23<223.5 301> 734 20G<414 414> 736 20G 740 20G<438 438>
VStem: 56 24<161.5 337> 414 24<31 488 488 488 512 754 754 754> 538 23
LayerCount: 2
Fore
SplineSet
414 754 m 1xe7
 438 760 l 1xcf
 438 17 l 1
 379 -6 329 -14 275 -14 c 0
 137 -14 56 47 56 253 c 0
 56 421 124 530 277 530 c 0
 329 530 373 525 414 512 c 1
 414 754 l 1xe7
478 567 m 1
 526 639 540 696 538 748 c 1
 543 752 552 755 561 756 c 1xd7
 565 688 545 629 499 567 c 1
 478 567 l 1
80 252 m 0
 80 71 147 9 274 9 c 0
 326 9 364 14 414 31 c 1
 414 488 l 1
 371 501 325 507 277 507 c 0
 170 507 80 449 80 252 c 0
EndSplineSet
Validated: 33
EndChar

StartChar: dcroat
Encoding: 195 273 133
Width: 538
GlyphClass: 2
Flags: MW
HStem: -14 23<210.5 300 210.5 302> 507 23<223.5 301> 618 22<291 414 291 414 438 481> 734 20G<414 414> 740 20G<438 438>
VStem: 56 24<161.5 337> 414 24<31 488 488 488 512 618 17 618 640 754 754 754>
LayerCount: 2
Fore
SplineSet
481 640 m 1xee
 481 618 l 1
 438 618 l 1
 438 17 l 1
 379 -6 329 -14 275 -14 c 0
 137 -14 56 47 56 253 c 0
 56 421 124 530 277 530 c 0
 329 530 373 525 414 512 c 1
 414 618 l 1
 291 618 l 1
 291 640 l 1
 414 640 l 1
 414 754 l 1xf6
 438 760 l 1
 438 640 l 1
 481 640 l 1xee
414 31 m 1
 414 488 l 1
 371 501 325 507 277 507 c 0
 170 507 80 449 80 252 c 0
 80 71 147 9 274 9 c 0
 326 9 364 14 414 31 c 1
EndSplineSet
Validated: 1
EndChar

StartChar: e
Encoding: 69 101 134
Width: 489
GlyphClass: 2
Flags: MW
HStem: -14 23<201.5 277.5> 263 22<79 401 79 425 79 401> 507 23<201 302>
VStem: 56 23<165 263 165 285 165 352> 401 24<263 285>
AnchorPoint: "Anchor-0" 248 0 basechar 0
LayerCount: 2
Fore
SplineSet
255 9 m 0
 304 9 357 19 403 41 c 1
 410 21 l 1
 351 -7 302 -14 253 -14 c 0
 120 -14 56 67 56 255 c 0
 56 449 138 530 255 530 c 0
 362 530 415 469 424 343 c 0
 425 310 425 295 425 263 c 1
 79 263 l 1
 79 67 148 9 255 9 c 0
254 507 m 0
 148 507 85 433 79 285 c 1
 401 285 l 1
 403 457 350 507 254 507 c 0
EndSplineSet
Validated: 33
EndChar

StartChar: eacute
Encoding: 157 233 135
Width: 489
GlyphClass: 2
Flags: MW
HStem: -14 23<201.5 277.5> 263 22<79 401 79 425 79 401> 507 23<201 302> 740 20G<310 341 341 341>
VStem: 56 23<165 263 165 285 165 352> 401 24<263 285>
AnchorPoint: "Anchor-0" 248 0 basechar 0
LayerCount: 2
Fore
SplineSet
341 760 m 1
 244 604 l 1
 222 604 l 1
 310 760 l 1
 341 760 l 1
255 9 m 0
 304 9 357 19 403 41 c 1
 410 21 l 1
 351 -7 302 -14 253 -14 c 0
 120 -14 56 67 56 255 c 0
 56 449 138 530 255 530 c 0
 362 530 415 469 424 343 c 0
 425 310 425 295 425 263 c 1
 79 263 l 1
 79 67 148 9 255 9 c 0
254 507 m 0
 148 507 85 433 79 285 c 1
 401 285 l 1
 403 457 350 507 254 507 c 0
EndSplineSet
Validated: 33
EndChar

StartChar: ecaron
Encoding: 203 283 136
Width: 489
GlyphClass: 2
Flags: MW
HStem: -14 23<201.5 277.5> 263 22<79 401 79 425 79 401> 507 23<201 302> 604 24<247 247 247 257 237 247> 740 20G<139 164 164 164 331 355 355 355>
VStem: 56 23<165 263 165 285 165 352> 401 24<263 285>
AnchorPoint: "Anchor-0" 248 0 basechar 0
LayerCount: 2
Fore
SplineSet
257 604 m 1
 237 604 l 1
 139 760 l 1
 164 760 l 1
 247 628 l 1
 331 760 l 1
 355 760 l 1
 257 604 l 1
255 9 m 0
 304 9 357 19 403 41 c 1
 410 21 l 1
 351 -7 302 -14 253 -14 c 0
 120 -14 56 67 56 255 c 0
 56 449 138 530 255 530 c 0
 362 530 415 469 424 343 c 0
 425 310 425 295 425 263 c 1
 79 263 l 1
 79 67 148 9 255 9 c 0
254 507 m 0
 148 507 85 433 79 285 c 1
 401 285 l 1
 403 457 350 507 254 507 c 0
EndSplineSet
Validated: 33
EndChar

StartChar: ecircumflex
Encoding: 158 234 137
Width: 489
GlyphClass: 2
Flags: MW
HStem: -14 23<201.5 277.5> 263 22<79 401 79 425 79 401> 507 23<201 302> 736 24<247 247>
VStem: 56 23<165 263 165 285 165 352> 401 24<263 285>
AnchorPoint: "Anchor-0" 248 0 basechar 0
LayerCount: 2
Fore
SplineSet
247 736 m 1
 163 604 l 1
 139 604 l 1
 237 760 l 1
 257 760 l 1
 355 604 l 1
 330 604 l 1
 247 736 l 1
255 9 m 0
 304 9 357 19 403 41 c 1
 410 21 l 1
 351 -7 302 -14 253 -14 c 0
 120 -14 56 67 56 255 c 0
 56 449 138 530 255 530 c 0
 362 530 415 469 424 343 c 0
 425 310 425 295 425 263 c 1
 79 263 l 1
 79 67 148 9 255 9 c 0
254 507 m 0
 148 507 85 433 79 285 c 1
 401 285 l 1
 403 457 350 507 254 507 c 0
EndSplineSet
Validated: 33
EndChar

StartChar: edieresis
Encoding: 159 235 138
Width: 489
GlyphClass: 2
Flags: MW
HStem: -14 23<201.5 277.5> 263 22<79 401 79 425 79 401> 507 23<201 302> 611 88<190 214 190 214 190 280 280 304>
VStem: 56 23<165 263 165 285 165 352> 190 24<611 699> 280 24<611 699> 401 24<263 285>
AnchorPoint: "Anchor-0" 248 0 basechar 0
LayerCount: 2
Fore
SplineSet
214 611 m 1
 207 608 197 608 190 611 c 1
 190 699 l 1
 197 702 207 702 214 699 c 1
 214 611 l 1
304 611 m 1
 297 608 287 608 280 611 c 1
 280 699 l 1
 287 702 297 702 304 699 c 1
 304 611 l 1
255 9 m 0
 304 9 357 19 403 41 c 1
 410 21 l 1
 351 -7 302 -14 253 -14 c 0
 120 -14 56 67 56 255 c 0
 56 449 138 530 255 530 c 0
 362 530 415 469 424 343 c 0
 425 310 425 295 425 263 c 1
 79 263 l 1
 79 67 148 9 255 9 c 0
254 507 m 0
 148 507 85 433 79 285 c 1
 401 285 l 1
 403 457 350 507 254 507 c 0
EndSplineSet
Validated: 33
EndChar

StartChar: edotaccent
Encoding: 199 279 139
Width: 489
GlyphClass: 2
Flags: MW
HStem: -14 23<201.5 277.5> 263 22<79 401 79 425 79 401> 507 23<201 302> 611 88<235 259 235 259>
VStem: 56 23<165 263 165 285 165 352> 235 24<611 699> 401 24<263 285>
AnchorPoint: "Anchor-0" 248 0 basechar 0
LayerCount: 2
Fore
SplineSet
259 611 m 1
 252 608 242 608 235 611 c 1
 235 699 l 1
 242 702 252 702 259 699 c 1
 259 611 l 1
255 9 m 0
 304 9 357 19 403 41 c 1
 410 21 l 1
 351 -7 302 -14 253 -14 c 0
 120 -14 56 67 56 255 c 0
 56 449 138 530 255 530 c 0
 362 530 415 469 424 343 c 0
 425 310 425 295 425 263 c 1
 79 263 l 1
 79 67 148 9 255 9 c 0
254 507 m 0
 148 507 85 433 79 285 c 1
 401 285 l 1
 403 457 350 507 254 507 c 0
EndSplineSet
Validated: 33
EndChar

StartChar: egrave
Encoding: 156 232 140
Width: 489
GlyphClass: 2
Flags: MW
HStem: -14 23<201.5 277.5> 263 22<79 401 79 425 79 401> 507 23<201 302> 740 20G<143 174 174 174>
VStem: 56 23<165 263 165 285 165 352> 401 24<263 285>
AnchorPoint: "Anchor-0" 248 0 basechar 0
LayerCount: 2
Fore
SplineSet
262 604 m 1
 240 604 l 1
 143 760 l 1
 174 760 l 1
 262 604 l 1
255 9 m 0
 304 9 357 19 403 41 c 1
 410 21 l 1
 351 -7 302 -14 253 -14 c 0
 120 -14 56 67 56 255 c 0
 56 449 138 530 255 530 c 0
 362 530 415 469 424 343 c 0
 425 310 425 295 425 263 c 1
 79 263 l 1
 79 67 148 9 255 9 c 0
254 507 m 0
 148 507 85 433 79 285 c 1
 401 285 l 1
 403 457 350 507 254 507 c 0
EndSplineSet
Validated: 33
EndChar

StartChar: emacron
Encoding: 197 275 141
Width: 489
GlyphClass: 2
Flags: MW
HStem: -14 23<201.5 277.5> 263 22<79 401 79 425 79 401> 507 23<201 302> 663 22<162 332 162 332>
VStem: 56 23<165 263 165 285 165 352> 162 170<663 685 663 685> 401 24<263 285>
AnchorPoint: "Anchor-0" 248 0 basechar 0
LayerCount: 2
Fore
SplineSet
332 685 m 1
 332 663 l 1
 162 663 l 1
 162 685 l 1
 332 685 l 1
255 9 m 0
 304 9 357 19 403 41 c 1
 410 21 l 1
 351 -7 302 -14 253 -14 c 0
 120 -14 56 67 56 255 c 0
 56 449 138 530 255 530 c 0
 362 530 415 469 424 343 c 0
 425 310 425 295 425 263 c 1
 79 263 l 1
 79 67 148 9 255 9 c 0
254 507 m 0
 148 507 85 433 79 285 c 1
 401 285 l 1
 403 457 350 507 254 507 c 0
EndSplineSet
Validated: 33
EndChar

StartChar: eogonek
Encoding: 201 281 142
Width: 489
GlyphClass: 2
Flags: MW
HStem: -210 22<313 340> -14 23<201.5 265> 263 22<79 401 79 425 79 401> 507 23<201 302>
VStem: 56 23<165 263 165 285 165 352> 254 24<-144 -105> 401 24<263 285>
AnchorPoint: "Anchor-0" 248 0 basechar 0
LayerCount: 2
Fore
SplineSet
410 21 m 1
 322 -21 278 -69 278 -125 c 0
 278 -163 295 -188 331 -188 c 0
 353 -188 375 -181 396 -168 c 1
 394 -191 l 1
 369 -204 349 -210 331 -210 c 0
 286 -210 254 -187 254 -128 c 0
 254 -82 285 -37 327 -7 c 1
 302 -12 277 -14 253 -14 c 0
 120 -14 56 67 56 255 c 0
 56 449 138 530 255 530 c 0
 362 530 415 469 424 343 c 0
 425 310 425 295 425 263 c 1
 79 263 l 1
 79 67 148 9 255 9 c 0
 304 9 357 19 403 41 c 1
 410 21 l 1
254 507 m 0
 148 507 85 433 79 285 c 1
 401 285 l 1
 403 457 350 507 254 507 c 0
EndSplineSet
Validated: 33
EndChar

StartChar: f
Encoding: 70 102 143
Width: 328
GlyphClass: 2
Flags: MW
HStem: 0 21G<136 160 136 136> 493 22<51 136 51 136 160 284> 725 20G<330 330> 741 23<232 278.5>
VStem: 136 24<0 493 0 493 515 537 537 549.5>
LayerCount: 2
Fore
SplineSet
268 741 m 0xd8
 196 741 160 688 160 604 c 2
 160 515 l 1
 289 515 l 1
 284 493 l 1
 160 493 l 1
 160 0 l 1
 136 0 l 1
 136 493 l 1
 51 493 l 1
 51 515 l 1
 136 515 l 1
 136 537 l 2
 136 562 136 583 137 616 c 0
 140 701 186 764 269 764 c 4xd8
 294 764 315 757 330 745 c 1xe8
 319 729 l 1
 305 737 289 741 268 741 c 0xd8
EndSplineSet
Validated: 1
EndChar

StartChar: g
Encoding: 71 103 144
Width: 524
GlyphClass: 2
Flags: MW
HStem: -220 23<191 300 191 303> 88 22<206.5 275 204 283> 200 23<215.5 267> 494 22<373 465 373 373> 507 23<219 276.5 211.5 305.5>
VStem: 45 24<-105 -12.5 -105 -2.5> 81 24<320 404.5 320 409.5> 308 22<147 167> 410 24<339.5 392 339.5 405.5> 429 24<-91.5 -18.5>
AnchorPoint: "Anchor-0" 262 0 basechar 0
LayerCount: 2
Fore
SplineSet
470 516 m 1xf540
 465 494 l 1
 373 494 l 1
 410 463 434 419 434 365 c 0xf580
 434 314 410 268 369 237 c 1
 344 211 330 191 330 160 c 0
 330 134 346 113 370 95 c 0
 402 70 453 27 453 -50 c 0
 453 -144 372 -220 234 -220 c 4
 130 -220 45 -166 45 -58 c 0xf540
 45 53 144 110 264 110 c 0
 286 110 314 106 336 100 c 1
 318 115 308 134 308 158 c 0
 308 176 312 194 326 213 c 1
 305 205 280 200 254 200 c 0
 155 200 81 271 81 361 c 0
 81 458 161 530 262 530 c 0xef40
 291 530 317 525 338 516 c 1
 470 516 l 1xf540
410 365 m 0xef80
 410 446 351 507 260 507 c 0
 178 507 105 448 105 361 c 0
 105 279 174 223 257 223 c 0
 340 223 410 274 410 365 c 0xef80
429 -51 m 0xf540
 429 14 387 55 356 76 c 1
 328 84 297 88 269 88 c 0
 144 88 69 31 69 -56 c 0
 69 -154 145 -197 237 -197 c 0
 363 -197 429 -132 429 -51 c 0xf540
EndSplineSet
Validated: 1
EndChar

StartChar: gbreve
Encoding: 205 287 145
Width: 524
GlyphClass: 2
Flags: MW
HStem: -220 23<191 300 191 303> 88 22<206.5 275 204 283> 200 23<215.5 267> 494 22<373 465 373 373> 507 23<219 276.5 211.5 305.5> 594 22<226.5 285.5 226.5 291> 740 20G<146 166 166 166 346 366 366 366>
VStem: 45 24<-105 -12.5 -105 -2.5> 81 24<320 404.5 320 409.5> 146 20<760 760> 308 22<147 167> 346 20<760 760> 410 24<339.5 392 339.5 405.5> 429 24<-91.5 -18.5>
AnchorPoint: "Anchor-0" 262 0 basechar 0
LayerCount: 2
Fore
SplineSet
256 594 m 0xf754
 185 594 139 653 146 760 c 1
 166 760 l 1
 163 669 197 616 256 616 c 0
 315 616 349 669 346 760 c 1
 366 760 l 1
 373 653 326 594 256 594 c 0xf754
470 516 m 1
 465 494 l 1
 373 494 l 1
 410 463 434 419 434 365 c 0xf758
 434 314 410 268 369 237 c 1
 344 211 330 191 330 160 c 0
 330 134 346 113 370 95 c 0
 402 70 453 27 453 -50 c 0
 453 -144 372 -220 234 -220 c 0
 130 -220 45 -166 45 -58 c 0xf774
 45 53 144 110 264 110 c 0
 286 110 314 106 336 100 c 1
 318 115 308 134 308 158 c 0
 308 176 312 194 326 213 c 1
 305 205 280 200 254 200 c 0
 155 200 81 271 81 361 c 0
 81 458 161 530 262 530 c 0xeff4
 291 530 317 525 338 516 c 1
 470 516 l 1
410 365 m 0xefd8
 410 446 351 507 260 507 c 0
 178 507 105 448 105 361 c 0
 105 279 174 223 257 223 c 0
 340 223 410 274 410 365 c 0xefd8
429 -51 m 0xf754
 429 14 387 55 356 76 c 1
 328 84 297 88 269 88 c 0
 144 88 69 31 69 -56 c 0
 69 -154 145 -197 237 -197 c 0
 363 -197 429 -132 429 -51 c 0xf754
EndSplineSet
Validated: 33
EndChar

StartChar: gcommaaccent
Encoding: 209 291 146
Width: 524
GlyphClass: 2
Flags: MW
HStem: -220 23<191 300 191 303> 88 22<206.5 275 204 283> 200 23<215.5 267> 494 22<373 465 373 373> 507 23<219 276.5 211.5 305.5>
VStem: 45 24<-105 -12.5 -105 -2.5> 81 24<320 404.5 320 409.5> 244 23 308 22<147 167> 410 24<339.5 392 339.5 405.5> 429 24<-91.5 -18.5>
AnchorPoint: "Anchor-0" 262 0 basechar 0
LayerCount: 2
Fore
SplineSet
267 609 m 1xf5a0
 262 605 253 602 244 601 c 1
 240 669 257 728 293 790 c 1
 314 790 l 1
 276 718 265 661 267 609 c 1xf5a0
470 516 m 1
 465 494 l 1
 373 494 l 1
 410 463 434 419 434 365 c 0xf5c0
 434 314 410 268 369 237 c 1
 344 211 330 191 330 160 c 0
 330 134 346 113 370 95 c 0
 402 70 453 27 453 -50 c 0
 453 -144 372 -220 234 -220 c 0
 130 -220 45 -166 45 -58 c 0xf5a0
 45 53 144 110 264 110 c 0
 286 110 314 106 336 100 c 1
 318 115 308 134 308 158 c 0
 308 176 312 194 326 213 c 1
 305 205 280 200 254 200 c 0
 155 200 81 271 81 361 c 0
 81 458 161 530 262 530 c 0xefa0
 291 530 317 525 338 516 c 1
 470 516 l 1
410 365 m 0xefc0
 410 446 351 507 260 507 c 0
 178 507 105 448 105 361 c 0
 105 279 174 223 257 223 c 0
 340 223 410 274 410 365 c 0xefc0
429 -51 m 0xf5a0
 429 14 387 55 356 76 c 1
 328 84 297 88 269 88 c 0
 144 88 69 31 69 -56 c 0
 69 -154 145 -197 237 -197 c 0
 363 -197 429 -132 429 -51 c 0xf5a0
EndSplineSet
Validated: 33
EndChar

StartChar: gdotaccent
Encoding: 207 289 147
Width: 524
GlyphClass: 2
Flags: MW
HStem: -220 23<191 300 191 303> 88 22<206.5 275 204 283> 200 23<215.5 267> 494 22<373 465 373 373> 507 23<219 276.5 211.5 305.5> 611 88<250 274 250 274>
VStem: 45 24<-105 -12.5 -105 -2.5> 81 24<320 404.5 320 409.5> 250 24<611 699> 308 22<147 167> 410 24<339.5 392 339.5 405.5> 429 24<-91.5 -18.5>
AnchorPoint: "Anchor-0" 262 0 basechar 0
LayerCount: 2
Fore
SplineSet
274 611 m 1xf6d0
 267 608 257 608 250 611 c 1
 250 699 l 1
 257 702 267 702 274 699 c 1
 274 611 l 1xf6d0
470 516 m 1
 465 494 l 1
 373 494 l 1
 410 463 434 419 434 365 c 0xf6e0
 434 314 410 268 369 237 c 1
 344 211 330 191 330 160 c 0
 330 134 346 113 370 95 c 0
 402 70 453 27 453 -50 c 0
 453 -144 372 -220 234 -220 c 0
 130 -220 45 -166 45 -58 c 0xf6d0
 45 53 144 110 264 110 c 0
 286 110 314 106 336 100 c 1
 318 115 308 134 308 158 c 0
 308 176 312 194 326 213 c 1
 305 205 280 200 254 200 c 0
 155 200 81 271 81 361 c 0
 81 458 161 530 262 530 c 0xefd0
 291 530 317 525 338 516 c 1
 470 516 l 1
410 365 m 0xefe0
 410 446 351 507 260 507 c 0
 178 507 105 448 105 361 c 0
 105 279 174 223 257 223 c 0
 340 223 410 274 410 365 c 0xefe0
429 -51 m 0xf6d0
 429 14 387 55 356 76 c 1
 328 84 297 88 269 88 c 0
 144 88 69 31 69 -56 c 0
 69 -154 145 -197 237 -197 c 0
 363 -197 429 -132 429 -51 c 0xf6d0
EndSplineSet
Validated: 1
EndChar

StartChar: h
Encoding: 72 104 148
Width: 542
GlyphClass: 2
Flags: MW
HStem: 0 21G<100 124 100 100 431 455 431 431> 507 23<258 332.5> 734 20G<100 100> 740 20G<124 124>
VStem: 100 24<0 465 490 754 754 754> 431 24<0 321 0 365>
LayerCount: 2
Fore
SplineSet
453 397 m 0xdc
 455 374 455 355 455 321 c 2
 455 0 l 1
 431 0 l 1
 431 365 l 2
 431 466 386 507 279 507 c 0
 231 507 184 494 124 465 c 1
 124 0 l 1
 100 0 l 1
 100 754 l 1xec
 124 760 l 1
 124 490 l 1
 174 514 230 530 286 530 c 0
 385 530 444 490 453 397 c 0xdc
EndSplineSet
Validated: 1
EndChar

StartChar: hbar
Encoding: 211 295 149
Width: 542
GlyphClass: 2
Flags: MW
HStem: 0 21G<100 124 100 100 431 455 431 431> 507 23<258 332.5> 618 22<57 100 57 100 124 247> 734 20G<100 100> 740 20G<124 124>
VStem: 100 24<0 465 490 618 640 754 754 754> 431 24<0 321 0 365>
LayerCount: 2
Fore
SplineSet
453 397 m 0xee
 455 374 455 355 455 321 c 2
 455 0 l 1
 431 0 l 1
 431 365 l 2
 431 466 386 507 279 507 c 0
 231 507 184 494 124 465 c 1
 124 0 l 1
 100 0 l 1
 100 618 l 1
 57 618 l 1
 57 640 l 1
 100 640 l 1
 100 754 l 1xf6
 124 760 l 1
 124 640 l 1
 247 640 l 1
 247 618 l 1
 124 618 l 1
 124 490 l 1
 174 514 230 530 286 530 c 0
 385 530 444 490 453 397 c 0xee
EndSplineSet
Validated: 1
EndChar

StartChar: i
Encoding: 73 105 150
Width: 224
GlyphClass: 2
Flags: MW
HStem: 1.45912 150
LayerCount: 2
Fore
SplineSet
100 611 m 1
 100 699 l 1
 107 702 117 702 124 699 c 1
 124 611 l 1
 117 608 107 608 100 611 c 1
100 0 m 1
 100 513 l 1
 124 519 l 1
 124 0 l 1
 100 0 l 1
EndSplineSet
Validated: 1
EndChar

StartChar: dotlessi
Encoding: 217 305 151
Width: 224
GlyphClass: 2
Flags: MW
HStem: 0 21G<100 100 100 124> 499 20G<124 124>
VStem: 100 24<0 513 513 513>
LayerCount: 2
Fore
SplineSet
100 0 m 5
 100 513 l 5
 124 519 l 5
 124 0 l 5
 100 0 l 5
EndSplineSet
Validated: 1
EndChar

StartChar: iacute
Encoding: 161 237 152
Width: 224
GlyphClass: 2
Flags: MW
HStem: 0 21G<100 100 100 124> 499 20G<124 124> 740 20G<175 206 206 206>
VStem: 100 24<0 513 513 513>
LayerCount: 2
Fore
SplineSet
87 604 m 1
 175 760 l 1
 206 760 l 1
 109 604 l 1
 87 604 l 1
100 0 m 1
 100 513 l 1
 124 519 l 1
 124 0 l 1
 100 0 l 1
EndSplineSet
Validated: 1
EndChar

StartChar: icircumflex
Encoding: 162 238 153
Width: 224
GlyphClass: 2
Flags: MW
HStem: 0 21G<100 100 100 124> 499 20G<124 124> 736 24<112 112>
VStem: 100 24<0 513 513 513>
LayerCount: 2
Fore
SplineSet
122 760 m 1
 220 604 l 1
 195 604 l 1
 112 736 l 1
 28 604 l 1
 4 604 l 1
 102 760 l 1
 122 760 l 1
100 0 m 1
 100 513 l 1
 124 519 l 1
 124 0 l 1
 100 0 l 1
EndSplineSet
Validated: 1
EndChar

StartChar: idieresis
Encoding: 163 239 154
Width: 224
GlyphClass: 2
Flags: MW
HStem: 0 21G<100 100 100 124> 499 20G<124 124> 611 88<55 79 55 79 145 169 55 145>
VStem: 55 24<611 699 611 699> 100 24<0 513 513 513> 145 24<611 699 611 699>
LayerCount: 2
Fore
SplineSet
55 611 m 1
 55 699 l 1
 62 702 72 702 79 699 c 1
 79 611 l 1
 72 608 62 608 55 611 c 1
145 611 m 1
 145 699 l 1
 152 702 162 702 169 699 c 1
 169 611 l 1
 162 608 152 608 145 611 c 1
100 0 m 1xe8
 100 513 l 1
 124 519 l 1
 124 0 l 1
 100 0 l 1xe8
EndSplineSet
Validated: 1
EndChar

StartChar: igrave
Encoding: 160 236 155
Width: 224
GlyphClass: 2
Flags: MW
HStem: 0 21G<100 100 100 124> 499 20G<124 124> 740 20G<8 39 39 39>
VStem: 100 24<0 513 513 513>
LayerCount: 2
Fore
SplineSet
105 604 m 1
 8 760 l 1
 39 760 l 1
 127 604 l 1
 105 604 l 1
100 0 m 1
 100 513 l 1
 124 519 l 1
 124 0 l 1
 100 0 l 1
EndSplineSet
Validated: 1
EndChar

StartChar: uni0133
Encoding: 442 307 156
Width: 471
GlyphClass: 2
Flags: MW
HStem: 1.45912 150
LayerCount: 2
Fore
SplineSet
100 611 m 1
 100 699 l 1
 107 702 117 702 124 699 c 1
 124 611 l 1
 117 608 107 608 100 611 c 1
347 611 m 1
 347 699 l 1
 354 702 364 702 371 699 c 1
 371 611 l 1
 364 608 354 608 347 611 c 1
260 -220 m 1
 251 -197 l 1
 326 -179 347 -127 347 -20 c 2
 347 522 l 1
 371 528 l 1
 371 60 l 2
 371 3 371 -41 369 -73 c 0
 365 -143 344 -190 260 -220 c 1
100 0 m 1
 100 513 l 1
 124 519 l 1
 124 0 l 1
 100 0 l 1
EndSplineSet
Validated: 1
EndChar

StartChar: imacron
Encoding: 213 299 157
Width: 224
GlyphClass: 2
Flags: MW
HStem: 0 21G<100 100 100 124> 499 20G<124 124> 663 22<27 197 27 197>
VStem: 27 170<663 685 663 685> 100 24<0 513 513 513>
LayerCount: 2
Fore
SplineSet
27 663 m 1xf0
 27 685 l 1
 197 685 l 1
 197 663 l 1
 27 663 l 1xf0
100 0 m 1xe8
 100 513 l 1
 124 519 l 1
 124 0 l 1
 100 0 l 1xe8
EndSplineSet
Validated: 1
EndChar

StartChar: iogonek
Encoding: 215 303 158
Width: 224
GlyphClass: 2
Flags: MW
HStem: -220 22<51 78> 0 21G<124 124> 499 20G<124 124> 611 88<100 124 100 124>
VStem: -8 24<-154 -107.5> 100 24<7 513 513 513 611 699>
LayerCount: 2
Fore
SplineSet
124 611 m 1
 117 608 107 608 100 611 c 1
 100 699 l 1
 107 702 117 702 124 699 c 1
 124 611 l 1
69 -198 m 0
 91 -198 113 -191 134 -178 c 1
 132 -201 l 1
 107 -214 87 -220 69 -220 c 0
 24 -220 -8 -197 -8 -138 c 0
 -8 -77 44 -13 100 7 c 1
 100 513 l 1
 124 519 l 1
 124 0 l 1
 60 -31 16 -76 16 -135 c 0
 16 -173 33 -198 69 -198 c 0
EndSplineSet
Validated: 1
EndChar

StartChar: j
Encoding: 74 106 159
Width: 247
GlyphClass: 2
Flags: MW
HStem: 1.45912 150
LayerCount: 2
Fore
SplineSet
123 611 m 1
 123 699 l 1
 130 702 140 702 147 699 c 1
 147 611 l 1
 140 608 130 608 123 611 c 1
36 -220 m 1
 27 -197 l 1
 102 -179 123 -127 123 -20 c 2
 123 522 l 1
 147 528 l 1
 147 60 l 2
 147 3 147 -41 145 -73 c 0
 141 -143 120 -190 36 -220 c 1
EndSplineSet
Validated: 1
EndChar

StartChar: uni0237
Encoding: 281 567 160
Width: 247
GlyphClass: 2
Flags: MW
HStem: -220 21G<36 36> 502 20G<123 123> 508 20G<147 147>
VStem: 123 24<31.5 60 60 522 522 522>
LayerCount: 2
Fore
SplineSet
36 -220 m 1xb0
 27 -197 l 1
 102 -179 123 -127 123 -20 c 2
 123 522 l 1xd0
 147 528 l 1
 147 60 l 2
 147 3 147 -41 145 -73 c 0
 141 -143 120 -190 36 -220 c 1xb0
EndSplineSet
Validated: 1
EndChar

StartChar: k
Encoding: 75 107 161
Width: 507
GlyphClass: 2
Flags: MW
HStem: 0 21G<100 100 100 124 426 426 426 463> 496 20G<448 448> 500 20G<415 415> 734 20G<100 100> 740 20G<124 124>
VStem: 100 24<0 754 754 754>
AnchorPoint: "Anchor-0" 249 0 basechar 0
LayerCount: 2
Fore
SplineSet
100 0 m 5xac
 100 754 l 5xd4
 124 760 l 5
 124 0 l 5
 100 0 l 5xac
183 274 m 5
 463 0 l 5
 426 0 l 5
 150 273 l 5
 415 520 l 5xac
 448 516 l 5
 183 274 l 5
EndSplineSet
Validated: 1
EndChar

StartChar: kcommaaccent
Encoding: 219 311 162
Width: 507
GlyphClass: 2
Flags: MW
HStem: 0 21G<100 100 100 124 426 426 426 463> 496 20G<448 448> 500 20G<415 415> 734 20G<100 100> 740 20G<124 124>
VStem: 100 24<0 754 754 754> 238 23
AnchorPoint: "Anchor-0" 249 0 basechar 0
LayerCount: 2
Fore
SplineSet
100 0 m 1xae
 100 754 l 1xd6
 124 760 l 1
 124 0 l 1
 100 0 l 1xae
183 274 m 1
 463 0 l 1
 426 0 l 1
 150 273 l 1
 415 520 l 1xae
 448 516 l 1
 183 274 l 1
238 -58 m 1
 243 -54 252 -51 261 -50 c 1
 265 -118 245 -177 199 -239 c 1
 178 -239 l 1
 226 -167 240 -110 238 -58 c 1
EndSplineSet
Validated: 33
EndChar

StartChar: l
Encoding: 76 108 163
Width: 224
GlyphClass: 2
Flags: MW
HStem: 0 21G<100 100 100 124> 734 20G<100 100> 740 20G<124 124>
VStem: 100 24<0 754 754 754>
AnchorPoint: "Anchor-0" 112 0 basechar 0
LayerCount: 2
Fore
SplineSet
100 0 m 5xb0
 100 754 l 5xd0
 124 760 l 5
 124 0 l 5
 100 0 l 5xb0
EndSplineSet
Validated: 1
EndChar

StartChar: lacute
Encoding: 221 314 164
Width: 224
GlyphClass: 2
Flags: MW
HStem: 0 21G<100 100 100 124> 734 20G<100 100> 740 20G<124 124>
VStem: 100 24<0 754 754 754>
AnchorPoint: "Anchor-0" 112 0 basechar 0
LayerCount: 2
Fore
SplineSet
87 824 m 1xb0
 175 980 l 1
 206 980 l 1
 109 824 l 1
 87 824 l 1xb0
100 0 m 1
 100 754 l 1xd0
 124 760 l 1
 124 0 l 1
 100 0 l 1
EndSplineSet
Validated: 1
EndChar

StartChar: lcaron
Encoding: 225 318 165
Width: 215
GlyphClass: 2
Flags: MW
HStem: 0 21G<100 100 100 124> 734 20G<100 100> 736 20G 740 20G<124 124>
VStem: 100 24<0 754 754 754> 224 23
AnchorPoint: "Anchor-0" 112 0 basechar 0
LayerCount: 2
Fore
SplineSet
100 0 m 1x9c
 100 754 l 1xcc
 124 760 l 1
 124 0 l 1
 100 0 l 1x9c
164 567 m 1
 212 639 226 696 224 748 c 1
 229 752 238 755 247 756 c 1xac
 251 688 231 629 185 567 c 1
 164 567 l 1
EndSplineSet
Validated: 33
EndChar

StartChar: lcommaaccent
Encoding: 223 316 166
Width: 224
GlyphClass: 2
Flags: MW
HStem: 0 21G<100 100 100 124> 734 20G<100 100> 740 20G<124 124>
VStem: 100 24<0 754 754 754>
AnchorPoint: "Anchor-0" 112 0 basechar 0
LayerCount: 2
Fore
SplineSet
100 0 m 1xb0
 100 754 l 1xd0
 124 760 l 1
 124 0 l 1
 100 0 l 1xb0
41 -239 m 1
 89 -167 103 -110 101 -58 c 1
 106 -54 115 -51 124 -50 c 1
 128 -118 108 -177 62 -239 c 1
 41 -239 l 1
EndSplineSet
Validated: 33
EndChar

StartChar: ldot
Encoding: 227 320 167
Width: 348
GlyphClass: 2
Flags: MW
HStem: 0 21G<100 100 100 124> 299 115<224 248 224 248> 734 20G<100 100> 740 20G<124 124>
VStem: 100 24<0 754 754 754> 224 24<299 414 299 414>
AnchorPoint: "Anchor-0" 112 0 basechar 0
LayerCount: 2
Fore
SplineSet
100 0 m 1xdc
 100 754 l 1xec
 124 760 l 1
 124 0 l 1
 100 0 l 1xdc
224 299 m 1
 224 414 l 1
 230 416 242 416 248 414 c 1
 248 299 l 1
 242 297 230 297 224 299 c 1
EndSplineSet
Validated: 1
Ligature2: "Ligature Substitution lookup 2 subtable" l periodcentered
EndChar

StartChar: lslash
Encoding: 229 322 168
Width: 224
GlyphClass: 2
Flags: MW
HStem: 0 21G<100 124 100 100> 734 20G<100 100> 740 20G<124 124>
VStem: 100 24<0 349 349 349 395 754 754 754>
AnchorPoint: "Anchor-0" 112 0 basechar 0
LayerCount: 2
Fore
SplineSet
184 439 m 1xb0
 184 411 l 1
 124 367 l 1
 124 0 l 1
 100 0 l 1
 100 349 l 1
 40 305 l 1
 40 333 l 1
 100 377 l 1
 100 754 l 1xd0
 124 760 l 1
 124 395 l 1
 184 439 l 1xb0
EndSplineSet
Validated: 1
EndChar

StartChar: m
Encoding: 77 109 169
Width: 813
GlyphClass: 2
Flags: MW
HStem: 0 21G<100 124 100 100 401 425 401 401 702 726 702 702> 499 20G<124 124> 507 23<248 303.5 248 312.5 551 618.5>
VStem: 100 24<0 481 0 501 501 513 513 513> 401 24<0 321 0 365> 702 24<0 321 0 365>
LayerCount: 2
Fore
SplineSet
724 397 m 4xbc
 726 374 726 355 726 321 c 6
 726 0 l 5
 702 0 l 5
 702 365 l 6
 702 466 657 507 580 507 c 4
 519 507 478 499 406 462 c 5
 415 444 421 423 423 397 c 4
 425 374 425 355 425 321 c 6
 425 0 l 5
 401 0 l 5
 401 365 l 6
 401 466 356 507 269 507 c 4
 221 507 181 499 124 481 c 5xbc
 124 0 l 5
 100 0 l 5
 100 513 l 5
 124 519 l 5xdc
 124 501 l 5
 173 520 220 530 276 530 c 4
 331 530 371 515 395 481 c 5
 466 519 515 530 587 530 c 4
 666 530 715 490 724 397 c 4xbc
EndSplineSet
Validated: 1
EndChar

StartChar: n
Encoding: 78 110 170
Width: 542
GlyphClass: 2
Flags: MW
HStem: 0 21G<100 124 100 100 431 455 431 431> 499 20G<124 124> 507 23<258 332.5>
VStem: 100 24<0 465 490 513 513 513> 431 24<0 321 0 365>
AnchorPoint: "Anchor-0" 277 0 basechar 0
LayerCount: 2
Fore
SplineSet
453 397 m 0xb8
 455 374 455 355 455 321 c 2
 455 0 l 1
 431 0 l 1
 431 365 l 2
 431 466 386 507 279 507 c 0
 231 507 184 494 124 465 c 1xb8
 124 0 l 1
 100 0 l 1
 100 513 l 1
 124 519 l 1xd8
 124 490 l 1
 174 514 230 530 286 530 c 0
 385 530 444 490 453 397 c 0xb8
EndSplineSet
Validated: 1
EndChar

StartChar: nacute
Encoding: 231 324 171
Width: 542
GlyphClass: 2
Flags: MW
HStem: 0 21G<100 124 100 100 431 455 431 431> 499 20G<124 124> 507 23<258 332.5> 740 20G<327 358 358 358>
VStem: 100 24<0 465 490 513 513 513> 431 24<0 321 0 365>
AnchorPoint: "Anchor-0" 277 0 basechar 0
LayerCount: 2
Fore
SplineSet
358 760 m 1xbc
 261 604 l 1
 239 604 l 1
 327 760 l 1
 358 760 l 1xbc
453 397 m 0
 455 374 455 355 455 321 c 2
 455 0 l 1
 431 0 l 1
 431 365 l 2
 431 466 386 507 279 507 c 0
 231 507 184 494 124 465 c 1xbc
 124 0 l 1
 100 0 l 1
 100 513 l 1
 124 519 l 1xdc
 124 490 l 1
 174 514 230 530 286 530 c 0
 385 530 444 490 453 397 c 0
EndSplineSet
Validated: 1
EndChar

StartChar: ncaron
Encoding: 235 328 172
Width: 542
GlyphClass: 2
Flags: MW
HStem: 0 21G<100 124 100 100 431 455 431 431> 499 20G<124 124> 507 23<258 332.5> 604 24<264 264 264 274 254 264> 740 20G<156 181 181 181 348 372 372 372>
VStem: 100 24<0 465 490 513 513 513> 431 24<0 321 0 365>
AnchorPoint: "Anchor-0" 277 0 basechar 0
LayerCount: 2
Fore
SplineSet
274 604 m 1xbe
 254 604 l 1
 156 760 l 1
 181 760 l 1
 264 628 l 1
 348 760 l 1
 372 760 l 1
 274 604 l 1xbe
453 397 m 0
 455 374 455 355 455 321 c 2
 455 0 l 1
 431 0 l 1
 431 365 l 2
 431 466 386 507 279 507 c 0
 231 507 184 494 124 465 c 1xbe
 124 0 l 1
 100 0 l 1
 100 513 l 1
 124 519 l 1xde
 124 490 l 1
 174 514 230 530 286 530 c 0
 385 530 444 490 453 397 c 0
EndSplineSet
Validated: 1
EndChar

StartChar: ncommaaccent
Encoding: 233 326 173
Width: 542
GlyphClass: 2
Flags: MW
HStem: 0 21G<100 124 100 100 431 455 431 431> 499 20G<124 124> 507 23<258 332.5>
VStem: 100 24<0 465 490 513 513 513> 266 23 431 24<0 321 0 365>
AnchorPoint: "Anchor-0" 277 0 basechar 0
LayerCount: 2
Fore
SplineSet
453 397 m 0xbc
 455 374 455 355 455 321 c 2
 455 0 l 1
 431 0 l 1
 431 365 l 2
 431 466 386 507 279 507 c 0
 231 507 184 494 124 465 c 1xbc
 124 0 l 1
 100 0 l 1
 100 513 l 1
 124 519 l 1xdc
 124 490 l 1
 174 514 230 530 286 530 c 0
 385 530 444 490 453 397 c 0xbc
266 -58 m 1
 271 -54 280 -51 289 -50 c 1
 293 -118 273 -177 227 -239 c 1
 206 -239 l 1
 254 -167 268 -110 266 -58 c 1
EndSplineSet
Validated: 33
EndChar

StartChar: eng
Encoding: 237 331 174
Width: 542
GlyphClass: 2
Flags: MW
HStem: -223 22<312 359.5> 0 21G<100 124 100 100 455 455> 499 20G<124 124> 507 23<258 332.5>
VStem: 100 24<0 465 490 513 513 513> 431 24<-17.5 0 0 321>
AnchorPoint: "Anchor-0" 277 0 basechar 0
LayerCount: 2
Fore
SplineSet
453 397 m 0xdc
 455 374 455 355 455 321 c 2
 455 0 l 2
 455 -35 455 -64 452 -98 c 0
 446 -167 407 -223 312 -223 c 1
 312 -201 l 1
 408 -195 431 -154 431 -30 c 2
 431 365 l 2
 431 466 386 507 279 507 c 0
 231 507 184 494 124 465 c 1xdc
 124 0 l 1
 100 0 l 1
 100 513 l 1
 124 519 l 1xec
 124 490 l 1
 174 514 230 530 286 530 c 0
 385 530 444 490 453 397 c 0xdc
EndSplineSet
Validated: 1
EndChar

StartChar: ntilde
Encoding: 165 241 175
Width: 542
GlyphClass: 2
Flags: MW
HStem: 0 21G<100 124 100 100 431 455 431 431> 499 20G<124 124> 507 23<258 332.5> 643 22<319 333.5 319 340> 699 22<194.5 209>
VStem: 100 24<0 465 490 513 513 513> 151 20<638 640> 357 20<724 726> 431 24<0 321 0 365>
AnchorPoint: "Anchor-0" 277 0 basechar 0
LayerCount: 2
Fore
SplineSet
203 699 m 0xbf80
 186 699 178 685 171 638 c 1
 151 640 l 1
 156 698 173 721 203 721 c 0
 222 721 240 711 266 694 c 0
 301 671 313 665 325 665 c 0
 342 665 350 679 357 726 c 1
 377 724 l 1
 372 666 355 643 325 643 c 0
 306 643 288 653 262 670 c 0
 227 693 215 699 203 699 c 0xbf80
453 397 m 0
 455 374 455 355 455 321 c 2
 455 0 l 1
 431 0 l 1
 431 365 l 2
 431 466 386 507 279 507 c 0
 231 507 184 494 124 465 c 1xbd80
 124 0 l 1
 100 0 l 1
 100 513 l 1
 124 519 l 1xdd80
 124 490 l 1xbd80
 174 514 230 530 286 530 c 0
 385 530 444 490 453 397 c 0
EndSplineSet
Validated: 1
EndChar

StartChar: o
Encoding: 79 111 176
Width: 554
GlyphClass: 2
Flags: MW
HStem: -13 23<220 334 220 345.5> 506 23<220 334>
VStem: 56 25<172.5 343.5 172.5 346> 473 25<172.5 343.5>
LayerCount: 2
Fore
SplineSet
277 529 m 0
 414 529 498 434 498 258 c 0
 498 82 414 -13 277 -13 c 0
 140 -13 56 82 56 258 c 0
 56 434 140 529 277 529 c 0
277 10 m 4
 391 10 473 87 473 258 c 0
 473 429 391 506 277 506 c 0
 163 506 81 429 81 258 c 0
 81 87 163 10 277 10 c 4
EndSplineSet
Validated: 1
EndChar

StartChar: oacute
Encoding: 167 243 177
Width: 554
GlyphClass: 2
Flags: MW
HStem: -13 23<220 334 220 345.5> 506 23<220 334> 740 20G<340 371 371 371>
VStem: 56 25<172.5 343.5 172.5 346> 473 25<172.5 343.5>
LayerCount: 2
Fore
SplineSet
371 760 m 1
 274 604 l 1
 252 604 l 1
 340 760 l 1
 371 760 l 1
277 529 m 0
 414 529 498 434 498 258 c 0
 498 82 414 -13 277 -13 c 0
 140 -13 56 82 56 258 c 0
 56 434 140 529 277 529 c 0
277 10 m 0
 391 10 473 87 473 258 c 0
 473 429 391 506 277 506 c 0
 163 506 81 429 81 258 c 0
 81 87 163 10 277 10 c 0
EndSplineSet
Validated: 1
EndChar

StartChar: ocircumflex
Encoding: 168 244 178
Width: 554
GlyphClass: 2
Flags: MW
HStem: -13 23<220 334 220 345.5> 506 23<220 334> 736 24<277 277>
VStem: 56 25<172.5 343.5 172.5 346> 473 25<172.5 343.5>
LayerCount: 2
Fore
SplineSet
277 736 m 1
 193 604 l 1
 169 604 l 1
 267 760 l 1
 287 760 l 1
 385 604 l 1
 360 604 l 1
 277 736 l 1
277 529 m 0
 414 529 498 434 498 258 c 0
 498 82 414 -13 277 -13 c 0
 140 -13 56 82 56 258 c 0
 56 434 140 529 277 529 c 0
277 10 m 0
 391 10 473 87 473 258 c 0
 473 429 391 506 277 506 c 0
 163 506 81 429 81 258 c 0
 81 87 163 10 277 10 c 0
EndSplineSet
Validated: 1
EndChar

StartChar: odieresis
Encoding: 170 246 179
Width: 554
GlyphClass: 2
Flags: MW
HStem: -13 23<220 334 220 345.5> 506 23<220 334> 611 88<220 244 220 244 220 310 310 334>
VStem: 56 25<172.5 343.5 172.5 346> 220 24<611 699> 310 24<611 699> 473 25<172.5 343.5>
LayerCount: 2
Fore
SplineSet
244 611 m 1
 237 608 227 608 220 611 c 1
 220 699 l 1
 227 702 237 702 244 699 c 1
 244 611 l 1
334 611 m 1
 327 608 317 608 310 611 c 1
 310 699 l 1
 317 702 327 702 334 699 c 1
 334 611 l 1
277 529 m 0
 414 529 498 434 498 258 c 0
 498 82 414 -13 277 -13 c 0
 140 -13 56 82 56 258 c 0
 56 434 140 529 277 529 c 0
277 10 m 0
 391 10 473 87 473 258 c 0
 473 429 391 506 277 506 c 0
 163 506 81 429 81 258 c 0
 81 87 163 10 277 10 c 0
EndSplineSet
Validated: 1
EndChar

StartChar: ograve
Encoding: 166 242 180
Width: 554
GlyphClass: 2
Flags: MW
HStem: -13 23<220 334 220 345.5> 506 23<220 334> 740 20G<173 204 204 204>
VStem: 56 25<172.5 343.5 172.5 346> 473 25<172.5 343.5>
LayerCount: 2
Fore
SplineSet
292 604 m 1
 270 604 l 1
 173 760 l 1
 204 760 l 1
 292 604 l 1
277 529 m 0
 414 529 498 434 498 258 c 0
 498 82 414 -13 277 -13 c 0
 140 -13 56 82 56 258 c 0
 56 434 140 529 277 529 c 0
277 10 m 0
 391 10 473 87 473 258 c 0
 473 429 391 506 277 506 c 0
 163 506 81 429 81 258 c 0
 81 87 163 10 277 10 c 0
EndSplineSet
Validated: 1
EndChar

StartChar: ohungarumlaut
Encoding: 241 337 181
Width: 554
GlyphClass: 2
Flags: MW
HStem: -13 23<220 334 220 345.5> 506 23<220 334> 604 156<192 311 192 311 291 291 291 311 280 313>
VStem: 56 25<172.5 343.5 172.5 346> 473 25<172.5 343.5>
LayerCount: 2
Fore
SplineSet
311 760 m 1
 214 604 l 1
 192 604 l 1
 280 760 l 1
 311 760 l 1
313 604 m 1
 291 604 l 1
 379 760 l 1
 410 760 l 1
 313 604 l 1
277 529 m 0
 414 529 498 434 498 258 c 0
 498 82 414 -13 277 -13 c 0
 140 -13 56 82 56 258 c 0
 56 434 140 529 277 529 c 0
277 10 m 0
 391 10 473 87 473 258 c 0
 473 429 391 506 277 506 c 0
 163 506 81 429 81 258 c 0
 81 87 163 10 277 10 c 0
EndSplineSet
Validated: 1
EndChar

StartChar: omacron
Encoding: 239 333 182
Width: 554
GlyphClass: 2
Flags: MW
HStem: -13 23<220 334 220 345.5> 506 23<220 334> 663 22<192 362 192 362>
VStem: 56 25<172.5 343.5 172.5 346> 192 170<663 685 663 685> 473 25<172.5 343.5>
LayerCount: 2
Fore
SplineSet
362 685 m 1
 362 663 l 1
 192 663 l 1
 192 685 l 1
 362 685 l 1
277 529 m 0
 414 529 498 434 498 258 c 0
 498 82 414 -13 277 -13 c 0
 140 -13 56 82 56 258 c 0
 56 434 140 529 277 529 c 0
277 10 m 0
 391 10 473 87 473 258 c 0
 473 429 391 506 277 506 c 0
 163 506 81 429 81 258 c 0
 81 87 163 10 277 10 c 0
EndSplineSet
Validated: 1
EndChar

StartChar: oslash
Encoding: 172 248 183
Width: 566
GlyphClass: 2
Flags: MW
HStem: -13 23<251.5 334 251.5 345.5> -10 20 506 20 506 23<220 299.5>
VStem: 56 25<217.5 343.5 217.5 346> 473 25<172.5 303.5>
LayerCount: 2
Fore
SplineSet
425 474 m 1xac
 472 429 498 356 498 258 c 0
 498 82 414 -13 277 -13 c 0
 219 -13 170 4 133 37 c 1
 95 -20 l 1x9c
 74 -10 l 1
 117 54 l 1
 78 100 56 169 56 258 c 0
 56 434 140 529 277 529 c 0
 329 529 373 515 408 489 c 1
 439 536 l 1x5c
 460 526 l 1
 425 474 l 1xac
81 258 m 0x9c
 81 177 100 116 131 76 c 1
 394 469 l 1
 362 494 322 506 277 506 c 0
 163 506 81 429 81 258 c 0x9c
277 10 m 0
 391 10 473 87 473 258 c 0
 473 349 450 413 411 453 c 1
 147 58 l 1
 181 26 226 10 277 10 c 0
EndSplineSet
Validated: 1
EndChar

StartChar: otilde
Encoding: 169 245 184
Width: 554
GlyphClass: 2
Flags: MW
HStem: -13 23<220 334 220 345.5> 506 23<220 334> 643 22<332 346.5 332 353> 699 22<207.5 222>
VStem: 56 25<172.5 343.5 172.5 346> 164 20<638 640> 370 20<724 726> 473 25<172.5 343.5>
LayerCount: 2
Fore
SplineSet
216 699 m 0
 199 699 191 685 184 638 c 1
 164 640 l 1
 169 698 186 721 216 721 c 0
 235 721 253 711 279 694 c 0
 314 671 326 665 338 665 c 0
 355 665 363 679 370 726 c 1
 390 724 l 1
 385 666 368 643 338 643 c 0
 319 643 301 653 275 670 c 0
 240 693 228 699 216 699 c 0
277 529 m 0
 414 529 498 434 498 258 c 0
 498 82 414 -13 277 -13 c 0
 140 -13 56 82 56 258 c 0
 56 434 140 529 277 529 c 0
277 10 m 0
 391 10 473 87 473 258 c 0
 473 429 391 506 277 506 c 0
 163 506 81 429 81 258 c 0
 81 87 163 10 277 10 c 0
EndSplineSet
Validated: 1
EndChar

StartChar: oe
Encoding: 243 339 185
Width: 901
GlyphClass: 2
Flags: MW
HStem: -14 23<613.5 689.5> -13 23<220 333.5 220 337.5> 263 22<491 813 491 837 491 813> 506 23<220 334> 507 23<620.5 714>
VStem: 56 25<172.5 343.5 172.5 346> 468 23<232 255 255 263 165 280 165 280> 813 24<263 285>
AnchorPoint: "Anchor-0" 660 0 basechar 0
LayerCount: 2
Fore
SplineSet
667 9 m 0xaf
 716 9 769 19 815 41 c 1
 822 21 l 1
 763 -7 714 -14 665 -14 c 0xb7
 560 -14 498 36 477 149 c 1
 454 63 398 -13 277 -13 c 0
 140 -13 56 82 56 258 c 0
 56 434 140 529 277 529 c 0x77
 400 529 456 450 478 362 c 1
 504 479 574 530 667 530 c 0
 774 530 827 469 836 343 c 0
 837 310 837 295 837 263 c 1
 491 263 l 1
 491 67 560 9 667 9 c 0xaf
666 507 m 0
 560 507 497 433 491 285 c 1
 813 285 l 1
 815 457 762 507 666 507 c 0
277 10 m 0x77
 390 10 461 93 468 232 c 1
 468 255 l 2
 468 264 468 272 468 280 c 0
 462 422 391 506 277 506 c 0
 163 506 81 429 81 258 c 0
 81 87 163 10 277 10 c 0x77
EndSplineSet
Validated: 33
EndChar

StartChar: p
Encoding: 80 112 186
Width: 538
GlyphClass: 2
Flags: MW
HStem: -207 21G<100 100> -14 23<237 314.5 237 337.5> 507 23<238 327.5>
VStem: 100 24<-201 4 28 485> 458 24<179 354.5>
LayerCount: 2
Fore
SplineSet
263 530 m 0
 401 530 482 469 482 263 c 0
 482 95 414 -14 261 -14 c 0
 209 -14 165 -9 124 4 c 1
 124 -201 l 1
 100 -207 l 1
 100 499 l 1
 159 522 209 530 263 530 c 0
261 9 m 0
 368 9 458 67 458 264 c 0
 458 445 391 507 264 507 c 0
 212 507 174 502 124 485 c 1
 124 28 l 1
 167 15 213 9 261 9 c 0
EndSplineSet
Validated: 1
EndChar

StartChar: thorn
Encoding: 178 254 187
Width: 538
GlyphClass: 2
Flags: MW
HStem: -207 21G<100 100> -14 23<237 314.5 237 337.5> 507 23<239.5 327.5> 734 20G<100 100> 740 20G<124 124>
VStem: 100 24<-201 4 28 485 508 754 754 754> 458 24<179 354.5>
AnchorPoint: "Anchor-0" 112 0 basechar 0
LayerCount: 2
Fore
SplineSet
263 530 m 0xee
 401 530 482 469 482 263 c 0
 482 95 414 -14 261 -14 c 0
 209 -14 165 -9 124 4 c 1
 124 -201 l 1
 100 -207 l 1
 100 499 l 1
 100 754 l 1xf6
 124 760 l 1
 124 508 l 1
 173 524 216 530 263 530 c 0xee
261 9 m 0
 368 9 458 67 458 264 c 0
 458 445 391 507 264 507 c 0
 212 507 174 502 124 485 c 1
 124 28 l 1
 167 15 213 9 261 9 c 0
EndSplineSet
Validated: 1
EndChar

StartChar: q
Encoding: 81 113 188
Width: 538
GlyphClass: 2
Flags: MW
HStem: -207 21G<414 414> -14 23<210.5 298.5> 507 23<223.5 301>
VStem: 56 24<161.5 337> 414 24<-201 8 8 8 31 488 488 488>
LayerCount: 2
Fore
SplineSet
277 530 m 4
 339 530 390 523 438 503 c 5
 438 -201 l 5
 414 -207 l 5
 414 8 l 5
 365 -8 322 -14 275 -14 c 4
 137 -14 56 47 56 253 c 4
 56 421 124 530 277 530 c 4
274 9 m 4
 326 9 364 14 414 31 c 5
 414 488 l 5
 371 501 325 507 277 507 c 4
 170 507 80 449 80 252 c 4
 80 71 147 9 274 9 c 4
EndSplineSet
Validated: 1
EndChar

StartChar: r
Encoding: 82 114 189
Width: 298
GlyphClass: 2
Flags: MW
HStem: 0 21G<100 100 100 124> 497 20G<258 266> 499 20G<124 124> 507 23<201 226.5>
VStem: 100 24<0 422 463 513 513 513>
AnchorPoint: "Anchor-0" 112 0 basechar 0
LayerCount: 2
Fore
SplineSet
100 0 m 1x98
 100 513 l 1
 124 519 l 1xa8
 124 463 l 1
 151 510 183 530 219 530 c 0x98
 241 530 254 526 266 517 c 1xc8
 258 497 l 1
 248 503 236 507 217 507 c 0
 176 507 139 469 124 422 c 1
 124 0 l 1
 100 0 l 1x98
EndSplineSet
Validated: 1
EndChar

StartChar: racute
Encoding: 245 341 190
Width: 298
GlyphClass: 2
Flags: MW
HStem: 0 21G<100 100 100 124> 497 20G<258 266> 499 20G<124 124> 507 23<201 226.5> 740 20G<237 268 268 268>
VStem: 100 24<0 422 463 513 513 513>
AnchorPoint: "Anchor-0" 112 0 basechar 0
LayerCount: 2
Fore
SplineSet
149 604 m 1x9c
 237 760 l 1
 268 760 l 1
 171 604 l 1
 149 604 l 1x9c
100 0 m 1
 100 513 l 1
 124 519 l 1xac
 124 463 l 1
 151 510 183 530 219 530 c 0x9c
 241 530 254 526 266 517 c 1xcc
 258 497 l 1
 248 503 236 507 217 507 c 0
 176 507 139 469 124 422 c 1
 124 0 l 1
 100 0 l 1
EndSplineSet
Validated: 1
EndChar

StartChar: rcaron
Encoding: 249 345 191
Width: 298
GlyphClass: 2
Flags: MW
HStem: 0 21G<100 124 100 100> 497 20G<258 266> 499 20G<124 124> 507 23<201 226.5> 604 24<174 174 174 184 164 174> 740 20G<66 91 91 91 258 282 282 282>
VStem: 100 24<0 422 463 513 513 513>
AnchorPoint: "Anchor-0" 112 0 basechar 0
LayerCount: 2
Fore
SplineSet
184 604 m 1x9e
 164 604 l 1
 66 760 l 1
 91 760 l 1
 174 628 l 1
 258 760 l 1
 282 760 l 1
 184 604 l 1x9e
124 463 m 1
 151 510 183 530 219 530 c 0x9e
 241 530 254 526 266 517 c 1xce
 258 497 l 1
 248 503 236 507 217 507 c 0
 176 507 139 469 124 422 c 1x9e
 124 0 l 1
 100 0 l 1
 100 513 l 1
 124 519 l 1xae
 124 463 l 1
EndSplineSet
Validated: 1
EndChar

StartChar: rcommaaccent
Encoding: 247 343 192
Width: 298
GlyphClass: 2
Flags: MW
HStem: 0 21G<100 100 100 124> 497 20G<258 266> 499 20G<124 124> 507 23<201 226.5>
VStem: 100 24<0 422 463 513 513 513>
AnchorPoint: "Anchor-0" 112 0 basechar 0
LayerCount: 2
Fore
SplineSet
100 0 m 1x98
 100 513 l 1
 124 519 l 1xa8
 124 463 l 1
 151 510 183 530 219 530 c 0x98
 241 530 254 526 266 517 c 1xc8
 258 497 l 1
 248 503 236 507 217 507 c 0
 176 507 139 469 124 422 c 1
 124 0 l 1
 100 0 l 1x98
41 -239 m 1
 89 -167 103 -110 101 -58 c 1
 106 -54 115 -51 124 -50 c 1
 128 -118 108 -177 62 -239 c 1
 41 -239 l 1
EndSplineSet
Validated: 33
EndChar

StartChar: s
Encoding: 83 115 193
Width: 457
GlyphClass: 2
Flags: MW
HStem: -14 23<191 250.5 191 257> 511 23<210.5 270.5>
VStem: 95 24<373 439.5 373 447> 353 24<85.5 157.5>
AnchorPoint: "Anchor-0" 237 0 basechar 0
LayerCount: 2
Fore
SplineSet
209 -14 m 4
 167 -14 118 0 75 33 c 5
 86 52 l 5
 123 23 171 9 211 9 c 4
 290 9 353 47 353 124 c 4
 353 191 304 220 213 264 c 4
 163 288 95 322 95 406 c 0
 95 488 163 534 247 534 c 0
 303 534 346 515 376 496 c 1
 366 476 l 1
 330 500 292 511 249 511 c 0
 172 511 119 472 119 407 c 0
 119 339 169 314 227 286 c 4
 327 237 377 206 377 124 c 4
 377 35 305 -14 209 -14 c 4
EndSplineSet
Validated: 1
EndChar

StartChar: sacute
Encoding: 251 347 194
Width: 457
GlyphClass: 2
Flags: MW
HStem: -14 23<191 250.5 191 257> 511 23<210.5 270.5> 740 20G<298 329 329 329>
VStem: 95 24<373 439.5 373 447> 353 24<85.5 157.5>
AnchorPoint: "Anchor-0" 237 0 basechar 0
LayerCount: 2
Fore
SplineSet
210 604 m 1
 298 760 l 1
 329 760 l 1
 232 604 l 1
 210 604 l 1
209 -14 m 0
 167 -14 118 0 75 33 c 1
 86 52 l 1
 123 23 171 9 211 9 c 0
 290 9 353 47 353 124 c 0
 353 191 304 220 213 264 c 0
 163 288 95 322 95 406 c 0
 95 488 163 534 247 534 c 0
 303 534 346 515 376 496 c 1
 366 476 l 1
 330 500 292 511 249 511 c 0
 172 511 119 472 119 407 c 0
 119 339 169 314 227 286 c 0
 327 237 377 206 377 124 c 0
 377 35 305 -14 209 -14 c 0
EndSplineSet
Validated: 1
EndChar

StartChar: scaron
Encoding: 255 353 195
Width: 457
GlyphClass: 2
Flags: MW
HStem: -14 23<191 250.5 191 257> 511 23<210.5 270.5> 604 24<235 235 235 245 225 235> 740 20G<127 152 152 152 319 343 343 343>
VStem: 95 24<373 439.5 373 447> 353 24<85.5 157.5>
AnchorPoint: "Anchor-0" 237 0 basechar 0
LayerCount: 2
Fore
SplineSet
245 604 m 1
 225 604 l 1
 127 760 l 1
 152 760 l 1
 235 628 l 1
 319 760 l 1
 343 760 l 1
 245 604 l 1
227 286 m 0
 327 237 377 206 377 124 c 0
 377 35 305 -14 209 -14 c 0
 167 -14 118 0 75 33 c 1
 86 52 l 1
 123 23 171 9 211 9 c 0
 290 9 353 47 353 124 c 0
 353 191 304 220 213 264 c 0
 163 288 95 322 95 406 c 0
 95 488 163 534 247 534 c 0
 303 534 346 515 376 496 c 1
 366 476 l 1
 330 500 292 511 249 511 c 0
 172 511 119 472 119 407 c 0
 119 339 169 314 227 286 c 0
EndSplineSet
Validated: 1
EndChar

StartChar: scedilla
Encoding: 253 351 196
Width: 457
GlyphClass: 2
Flags: MW
HStem: -210 23<202.5 235.5 202.5 238> -75 20 -14 23<191 209 209 218> 511 23<210.5 270.5>
VStem: 95 24<373 439.5 373 447> 293 24<-148 -109.5> 353 24<85.5 157.5>
AnchorPoint: "Anchor-0" 237 0 basechar 0
LayerCount: 2
Fore
SplineSet
377 124 m 0
 377 46 322 -1 243 -12 c 1
 221 -55 l 1
 277 -56 317 -80 317 -128 c 0
 317 -184 265 -210 211 -210 c 0
 186 -210 165 -204 151 -194 c 1
 160 -176 l 1
 177 -184 191 -187 214 -187 c 0
 257 -187 293 -167 293 -129 c 0
 293 -90 256 -70 187 -75 c 1
 218 -14 l 1
 209 -14 l 2
 167 -14 118 0 75 33 c 1
 86 52 l 1
 123 23 171 9 211 9 c 0
 290 9 353 47 353 124 c 0
 353 191 304 220 213 264 c 0
 163 288 95 322 95 406 c 0
 95 488 163 534 247 534 c 0
 303 534 346 515 376 496 c 1
 366 476 l 1
 330 500 292 511 249 511 c 0
 172 511 119 472 119 407 c 0
 119 339 169 314 227 286 c 0
 327 237 377 206 377 124 c 0
EndSplineSet
Validated: 33
EndChar

StartChar: germandbls
Encoding: 147 223 197
Width: 561
GlyphClass: 2
Flags: MW
HStem: -14 23<313.5 368 313.5 380> 0 21G<100 124 100 100> 741 23<242 332.5>
VStem: 100 24<0 447 447 466> 324 24<417 451 417 454> 429 24<573.5 632 572 634> 477 24<105.5 179.5>
LayerCount: 2
Fore
SplineSet
412 330 m 4xba
 477 268 501 214 501 149 c 4
 501 62 435 -14 325 -14 c 4xba
 283 -14 245 -2 220 18 c 5x7a
 232 36 l 5
 264 15 300 9 327 9 c 4
 409 9 477 59 477 148 c 4xba
 477 211 455 254 394 316 c 4
 338 373 324 397 324 430 c 4
 324 478 357 510 418 515 c 5
 426 540 429 560 429 587 c 4
 429 681 384 741 281 741 c 4
 203 741 124 678 124 524 c 6
 124 0 l 5
 100 0 l 5
 100 447 l 6
 100 485 100 536 103 576 c 4
 112 680 180 764 287 764 c 4
 412 764 453 675 453 589 c 4x7e
 453 555 448 527 433 496 c 5
 371 489 348 469 348 433 c 4
 348 401 364 375 412 330 c 4xba
EndSplineSet
Validated: 1
EndChar

StartChar: t
Encoding: 84 116 198
Width: 351
GlyphClass: 2
Flags: MW
HStem: -14 23<209.5 251.5 209.5 253> 494 22<46 122 46 122 146 302>
VStem: 122 24<184 494 516 669 669 669>
AnchorPoint: "Anchor-0" 215 0 basechar 0
LayerCount: 2
Fore
SplineSet
310 25 m 1
 318 8 l 1
 295 -4 271 -14 235 -14 c 0
 157 -14 128 35 124 90 c 0
 122 117 122 136 122 184 c 2
 122 494 l 1
 46 494 l 1
 46 516 l 1
 122 516 l 1
 122 669 l 1
 146 675 l 1
 146 516 l 1
 307 516 l 1
 302 494 l 1
 146 494 l 1
 146 124 l 2
 146 38 181 9 238 9 c 0
 265 9 287 14 310 25 c 1
EndSplineSet
Validated: 1
EndChar

StartChar: tbar
Encoding: 261 359 199
Width: 351
GlyphClass: 2
Flags: MW
HStem: -14 23<209.5 251.5 209.5 253> 309 22<60 122 60 122 146 250> 494 22<46 122 46 122 146 302>
VStem: 122 24<184 309 331 494 516 669 669 669>
AnchorPoint: "Anchor-0" 215 0 basechar 0
LayerCount: 2
Fore
SplineSet
310 25 m 1
 318 8 l 1
 295 -4 271 -14 235 -14 c 0
 157 -14 128 35 124 90 c 0
 122 117 122 136 122 184 c 2
 122 309 l 1
 60 309 l 1
 60 331 l 1
 122 331 l 1
 122 494 l 1
 46 494 l 1
 46 516 l 1
 122 516 l 1
 122 669 l 1
 146 675 l 1
 146 516 l 1
 307 516 l 1
 302 494 l 1
 146 494 l 1
 146 331 l 1
 250 331 l 1
 250 309 l 1
 146 309 l 1
 146 124 l 2
 146 38 181 9 238 9 c 0
 265 9 287 14 310 25 c 1
EndSplineSet
Validated: 1
EndChar

StartChar: tcaron
Encoding: 259 357 200
Width: 351
GlyphClass: 2
Flags: MW
HStem: -14 23<209.5 251.5 209.5 253> 494 22<46 122 46 122 146 302> 736 20G
VStem: 122 24<184 494 516 669 669 669> 246 23
AnchorPoint: "Anchor-0" 215 0 basechar 0
LayerCount: 2
Fore
SplineSet
207 567 m 1
 186 567 l 1
 234 639 248 696 246 748 c 1
 251 752 260 755 269 756 c 1
 273 688 253 629 207 567 c 1
310 25 m 1
 318 8 l 1
 295 -4 271 -14 235 -14 c 0
 157 -14 128 35 124 90 c 0
 122 117 122 136 122 184 c 2
 122 494 l 1
 46 494 l 1
 46 516 l 1
 122 516 l 1
 122 669 l 1
 146 675 l 1
 146 516 l 1
 307 516 l 1
 302 494 l 1
 146 494 l 1
 146 124 l 2
 146 38 181 9 238 9 c 0
 265 9 287 14 310 25 c 1
EndSplineSet
Validated: 33
EndChar

StartChar: uni0163
Encoding: 257 355 201
Width: 351
GlyphClass: 2
Flags: MW
HStem: -210 23<180.5 213.5 180.5 216> -75 20 -14 23<232.5 251.5 209.5 253> -10 21G<198 198> 494 22<46 122 46 122 146 302>
VStem: 122 24<184 494 516 669 669 669> 271 24<-148 -109.5>
AnchorPoint: "Anchor-0" 215 0 basechar 0
LayerCount: 2
Fore
SplineSet
199 -55 m 1xee
 255 -56 295 -80 295 -128 c 0
 295 -184 243 -210 189 -210 c 0
 164 -210 143 -204 129 -194 c 1
 138 -176 l 1
 155 -184 169 -187 192 -187 c 0
 235 -187 271 -167 271 -129 c 0
 271 -90 234 -70 165 -75 c 1
 198 -10 l 1
 148 4 127 45 124 90 c 0xde
 122 117 122 136 122 184 c 2
 122 494 l 1
 46 494 l 1
 46 516 l 1
 122 516 l 1
 122 669 l 1
 146 675 l 1
 146 516 l 1
 307 516 l 1
 302 494 l 1
 146 494 l 1
 146 124 l 2
 146 38 181 9 238 9 c 0
 265 9 287 14 310 25 c 1
 318 8 l 1
 295 -4 271 -14 235 -14 c 0
 230 -14 225 -14 220 -13 c 1
 199 -55 l 1xee
EndSplineSet
Validated: 33
EndChar

StartChar: u
Encoding: 85 117 202
Width: 536
GlyphClass: 2
Flags: MW
HStem: -14 23<203.5 278> 0 21G<412 436 412 412> 0 58<412 436 412 412> 499 20G<105 105 436 436>
VStem: 81 24<195 513 513 513> 412 24<0 35 35 35 58 513 513 513>
LayerCount: 2
Fore
SplineSet
412 513 m 5x9c
 436 519 l 5
 436 0 l 5
 412 0 l 5x5c
 412 35 l 5
 362 2 306 -14 250 -14 c 4
 151 -14 92 26 83 119 c 4
 81 142 81 161 81 195 c 6
 81 513 l 5
 105 519 l 5
 105 151 l 6
 105 50 150 9 257 9 c 4x9c
 305 9 352 22 412 58 c 5x3c
 412 513 l 5x9c
EndSplineSet
Validated: 1
EndChar

StartChar: uacute
Encoding: 174 250 203
Width: 536
GlyphClass: 2
Flags: MW
HStem: -14 23<203.5 278> 0 21G<412 436 412 412> 0 58<412 436 412 412> 499 20G<105 105 436 436> 740 20G<328 359 359 359>
VStem: 81 24<195 513 513 513> 412 24<0 35 35 35 58 513 513 513>
LayerCount: 2
Fore
SplineSet
359 760 m 1x9e
 262 604 l 1
 240 604 l 1
 328 760 l 1
 359 760 l 1x9e
412 513 m 1
 436 519 l 1
 436 0 l 1
 412 0 l 1x5e
 412 35 l 1
 362 2 306 -14 250 -14 c 0
 151 -14 92 26 83 119 c 0
 81 142 81 161 81 195 c 2
 81 513 l 1
 105 519 l 1
 105 151 l 2
 105 50 150 9 257 9 c 0x9e
 305 9 352 22 412 58 c 1x3e
 412 513 l 1
EndSplineSet
Validated: 1
EndChar

StartChar: ucircumflex
Encoding: 175 251 204
Width: 536
GlyphClass: 2
Flags: MW
HStem: -14 23<203.5 278> 0 21G<412 436 412 412> 0 58<412 436 412 412> 499 20G<105 105 436 436> 736 24<265 265>
VStem: 81 24<195 513 513 513> 412 24<0 35 35 35 58 513 513 513>
LayerCount: 2
Fore
SplineSet
265 736 m 1x9e
 181 604 l 1
 157 604 l 1
 255 760 l 1
 275 760 l 1
 373 604 l 1
 348 604 l 1
 265 736 l 1x9e
412 513 m 1
 436 519 l 1
 436 0 l 1
 412 0 l 1x5e
 412 35 l 1
 362 2 306 -14 250 -14 c 0
 151 -14 92 26 83 119 c 0
 81 142 81 161 81 195 c 2
 81 513 l 1
 105 519 l 1
 105 151 l 2
 105 50 150 9 257 9 c 0x9e
 305 9 352 22 412 58 c 1x3e
 412 513 l 1
EndSplineSet
Validated: 1
EndChar

StartChar: udieresis
Encoding: 176 252 205
Width: 536
GlyphClass: 2
Flags: MW
HStem: -14 23<203.5 278> 0 21G<412 436 412 412> 0 58<412 436 412 412> 499 20G<105 105 436 436> 611 88<208 232 208 232 208 298 298 322>
VStem: 81 24<195 513 513 513> 208 24<611 699> 298 24<611 699> 412 24<0 35 35 35 58 513 513 513>
LayerCount: 2
Fore
SplineSet
232 611 m 1x9f80
 225 608 215 608 208 611 c 1
 208 699 l 1
 215 702 225 702 232 699 c 1
 232 611 l 1x9f80
322 611 m 1
 315 608 305 608 298 611 c 1
 298 699 l 1
 305 702 315 702 322 699 c 1
 322 611 l 1
412 513 m 1
 436 519 l 1
 436 0 l 1
 412 0 l 1x5f80
 412 35 l 1
 362 2 306 -14 250 -14 c 0
 151 -14 92 26 83 119 c 0
 81 142 81 161 81 195 c 2
 81 513 l 1
 105 519 l 1
 105 151 l 2
 105 50 150 9 257 9 c 0x9f80
 305 9 352 22 412 58 c 1x3f80
 412 513 l 1
EndSplineSet
Validated: 1
EndChar

StartChar: ugrave
Encoding: 173 249 206
Width: 536
GlyphClass: 2
Flags: MW
HStem: -14 23<203.5 278> 0 21G<412 436 412 412> 0 58<412 436 412 412> 499 20G<105 105 436 436> 740 20G<161 192 192 192>
VStem: 81 24<195 513 513 513> 412 24<0 35 35 35 58 513 513 513>
LayerCount: 2
Fore
SplineSet
280 604 m 1x9e
 258 604 l 1
 161 760 l 1
 192 760 l 1
 280 604 l 1x9e
412 513 m 1
 436 519 l 1
 436 0 l 1
 412 0 l 1x5e
 412 35 l 1
 362 2 306 -14 250 -14 c 0
 151 -14 92 26 83 119 c 0
 81 142 81 161 81 195 c 2
 81 513 l 1
 105 519 l 1
 105 151 l 2
 105 50 150 9 257 9 c 0x9e
 305 9 352 22 412 58 c 1x3e
 412 513 l 1
EndSplineSet
Validated: 1
EndChar

StartChar: uhungarumlaut
Encoding: 267 369 207
Width: 536
GlyphClass: 2
Flags: MW
HStem: -14 23<203.5 278> 0 21G<412 436 412 412> 0 58<412 436 412 412> 499 20G<105 105 436 436> 604 156<180 299 180 299 279 279 279 299 268 301>
VStem: 81 24<195 513 513 513> 412 24<0 35 35 35 58 513 513 513>
LayerCount: 2
Fore
SplineSet
299 760 m 1x9e
 202 604 l 1
 180 604 l 1
 268 760 l 1
 299 760 l 1x9e
301 604 m 1
 279 604 l 1
 367 760 l 1
 398 760 l 1
 301 604 l 1
412 513 m 1
 436 519 l 1
 436 0 l 1
 412 0 l 1x5e
 412 35 l 1
 362 2 306 -14 250 -14 c 0
 151 -14 92 26 83 119 c 0
 81 142 81 161 81 195 c 2
 81 513 l 1
 105 519 l 1
 105 151 l 2
 105 50 150 9 257 9 c 0x9e
 305 9 352 22 412 58 c 1x3e
 412 513 l 1
EndSplineSet
Validated: 1
EndChar

StartChar: umacron
Encoding: 263 363 208
Width: 536
GlyphClass: 2
Flags: MW
HStem: -14 23<203.5 278> 0 21G<412 436 412 412> 0 58<412 436 412 412> 499 20G<105 105 436 436> 663 22<180 350 180 350>
VStem: 81 24<195 513 513 513> 180 170<663 685 663 685> 412 24<0 35 35 35 58 513 513 513>
LayerCount: 2
Fore
SplineSet
350 685 m 1x9f
 350 663 l 1
 180 663 l 1
 180 685 l 1
 350 685 l 1x9f
412 513 m 1
 436 519 l 1
 436 0 l 1
 412 0 l 1x5f
 412 35 l 1
 362 2 306 -14 250 -14 c 0
 151 -14 92 26 83 119 c 0
 81 142 81 161 81 195 c 2
 81 513 l 1
 105 519 l 1
 105 151 l 2
 105 50 150 9 257 9 c 0x9f
 305 9 352 22 412 58 c 1x3f
 412 513 l 1
EndSplineSet
Validated: 1
EndChar

StartChar: uogonek
Encoding: 269 371 209
Width: 536
GlyphClass: 2
Flags: MW
HStem: -220 22<363 390> -14 23<203.5 278> 0 21G<436 436> 499 20G<105 105 436 436>
VStem: 81 24<195 513 513 513> 304 24<-154 -107.5> 412 24<7 35 35 35 58 513 513 513>
LayerCount: 2
Fore
SplineSet
381 -198 m 0xde
 403 -198 425 -191 446 -178 c 1
 444 -201 l 1
 419 -214 399 -220 381 -220 c 0
 336 -220 304 -197 304 -138 c 0
 304 -77 356 -13 412 7 c 1
 412 35 l 1
 362 2 306 -14 250 -14 c 0
 151 -14 92 26 83 119 c 0
 81 142 81 161 81 195 c 2
 81 513 l 1
 105 519 l 1
 105 151 l 2
 105 50 150 9 257 9 c 0
 305 9 352 22 412 58 c 1xde
 412 513 l 1
 436 519 l 1
 436 0 l 1xbe
 372 -31 328 -76 328 -135 c 0
 328 -173 345 -198 381 -198 c 0xde
EndSplineSet
Validated: 1
EndChar

StartChar: uring
Encoding: 265 367 210
Width: 536
GlyphClass: 2
Flags: MW
HStem: -14 23<203.5 278> 0 21G<412 436 412 412> 0 58<412 436 412 412> 499 20G<105 105 436 436> 580 21<247 283 247 289> 739 21<247 283>
VStem: 81 24<195 513 513 513> 175 23<650 690 650 695.5> 332 23<650 690> 412 24<0 35 35 35 58 513 513 513>
LayerCount: 2
Fore
SplineSet
265 580 m 0x9fc0
 217 580 175 619 175 670 c 0
 175 721 217 760 265 760 c 0
 313 760 355 721 355 670 c 0
 355 619 313 580 265 580 c 0x9fc0
265 739 m 0
 229 739 198 710 198 670 c 0
 198 630 229 601 265 601 c 0
 301 601 332 630 332 670 c 0
 332 710 301 739 265 739 c 0
412 513 m 1
 436 519 l 1
 436 0 l 1
 412 0 l 1x5fc0
 412 35 l 1
 362 2 306 -14 250 -14 c 0
 151 -14 92 26 83 119 c 0
 81 142 81 161 81 195 c 2
 81 513 l 1
 105 519 l 1
 105 151 l 2
 105 50 150 9 257 9 c 0x9fc0
 305 9 352 22 412 58 c 1x3fc0
 412 513 l 1
EndSplineSet
Validated: 1
EndChar

StartChar: v
Encoding: 86 118 211
Width: 501
GlyphClass: 2
Flags: MW
HStem: 0 30<255 255 255 266 243 255> 496 20G<48 76 76 76 445 472 472 472>
VStem: 48 424<516 516>
LayerCount: 2
Fore
SplineSet
445 516 m 1
 472 516 l 1
 266 0 l 1
 243 0 l 1
 48 516 l 1
 76 516 l 1
 255 30 l 1
 445 516 l 1
EndSplineSet
Validated: 1
EndChar

StartChar: w
Encoding: 87 119 212
Width: 779
GlyphClass: 2
Flags: MW
HStem: 0 33<234 234 234 246 221 234> 460 35<403 403> 496 20G<56 82 82 82 718 742 742 742>
VStem: 56 686<516 516>
LayerCount: 2
Fore
SplineSet
718 516 m 5
 742 516 l 5xb0
 569 0 l 5
 545 0 l 5
 403 460 l 5xd0
 246 0 l 5
 221 0 l 5
 56 516 l 5
 82 516 l 5xb0
 234 33 l 5
 392 495 l 5
 414 495 l 5xd0
 558 34 l 5
 718 516 l 5
EndSplineSet
Validated: 1
EndChar

StartChar: wacute
Encoding: 380 7811 213
Width: 779
GlyphClass: 2
Flags: MW
HStem: 0 33<234 234 234 246 221 234> 460 35<403 403> 496 20G<56 82 82 82 718 742 742 742> 740 20G<466 497 497 497>
VStem: 56 686<516 516>
LayerCount: 2
Fore
SplineSet
497 760 m 1
 400 604 l 1
 378 604 l 1
 466 760 l 1
 497 760 l 1
718 516 m 1
 742 516 l 1xb8
 569 0 l 1
 545 0 l 1
 403 460 l 1xd8
 246 0 l 1
 221 0 l 1
 56 516 l 1
 82 516 l 1xb8
 234 33 l 1
 392 495 l 1
 414 495 l 1xd8
 558 34 l 1
 718 516 l 1
EndSplineSet
Validated: 1
EndChar

StartChar: wcircumflex
Encoding: 271 373 214
Width: 779
GlyphClass: 2
Flags: MW
HStem: 0 33<234 234 234 246 221 234> 460 35<403 403> 496 20G<56 82 82 82 718 742 742 742> 736 24<403 403>
VStem: 56 686<516 516>
LayerCount: 2
Fore
SplineSet
403 736 m 1
 319 604 l 1
 295 604 l 1
 393 760 l 1
 413 760 l 1
 511 604 l 1
 486 604 l 1
 403 736 l 1
718 516 m 1
 742 516 l 1xb8
 569 0 l 1
 545 0 l 1
 403 460 l 1xd8
 246 0 l 1
 221 0 l 1
 56 516 l 1
 82 516 l 1xb8
 234 33 l 1
 392 495 l 1
 414 495 l 1xd8
 558 34 l 1
 718 516 l 1
EndSplineSet
Validated: 1
EndChar

StartChar: wdieresis
Encoding: 382 7813 215
Width: 779
GlyphClass: 2
Flags: MW
HStem: 0 33<234 234 234 246 221 234> 460 35<403 403> 496 20G<56 82 82 82 718 742 742 742> 611 88<346 370 346 370 346 436 436 460>
VStem: 346 24<611 699> 436 24<611 699>
LayerCount: 2
Fore
SplineSet
370 611 m 1
 363 608 353 608 346 611 c 1
 346 699 l 1
 353 702 363 702 370 699 c 1
 370 611 l 1
460 611 m 1
 453 608 443 608 436 611 c 1
 436 699 l 1
 443 702 453 702 460 699 c 1
 460 611 l 1
718 516 m 1
 742 516 l 1xbc
 569 0 l 1
 545 0 l 1
 403 460 l 1xdc
 246 0 l 1
 221 0 l 1
 56 516 l 1
 82 516 l 1xbc
 234 33 l 1
 392 495 l 1
 414 495 l 1xdc
 558 34 l 1
 718 516 l 1
EndSplineSet
Validated: 1
EndChar

StartChar: wgrave
Encoding: 378 7809 216
Width: 779
GlyphClass: 2
Flags: MW
HStem: 0 33<234 234 234 246 221 234> 460 35<403 403> 496 20G<56 82 82 82 718 742 742 742> 740 20G<299 330 330 330>
VStem: 56 686<516 516>
LayerCount: 2
Fore
SplineSet
418 604 m 1
 396 604 l 1
 299 760 l 1
 330 760 l 1
 418 604 l 1
718 516 m 1
 742 516 l 1xb8
 569 0 l 1
 545 0 l 1
 403 460 l 1xd8
 246 0 l 1
 221 0 l 1
 56 516 l 1
 82 516 l 1xb8
 234 33 l 1
 392 495 l 1
 414 495 l 1xd8
 558 34 l 1
 718 516 l 1
EndSplineSet
Validated: 1
EndChar

StartChar: x
Encoding: 88 120 217
Width: 487
GlyphClass: 2
Flags: MW
HStem: 0 21G<46 75 46 46 402 435 402 402> 496 20G<59 90 90 90 407 439 439 439>
VStem: 46 393
LayerCount: 2
Fore
SplineSet
439 516 m 1
 256 262 l 1
 435 0 l 1
 402 0 l 1
 242 244 l 1
 75 0 l 1
 46 0 l 1
 227 261 l 1
 59 516 l 1
 90 516 l 1
 243 278 l 1
 407 516 l 5
 439 516 l 1
EndSplineSet
Validated: 1
EndChar

StartChar: y
Encoding: 89 121 218
Width: 487
GlyphClass: 2
Flags: MW
HStem: -219 21G<47 47> 496 20G<44 71 71 71 432 458 458 458>
VStem: 32 426
LayerCount: 2
Fore
SplineSet
432 516 m 5
 458 516 l 5
 282 76 l 6
 205 -117 139 -193 47 -219 c 5
 32 -199 l 5
 115 -179 181 -100 226 4 c 5
 44 516 l 5
 71 516 l 5
 240 30 l 5
 432 516 l 5
EndSplineSet
Validated: 1
EndChar

StartChar: yacute
Encoding: 177 253 219
Width: 487
GlyphClass: 2
Flags: MW
HStem: -219 21G<47 47> 496 20G<44 71 71 71 432 458 458 458> 740 20G<312 343 343 343>
VStem: 32 426
LayerCount: 2
Fore
SplineSet
343 760 m 1
 246 604 l 1
 224 604 l 1
 312 760 l 1
 343 760 l 1
432 516 m 1
 458 516 l 1
 282 76 l 2
 205 -117 139 -193 47 -219 c 1
 32 -199 l 1
 115 -179 181 -100 226 4 c 1
 44 516 l 1
 71 516 l 1
 240 30 l 1
 432 516 l 1
EndSplineSet
Validated: 1
EndChar

StartChar: ycircumflex
Encoding: 273 375 220
Width: 487
GlyphClass: 2
Flags: MW
HStem: -219 21G<47 47> 496 20G<44 71 71 71 432 458 458 458> 736 24<249 249>
VStem: 32 426
LayerCount: 2
Fore
SplineSet
249 736 m 1
 165 604 l 1
 141 604 l 1
 239 760 l 1
 259 760 l 1
 357 604 l 1
 332 604 l 1
 249 736 l 1
432 516 m 1
 458 516 l 1
 282 76 l 2
 205 -117 139 -193 47 -219 c 1
 32 -199 l 1
 115 -179 181 -100 226 4 c 1
 44 516 l 1
 71 516 l 1
 240 30 l 1
 432 516 l 1
EndSplineSet
Validated: 1
EndChar

StartChar: ydieresis
Encoding: 179 255 221
Width: 487
GlyphClass: 2
Flags: MW
HStem: -219 21G<47 47> 496 20G<44 71 71 71 432 458 458 458> 611 88<192 216 192 216 192 282 282 306>
VStem: 192 24<611 699> 282 24<611 699>
LayerCount: 2
Fore
SplineSet
216 611 m 1
 209 608 199 608 192 611 c 1
 192 699 l 1
 199 702 209 702 216 699 c 1
 216 611 l 1
306 611 m 1
 299 608 289 608 282 611 c 1
 282 699 l 1
 289 702 299 702 306 699 c 1
 306 611 l 1
432 516 m 1
 458 516 l 1
 282 76 l 2
 205 -117 139 -193 47 -219 c 1
 32 -199 l 1
 115 -179 181 -100 226 4 c 1
 44 516 l 1
 71 516 l 1
 240 30 l 1
 432 516 l 1
EndSplineSet
Validated: 1
EndChar

StartChar: ygrave
Encoding: 384 7923 222
Width: 487
GlyphClass: 2
Flags: MW
HStem: -219 21G<47 47> 496 20G<44 71 71 71 432 458 458 458> 740 20G<145 176 176 176>
VStem: 32 426
LayerCount: 2
Fore
SplineSet
264 604 m 1
 242 604 l 1
 145 760 l 1
 176 760 l 1
 264 604 l 1
432 516 m 1
 458 516 l 1
 282 76 l 2
 205 -117 139 -193 47 -219 c 1
 32 -199 l 1
 115 -179 181 -100 226 4 c 1
 44 516 l 1
 71 516 l 1
 240 30 l 1
 432 516 l 1
EndSplineSet
Validated: 1
EndChar

StartChar: z
Encoding: 90 122 223
Width: 476
GlyphClass: 2
Flags: MW
HStem: 0 22<97 426> 494 22<90 371 90 404>
VStem: 65 371<0 22 17 22>
LayerCount: 2
Fore
SplineSet
97 22 m 1
 436 22 l 1
 426 0 l 1
 65 0 l 1
 65 17 l 1
 371 494 l 5
 90 494 l 5
 90 516 l 5
 404 516 l 5
 404 502 l 5
 97 22 l 1
EndSplineSet
Validated: 1
EndChar

StartChar: zacute
Encoding: 276 378 224
Width: 476
GlyphClass: 2
Flags: MW
HStem: 0 22<97 426> 494 22<90 371 90 404> 740 20G<306 337 337 337>
VStem: 65 371<0 22 17 22>
LayerCount: 2
Fore
SplineSet
337 760 m 1
 240 604 l 1
 218 604 l 1
 306 760 l 1
 337 760 l 1
97 22 m 1
 436 22 l 1
 426 0 l 1
 65 0 l 1
 65 17 l 1
 371 494 l 1
 90 494 l 1
 90 516 l 1
 404 516 l 1
 404 502 l 1
 97 22 l 1
EndSplineSet
Validated: 1
EndChar

StartChar: zcaron
Encoding: 280 382 225
Width: 476
GlyphClass: 2
Flags: MW
HStem: 0 22<97 426> 494 22<90 371 90 404> 604 24<243 243 243 253 233 243> 740 20G<135 160 160 160 327 351 351 351>
VStem: 65 371<0 22 17 22>
LayerCount: 2
Fore
SplineSet
253 604 m 1
 233 604 l 1
 135 760 l 1
 160 760 l 1
 243 628 l 1
 327 760 l 1
 351 760 l 1
 253 604 l 1
97 22 m 1
 436 22 l 1
 426 0 l 1
 65 0 l 1
 65 17 l 1
 371 494 l 1
 90 494 l 1
 90 516 l 1
 404 516 l 1
 404 502 l 1
 97 22 l 1
EndSplineSet
Validated: 1
EndChar

StartChar: zdotaccent
Encoding: 278 380 226
Width: 476
GlyphClass: 2
Flags: MW
HStem: 0 22<97 426> 494 22<90 371 90 404> 611 88<231 255 231 255>
VStem: 231 24<611 699>
LayerCount: 2
Fore
SplineSet
255 611 m 1
 248 608 238 608 231 611 c 1
 231 699 l 1
 238 702 248 702 255 699 c 1
 255 611 l 1
97 22 m 1
 436 22 l 1
 426 0 l 1
 65 0 l 1
 65 17 l 1
 371 494 l 1
 90 494 l 1
 90 516 l 1
 404 516 l 1
 404 502 l 1
 97 22 l 1
EndSplineSet
Validated: 1
EndChar

StartChar: fi
Encoding: 416 64257 227
Width: 552
GlyphClass: 3
Flags: MW
HStem: 1.45912 150
LayerCount: 2
Fore
SplineSet
137 616 m 0
 140 701 186 764 269 764 c 0
 294 764 315 757 330 745 c 1
 319 729 l 1
 305 737 289 741 268 741 c 0
 196 741 160 688 160 604 c 2
 160 515 l 1
 289 515 l 1
 284 493 l 1
 160 493 l 1
 160 0 l 1
 136 0 l 1
 136 493 l 1
 51 493 l 1
 51 515 l 1
 136 515 l 1
 136 537 l 2
 136 562 136 583 137 616 c 0
428 699 m 1
 435 702 445 702 452 699 c 1
 452 611 l 1
 445 608 435 608 428 611 c 1
 428 699 l 1
428 0 m 1
 428 513 l 1
 452 519 l 1
 452 0 l 1
 428 0 l 1
EndSplineSet
Validated: 1
Ligature2: "'liga' Standard Ligatures in Latin lookup 1 subtable" f i
EndChar

StartChar: fl
Encoding: 417 64258 228
Width: 552
GlyphClass: 3
Flags: MW
HStem: 0 21G<136 160 136 136 428 428 428 452> 493 22<51 136 51 136 160 284> 725 20G<330 330> 734 20G<428 428> 740 20G<452 452> 741 23<232 278.5>
VStem: 136 24<0 493 0 493 515 537 537 549.5> 428 24<0 754 754 754>
LayerCount: 2
Fore
SplineSet
137 616 m 0xc7
 140 701 186 764 269 764 c 0xc7
 294 764 315 757 330 745 c 1xe3
 319 729 l 1
 305 737 289 741 268 741 c 0
 196 741 160 688 160 604 c 2
 160 515 l 1
 289 515 l 1
 284 493 l 1
 160 493 l 1
 160 0 l 1
 136 0 l 1
 136 493 l 1
 51 493 l 1
 51 515 l 1
 136 515 l 1
 136 537 l 2
 136 562 136 583 137 616 c 0xc7
428 754 m 1xd3
 452 760 l 1xcb
 452 0 l 1
 428 0 l 1
 428 754 l 1xd3
EndSplineSet
Validated: 1
Ligature2: "'liga' Standard Ligatures in Latin lookup 1 subtable" f l
EndChar

StartChar: zero
Encoding: 16 48 229
Width: 540
Flags: MW
HStem: -14 23<203.5 336.5 203.5 352> 731 23<203.5 336.5>
VStem: 61 24<265.5 474.5> 455 24<265.5 474.5 265.5 478>
LayerCount: 2
Fore
SplineSet
270 754 m 0
 437 754 479 579 479 370 c 0
 479 161 434 -14 270 -14 c 0
 103 -14 61 161 61 370 c 0
 61 579 106 754 270 754 c 0
270 9 m 0
 403 9 455 154 455 370 c 0
 455 586 403 731 270 731 c 0
 137 731 85 586 85 370 c 0
 85 154 137 9 270 9 c 0
EndSplineSet
Validated: 1
EndChar

StartChar: one
Encoding: 17 49 230
Width: 540
Flags: MW
HStem: 0 21G<338 362 338 338> 709 31<338 362> 720 20G<341 362 362 362>
VStem: 338 24<0 709 709 709>
LayerCount: 2
Fore
SplineSet
341 740 m 1xb0
 362 740 l 1
 362 0 l 1
 338 0 l 1
 338 709 l 1xd0
 127 594 l 1
 118 613 l 1
 341 740 l 1xb0
EndSplineSet
Validated: 1
EndChar

StartChar: two
Encoding: 18 50 231
Width: 540
Flags: MW
HStem: 0 23.5 731 23<239.5 311.5>
VStem: 422 26<563 642>
LayerCount: 2
Fore
SplineSet
100 24 m 1
 477 23 l 1
 472 0 l 1
 61 0 l 1
 61 11 l 1
 322 372 l 2
 394 471 422 531 422 595 c 0
 422 689 354 731 269 731 c 0
 210 731 157 707 120 681 c 1
 110 698 l 1
 153 731 209 754 270 754 c 0
 383 754 448 694 448 595 c 0
 448 528 414 461 341 360 c 2
 100 24 l 1
EndSplineSet
Validated: 1
EndChar

StartChar: three
Encoding: 19 51 232
Width: 540
Flags: MW
HStem: -14 23<195 285.5 195 289> 386 23<185 254 185 256> 731 23<239.5 313>
VStem: 429 24<542 626> 445 26<146 247 141.5 255>
LayerCount: 2
Fore
SplineSet
321 402 m 1xe8
 437 377 471 282 471 212 c 0
 471 71 356 -14 222 -14 c 0
 159 -14 115 -6 63 22 c 1
 69 43 l 1
 123 18 164 9 226 9 c 0
 345 9 445 81 445 211 c 0xe8
 445 299 394 386 254 386 c 2
 185 386 l 1
 185 409 l 1
 256 409 l 2
 363 409 429 491 429 579 c 0
 429 673 360 731 266 731 c 0
 209 731 160 716 108 681 c 1
 97 698 l 1
 145 735 208 754 271 754 c 0
 368 754 453 692 453 578 c 0xf0
 453 506 409 428 321 402 c 1xe8
EndSplineSet
Validated: 1
EndChar

StartChar: four
Encoding: 20 52 233
Width: 540
Flags: MW
HStem: 0 21G<375 399 375 375> 233 23<73 375 399 502> 703 39<375 375> 722 20G<374 399 399 399>
VStem: 375 24<0 233 0 233 256 703 703 703>
LayerCount: 2
Fore
SplineSet
507 256 m 1xd8
 502 233 l 1
 399 233 l 1
 399 0 l 1
 375 0 l 1
 375 233 l 1
 36 232 l 1
 36 243 l 1
 374 742 l 1
 399 742 l 1
 399 256 l 1
 507 256 l 1xd8
375 703 m 1xe8
 73 256 l 1
 375 256 l 1
 375 703 l 1xe8
EndSplineSet
Validated: 1
EndChar

StartChar: five
Encoding: 21 53 234
Width: 540
Flags: MW
HStem: -14 23<196.5 288.5 196.5 291.5> 424 23<146 196 129 200> 719 23<178 457 178 178>
VStem: 437 26<161 278.5>
LayerCount: 2
Fore
SplineSet
200 447 m 2
 365 447 463 368 463 217 c 0
 463 84 361 -14 222 -14 c 0
 169 -14 123 -7 71 20 c 1
 78 39 l 1
 131 16 170 9 223 9 c 0
 354 9 437 105 437 217 c 0
 437 340 367 424 196 424 c 2
 129 424 l 1
 121 431 l 1
 158 742 l 1
 462 742 l 1
 457 719 l 1
 178 719 l 1
 146 447 l 1
 200 447 l 2
EndSplineSet
Validated: 1
EndChar

StartChar: six
Encoding: 22 54 235
Width: 540
Flags: MW
HStem: -14 23<223.5 326.5 223.5 340> 434 23<240.5 328.5> 731 23<248 355.5>
VStem: 66 24<215 335 215 427> 463 26<160.5 290.5>
LayerCount: 2
Fore
SplineSet
277 457 m 0
 395 457 489 369 489 231 c 0
 489 90 402 -14 278 -14 c 0
 149 -14 66 90 66 331 c 0
 66 523 117 754 332 754 c 0
 385 754 434 738 468 711 c 1
 457 693 l 1
 413 721 379 731 332 731 c 0
 164 731 99 565 91 384 c 1
 134 429 204 457 277 457 c 0
279 9 m 0
 374 9 463 86 463 230 c 0
 463 351 385 434 272 434 c 0
 194 434 134 403 91 358 c 1
 90 350 90 339 90 331 c 0
 90 99 168 9 279 9 c 0
EndSplineSet
Validated: 1
EndChar

StartChar: seven
Encoding: 23 55 236
Width: 540
Flags: MW
HStem: 0 21G<165 191 165 165> 717 23<72 485 67 524>
VStem: 67 457<717 740>
LayerCount: 2
Fore
SplineSet
72 740 m 1
 524 740 l 1
 524 729 l 1
 374 551 233 241 191 0 c 1
 165 0 l 1
 227 286 335 519 485 717 c 1
 67 717 l 1
 72 740 l 1
EndSplineSet
Validated: 1
EndChar

StartChar: eight
Encoding: 24 56 237
Width: 540
Flags: MW
HStem: -14 23<220.5 313 220.5 328.5> 731 23<234.5 334.5>
VStem: 56 26<125 235.5> 96 25<537 617.5 533.5 623> 443 25<536.5 616.5> 459 26<123.5 229.5 123.5 231>
LayerCount: 2
Fore
SplineSet
317 382 m 1xe4
 418 346 485 276 485 183 c 0
 485 64 389 -14 268 -14 c 0
 155 -14 56 48 56 185 c 0xe4
 56 286 128 368 225 397 c 1
 136 441 96 496 96 578 c 0
 96 668 173 754 282 754 c 0
 400 754 468 672 468 577 c 0xf8
 468 496 415 421 317 382 c 1xe4
121 578 m 0xf8
 121 489 174 435 291 392 c 1
 388 425 443 496 443 577 c 0
 443 656 386 731 283 731 c 0
 186 731 121 657 121 578 c 0xf8
268 9 m 0xe4
 358 9 459 60 459 183 c 0
 459 279 391 336 249 386 c 1
 146 354 82 286 82 186 c 0
 82 64 173 9 268 9 c 0xe4
EndSplineSet
Validated: 1
EndChar

StartChar: nine
Encoding: 25 57 238
Width: 540
Flags: MW
HStem: -13 23<184.5 292 184.5 315.5> 284 23<211.5 299.5> 732 23<213.5 316.5>
VStem: 51 26<450.5 580.5> 450 24<406 526>
LayerCount: 2
Fore
SplineSet
262 755 m 0
 391 755 474 651 474 410 c 0
 474 218 423 -13 208 -13 c 0
 155 -13 106 3 72 30 c 1
 83 48 l 1
 127 20 161 10 208 10 c 0
 376 10 441 176 449 357 c 1
 406 312 336 284 263 284 c 0
 145 284 51 372 51 510 c 0
 51 651 138 755 262 755 c 0
268 307 m 0
 346 307 406 338 449 383 c 1
 450 391 450 402 450 410 c 0
 450 642 372 732 261 732 c 0
 166 732 77 655 77 511 c 0
 77 390 155 307 268 307 c 0
EndSplineSet
Validated: 1
EndChar

StartChar: fraction
Encoding: 400 8260 239
Width: 564
Flags: MW
HStem: 730 20G<593 624 624 624>
VStem: -60 684
LayerCount: 2
Fore
SplineSet
-60 -30 m 1
 593 750 l 1
 624 750 l 1
 -29 -30 l 1
 -60 -30 l 1
EndSplineSet
Validated: 1
EndChar

StartChar: asterisk
Encoding: 10 42 240
Width: 540
Flags: MW
HStem: 98 369<173 293 267 387>
VStem: 268.5 23
LayerCount: 2
Fore
SplineSet
173 98 m 1
 152 113 l 1
 264 261 l 1
 86 316 l 1
 94 341 l 1
 270 280 l 1
 267 467 l 1
 293 467 l 1
 290 280 l 1
 466 341 l 1
 474 316 l 1
 296 261 l 1
 408 113 l 1
 387 98 l 1
 280 250 l 1
 173 98 l 1
EndSplineSet
Validated: 1
EndChar

StartChar: backslash
Encoding: 60 92 241
Width: 333
Flags: MW
HStem: 730 20G<43 67 67 67>
VStem: 43 247
LayerCount: 2
Fore
SplineSet
290 -30 m 1
 266 -30 l 1
 43 750 l 1
 67 750 l 1
 290 -30 l 1
EndSplineSet
Validated: 1
EndChar

StartChar: periodcentered
Encoding: 112 183 242
Width: 184
Flags: MW
HStem: 192 115<70 94 70 94>
VStem: 70 24<192 307 192 307>
LayerCount: 2
Fore
SplineSet
70 192 m 1
 70 307 l 1
 76 309 88 309 94 307 c 1
 94 192 l 1
 88 190 76 190 70 192 c 1
EndSplineSet
Validated: 1
EndChar

StartChar: bullet
Encoding: 395 8226 243
Width: 214
Flags: MW
HStem: 218 175<90 124 90 124>
VStem: 90 34<218 393 218 393>
LayerCount: 2
Fore
SplineSet
90 218 m 1
 90 393 l 1
 101 396 113 396 124 393 c 1
 124 218 l 1
 113 215 101 215 90 218 c 1
EndSplineSet
Validated: 33
EndChar

StartChar: colon
Encoding: 26 58 244
Width: 156
Flags: MW
HStem: 0 115<50 74 50 74> 401 115<50 74 50 74>
VStem: 50 24<0 115 0 115 401 516>
LayerCount: 2
Fore
SplineSet
50 401 m 1
 50 516 l 1
 56 518 68 518 74 516 c 1
 74 401 l 1
 68 399 56 399 50 401 c 1
50 0 m 1
 50 115 l 1
 56 117 68 117 74 115 c 1
 74 0 l 1
 68 -2 56 -2 50 0 c 1
EndSplineSet
Validated: 1
EndChar

StartChar: comma
Encoding: 12 44 245
Width: 156
Flags: MW
HStem: -165 280<12 102 12 102>
VStem: 83.29 23.56
LayerCount: 2
Fore
SplineSet
12 -165 m 1
 72 -62 95 10 78 106 c 1
 84 111 95 115 102 115 c 1
 117 11 99 -58 35 -165 c 1
 12 -165 l 1
EndSplineSet
Validated: 33
EndChar

StartChar: ellipsis
Encoding: 396 8230 246
Width: 542
Flags: MW
HStem: 0 115<50 74 50 74 240 264 430 454>
VStem: 50 24<0 115 0 115> 240 24<0 115 0 115> 430 24<0 115 0 115>
LayerCount: 2
Fore
SplineSet
50 0 m 1
 50 115 l 1
 56 117 68 117 74 115 c 1
 74 0 l 1
 68 -2 56 -2 50 0 c 1
240 0 m 1
 240 115 l 1
 246 117 258 117 264 115 c 1
 264 0 l 1
 258 -2 246 -2 240 0 c 1
430 0 m 1
 430 115 l 1
 436 117 448 117 454 115 c 1
 454 0 l 1
 448 -2 436 -2 430 0 c 1
EndSplineSet
Validated: 1
EndChar

StartChar: exclam
Encoding: 1 33 247
Width: 226
Flags: MW
HStem: 0 115<91 115 91 115> 720 20G<100 126 126 126>
VStem: 91 24<0 115 0 115> 101.5 23
LayerCount: 2
Fore
SplineSet
103 210 m 1xd0
 100 740 l 1
 126 740 l 1
 123 210 l 1
 103 210 l 1xd0
91 0 m 1xe0
 91 115 l 1
 97 117 109 117 115 115 c 1
 115 0 l 1
 109 -2 97 -2 91 0 c 1xe0
EndSplineSet
Validated: 1
EndChar

StartChar: exclamdown
Encoding: 95 161 248
Width: 226
Flags: MW
HStem: 401 115<111 135 111 135>
VStem: 101.5 23 111 24<401 516 401 516>
LayerCount: 2
Fore
SplineSet
135 516 m 1xa0
 135 401 l 1
 129 399 117 399 111 401 c 1
 111 516 l 1
 117 518 129 518 135 516 c 1xa0
123 306 m 1xc0
 126 -224 l 1
 100 -224 l 1
 103 306 l 1
 123 306 l 1xc0
EndSplineSet
Validated: 1
EndChar

StartChar: numbersign
Encoding: 3 35 249
Width: 540
Flags: MW
HStem: 0 21G<114 137 114 114 253 276 253 253> 260 22<76 168 76 172 195 306 76 191 334 439> 409 22<101 199 101 203 101 222 226 338 365 464>
VStem: 76 388<260 409 282 409>
LayerCount: 2
Fore
SplineSet
464 409 m 1
 361 409 l 1
 334 282 l 1
 439 282 l 1
 439 260 l 1
 330 260 l 1
 276 0 l 1
 253 0 l 1
 306 260 l 1
 191 260 l 1
 137 0 l 1
 114 0 l 1
 168 260 l 1
 76 260 l 1
 76 282 l 1
 172 282 l 1
 199 409 l 1
 101 409 l 1
 101 431 l 1
 203 431 l 1
 257 690 l 1
 280 690 l 1
 226 431 l 1
 342 431 l 1
 396 690 l 1
 419 690 l 1
 365 431 l 1
 464 431 l 1
 464 409 l 1
311 282 m 1
 338 409 l 1
 222 409 l 1
 195 282 l 1
 311 282 l 1
EndSplineSet
Validated: 1
EndChar

StartChar: period
Encoding: 14 46 250
Width: 162
Flags: MW
HStem: 0 115<50 74 50 74>
VStem: 50 24<0 115 0 115>
LayerCount: 2
Fore
SplineSet
50 0 m 1
 50 115 l 1
 56 117 68 117 74 115 c 1
 74 0 l 1
 68 -2 56 -2 50 0 c 1
EndSplineSet
Validated: 1
EndChar

StartChar: question
Encoding: 31 63 251
Width: 449
Flags: MW
HStem: 0 115<179 203 179 203> 731 23<169.5 247.5>
VStem: 179 24<0 115 0 115> 190 22<210 363 210 381 210 381> 366 26<526.5 625.5>
LayerCount: 2
Fore
SplineSet
392 577 m 0xd8
 392 469 313 393 212 363 c 1
 212 210 l 1
 190 210 l 1
 190 381 l 1
 292 409 366 478 366 575 c 0
 366 676 295 731 200 731 c 0
 139 731 94 710 51 674 c 1
 37 691 l 1
 82 731 139 754 200 754 c 0
 316 754 392 685 392 577 c 0xd8
179 115 m 1xe8
 185 117 197 117 203 115 c 1
 203 0 l 1
 197 -2 185 -2 179 0 c 1
 179 115 l 1xe8
EndSplineSet
Validated: 1
EndChar

StartChar: questiondown
Encoding: 115 191 252
Width: 409
Flags: MW
HStem: -238 23<201.5 279.5 201.5 279.5> 401 115<246 270 246 270>
VStem: 57 26<-109.5 -10.5 -109.5 -7> 237 22<153 306 135 306> 246 24<401 516>
LayerCount: 2
Fore
SplineSet
270 401 m 1xe8
 264 399 252 399 246 401 c 1
 246 516 l 1
 252 518 264 518 270 516 c 1
 270 401 l 1xe8
398 -158 m 1
 412 -175 l 1
 367 -215 310 -238 249 -238 c 0
 133 -238 57 -169 57 -61 c 0
 57 47 136 123 237 153 c 1
 237 306 l 1
 259 306 l 1
 259 135 l 1xf0
 157 107 83 38 83 -59 c 0
 83 -160 154 -215 249 -215 c 0
 310 -215 355 -194 398 -158 c 1
EndSplineSet
Validated: 1
EndChar

StartChar: quotedbl
Encoding: 2 34 253
Width: 192
Flags: MW
HStem: 455 266.5
VStem: 40 22 130 22
LayerCount: 2
Fore
SplineSet
41 455 m 1
 39 720 l 1
 45 722 57 722 63 720 c 1
 61 455 l 1
 41 455 l 1
131 455 m 1
 129 720 l 1
 135 722 147 722 153 720 c 1
 151 455 l 1
 131 455 l 1
EndSplineSet
Validated: 1
EndChar

StartChar: quotesingle
Encoding: 7 39 254
Width: 102
Flags: MW
HStem: 455 266.5
VStem: 40 22
LayerCount: 2
Fore
SplineSet
41 455 m 1
 39 720 l 1
 45 722 57 722 63 720 c 1
 61 455 l 1
 41 455 l 1
EndSplineSet
Validated: 1
EndChar

StartChar: semicolon
Encoding: 27 59 255
Width: 156
Flags: MW
HStem: 401 115<52 76 52 76>
VStem: 52 24<401 516 401 516> 65.29 23.56
LayerCount: 2
Fore
SplineSet
52 401 m 1xc0
 52 516 l 1
 58 518 70 518 76 516 c 1
 76 401 l 1
 70 399 58 399 52 401 c 1xc0
-6 -165 m 1xa0
 54 -62 77 10 60 106 c 1
 66 111 77 115 84 115 c 1
 99 11 81 -58 17 -165 c 1
 -6 -165 l 1xa0
EndSplineSet
Validated: 33
EndChar

StartChar: slash
Encoding: 15 47 256
Width: 333
Flags: MW
HStem: 730 20G<266 290 290 290>
VStem: 43 247
LayerCount: 2
Fore
SplineSet
43 -30 m 1
 266 750 l 1
 290 750 l 1
 67 -30 l 1
 43 -30 l 1
EndSplineSet
Validated: 1
EndChar

StartChar: underscore
Encoding: 63 95 257
Width: 500
Flags: MW
HStem: -52 22<92 408 92 408>
VStem: 92 316<-52 -30 -52 -30>
LayerCount: 2
Fore
SplineSet
92 -52 m 1
 92 -30 l 1
 408 -30 l 1
 408 -52 l 1
 92 -52 l 1
EndSplineSet
Validated: 1
EndChar

StartChar: braceleft
Encoding: 91 123 258
Width: 318
Flags: MW
HStem: -89 22<264 265 265 276> 733 22<241 276 265 276 265 276>
VStem: 106 22 170 24<-3.5 37.5 -3.5 39.5 628.5 669.5> 185 24<212 252 414 454>
LayerCount: 2
Fore
SplineSet
264 733 m 2xd0
 218 733 194 703 194 636 c 0xd0
 194 621 195 603 200 558 c 0
 206 506 209 476 209 443 c 0
 209 382 186 340 128 333 c 1
 186 326 209 284 209 223 c 0xe8
 209 190 206 160 200 108 c 0
 195 63 194 45 194 30 c 0
 194 -37 218 -71 264 -67 c 1
 276 -67 l 1
 276 -89 l 1
 265 -89 l 2
 215 -89 170 -65 170 32 c 0xd0
 170 47 171 67 177 118 c 0
 183 173 185 200 185 224 c 0
 185 280 166 315 106 321 c 1
 106 345 l 1
 166 351 185 386 185 442 c 0xe8
 185 466 183 493 177 548 c 0
 171 599 170 619 170 634 c 0
 170 731 215 755 265 755 c 2
 276 755 l 1
 276 733 l 1
 264 733 l 2xd0
EndSplineSet
Validated: 33
EndChar

StartChar: braceright
Encoding: 93 125 259
Width: 318
Flags: MW
HStem: -89 22<42 53 42 54> 733 22<42 53 53 54 42 53>
VStem: 109 24<212 252 212 253.5 414 454> 124 24<-3.5 37.5 628.5 669.5> 190 22
LayerCount: 2
Fore
SplineSet
133 442 m 0xe0
 133 386 152 351 212 345 c 1
 212 321 l 1
 152 315 133 280 133 224 c 0xe8
 133 200 135 173 141 118 c 0
 147 67 148 47 148 32 c 0
 148 -65 103 -89 53 -89 c 2
 42 -89 l 1
 42 -67 l 1
 54 -67 l 2
 100 -67 124 -37 124 30 c 0xd0
 124 45 123 63 118 108 c 0
 112 160 109 190 109 223 c 0
 109 284 132 326 190 333 c 1
 132 340 109 382 109 443 c 0xe8
 109 476 112 506 118 558 c 0
 123 603 124 621 124 636 c 0
 124 703 100 737 54 733 c 1
 42 733 l 1
 42 755 l 1
 53 755 l 2
 103 755 148 731 148 634 c 0xd0
 148 619 147 599 141 548 c 0
 135 493 133 466 133 442 c 0xe0
EndSplineSet
Validated: 33
EndChar

StartChar: bracketleft
Encoding: 59 91 260
Width: 274
Flags: MW
HStem: -80 22<134 242 134 242> 724 22<110 242 134 242 134 134>
VStem: 110 24<-58 724 -58 724 -58 746 -58 746>
LayerCount: 2
Fore
SplineSet
242 724 m 1
 134 724 l 1
 134 -58 l 1
 242 -58 l 1
 242 -80 l 1
 110 -80 l 1
 110 724 l 1
 110 746 l 1
 242 746 l 1
 242 724 l 1
EndSplineSet
Validated: 1
EndChar

StartChar: bracketright
Encoding: 61 93 261
Width: 274
Flags: MW
HStem: -80 22<32 140 32 164 32 140> 724 22<32 140 32 164>
VStem: 140 24<-58 724 724 724>
LayerCount: 2
Fore
SplineSet
164 746 m 1
 164 -58 l 1
 164 -80 l 1
 32 -80 l 1
 32 -58 l 1
 140 -58 l 1
 140 724 l 1
 32 724 l 1
 32 746 l 1
 164 746 l 1
EndSplineSet
Validated: 1
EndChar

StartChar: parenleft
Encoding: 8 40 262
Width: 298
Flags: MW
HStem: 723 20G<271 271> 740 20G<253 253>
VStem: 98 24<241 439 241 449>
LayerCount: 2
Fore
SplineSet
253 -80 m 1x60
 161 13 98 122 98 340 c 0
 98 558 161 667 253 760 c 1x60
 271 743 l 1xa0
 173 639 122 538 122 340 c 0
 122 142 175 31 271 -63 c 1
 253 -80 l 1x60
EndSplineSet
Validated: 1
EndChar

StartChar: parenright
Encoding: 9 41 263
Width: 298
Flags: MW
HStem: 723 20G<27 27> 740 20G<45 45>
VStem: 176 24<241 439>
LayerCount: 2
Fore
SplineSet
45 760 m 1x60
 137 667 200 558 200 340 c 0
 200 122 137 13 45 -80 c 1
 27 -63 l 1
 125 41 176 142 176 340 c 0
 176 538 123 649 27 743 c 1xa0
 45 760 l 1x60
EndSplineSet
Validated: 1
EndChar

StartChar: emdash
Encoding: 386 8212 264
Width: 1000
Flags: MW
HStem: 280 22<92 908 92 908>
VStem: 92 816<280 302 280 302>
LayerCount: 2
Fore
SplineSet
92 280 m 1
 92 302 l 1
 908 302 l 1
 908 280 l 1
 92 280 l 1
EndSplineSet
Validated: 1
EndChar

StartChar: endash
Encoding: 385 8211 265
Width: 500
Flags: MW
HStem: 280 22<92 408 92 408>
VStem: 92 316<280 302 280 302>
LayerCount: 2
Fore
SplineSet
92 280 m 5
 92 302 l 5
 408 302 l 5
 408 280 l 5
 92 280 l 5
EndSplineSet
Validated: 1
EndChar

StartChar: hyphen
Encoding: 13 45 266
Width: 388
Flags: MW
HStem: 280 22<92 296 92 296>
VStem: 92 204<280 302 280 302>
LayerCount: 2
Fore
SplineSet
92 280 m 5
 92 302 l 5
 296 302 l 5
 296 280 l 5
 92 280 l 5
EndSplineSet
Validated: 1
EndChar

StartChar: guillemotleft
Encoding: 104 171 267
Width: 494
Flags: MW
HStem: 88 321<249 249 249 419>
VStem: 88 346<102 248>
LayerCount: 2
Fore
SplineSet
249 88 m 1
 88 248 l 1
 249 409 l 1
 264 394 l 1
 119 248 l 1
 264 102 l 1
 249 88 l 1
419 88 m 1
 258 248 l 1
 419 409 l 1
 434 394 l 1
 289 248 l 1
 434 102 l 1
 419 88 l 1
EndSplineSet
Validated: 1
EndChar

StartChar: guillemotright
Encoding: 114 187 268
Width: 494
Flags: MW
HStem: 87 321<75 75 75 245>
VStem: 60 346<102 248 248 394>
LayerCount: 2
Fore
SplineSet
75 408 m 1
 236 248 l 1
 75 87 l 1
 60 102 l 1
 205 248 l 1
 60 394 l 1
 75 408 l 1
245 408 m 1
 406 248 l 1
 245 87 l 1
 230 102 l 1
 375 248 l 1
 230 394 l 1
 245 408 l 1
EndSplineSet
Validated: 1
EndChar

StartChar: guilsinglleft
Encoding: 398 8249 269
Width: 324
Flags: MW
HStem: 88 321<249 249>
VStem: 88 176<102 248>
LayerCount: 2
Fore
SplineSet
249 88 m 1
 88 248 l 1
 249 409 l 1
 264 394 l 1
 119 248 l 1
 264 102 l 1
 249 88 l 1
EndSplineSet
Validated: 1
EndChar

StartChar: guilsinglright
Encoding: 399 8250 270
Width: 324
Flags: MW
HStem: 87 321<75 75>
VStem: 60 176<102 248 248 394>
LayerCount: 2
Fore
SplineSet
75 408 m 1
 236 248 l 1
 75 87 l 1
 60 102 l 1
 205 248 l 1
 60 394 l 1
 75 408 l 1
EndSplineSet
Validated: 1
EndChar

StartChar: quotedblbase
Encoding: 392 8222 271
Width: 256
Flags: MW
HStem: -165 280<12 102 12 102 98.5 135 98.5 112>
VStem: 83.29 23.56 183.29 23.56
LayerCount: 2
Fore
SplineSet
12 -165 m 1
 72 -62 95 10 78 106 c 1
 84 111 95 115 102 115 c 1
 117 11 99 -58 35 -165 c 1
 12 -165 l 1
112 -165 m 1
 172 -62 195 10 178 106 c 1
 184 111 195 115 202 115 c 1
 217 11 199 -58 135 -165 c 1
 112 -165 l 1
EndSplineSet
Validated: 33
EndChar

StartChar: quotedblleft
Encoding: 390 8220 272
Width: 278
Flags: MW
HStem: 720 20G<143 166 166 166 243 266 266 266>
VStem: 71.13 23.57 171.13 23.57
LayerCount: 2
Fore
SplineSet
166 740 m 1
 106 637 83 565 100 469 c 1
 94 464 83 460 76 460 c 1
 61 564 79 633 143 740 c 1
 166 740 l 1
266 740 m 1
 206 637 183 565 200 469 c 1
 194 464 183 460 176 460 c 1
 161 564 179 633 243 740 c 1
 266 740 l 1
EndSplineSet
Validated: 33
EndChar

StartChar: quotedblright
Encoding: 391 8221 273
Width: 278
Flags: MW
HStem: 734 20G<98.5 102 198.5 202> 745 9
VStem: 83.29 23.56 183.29 23.56
LayerCount: 2
Fore
SplineSet
12 474 m 1xb0
 72 577 95 649 78 745 c 1x70
 84 750 95 754 102 754 c 1
 117 650 99 581 35 474 c 1
 12 474 l 1xb0
112 474 m 1
 172 577 195 649 178 745 c 1x70
 184 750 195 754 202 754 c 1
 217 650 199 581 135 474 c 1
 112 474 l 1
EndSplineSet
Validated: 33
EndChar

StartChar: quoteleft
Encoding: 387 8216 274
Width: 178
Flags: MW
HStem: 720 20G<143 166 166 166>
VStem: 71.13 23.57
LayerCount: 2
Fore
SplineSet
166 740 m 1
 106 637 83 565 100 469 c 1
 94 464 83 460 76 460 c 1
 61 564 79 633 143 740 c 1
 166 740 l 1
EndSplineSet
Validated: 33
EndChar

StartChar: quoteright
Encoding: 388 8217 275
Width: 178
Flags: MW
HStem: 734 20G<98.5 102>
VStem: 83.29 23.56
LayerCount: 2
Fore
SplineSet
12 474 m 1
 72 577 95 649 78 745 c 1
 84 750 95 754 102 754 c 1
 117 650 99 581 35 474 c 1
 12 474 l 1
EndSplineSet
Validated: 33
EndChar

StartChar: quotesinglbase
Encoding: 389 8218 276
Width: 156
Flags: MW
HStem: -165 280<12 102 12 102>
VStem: 83.29 23.56
LayerCount: 2
Fore
SplineSet
12 -165 m 1
 72 -62 95 10 78 106 c 1
 84 111 95 115 102 115 c 1
 117 11 99 -58 35 -165 c 1
 12 -165 l 1
EndSplineSet
Validated: 33
EndChar

StartChar: cent
Encoding: 96 162 278
Width: 540
GlyphClass: 2
Flags: MW
HStem: 22 23<274 274 298 298> 507 21<274 274 274 328> 507 23<298 306 306 328>
VStem: 92 24<196.5 350 196.5 352> 274 24<-64 22 -64 22 530 620>
LayerCount: 2
Fore
SplineSet
423 77 m 1xb8
 431 59 l 1
 387 35 351 24 298 22 c 1
 298 -64 l 1
 274 -64 l 1
 274 22 l 1
 160 27 92 106 92 271 c 0
 92 433 159 516 274 528 c 1
 274 620 l 1
 298 620 l 1xd8
 298 530 l 1
 306 530 l 2
 356 530 402 522 434 508 c 1
 426 487 l 1
 394 501 350 507 306 507 c 0
 183 507 116 428 116 272 c 0
 116 121 175 45 285 45 c 0
 336 45 379 55 423 77 c 1xb8
EndSplineSet
Validated: 1
EndChar

StartChar: currency
Encoding: 98 164 279
Width: 540
GlyphClass: 2
Flags: MW
HStem: 121 22<247 293> 459 22<247 293 247 314.5>
VStem: 94 24<277 325> 422 24<277 325 277 346>
LayerCount: 2
Fore
SplineSet
446 301 m 0
 446 253 430 211 403 180 c 1
 460 123 l 1
 444 107 l 1
 387 164 l 1
 356 137 316 121 270 121 c 0
 224 121 184 137 153 164 c 1
 96 107 l 1
 80 123 l 1
 137 180 l 1
 110 211 94 253 94 301 c 0
 94 349 110 391 137 422 c 1
 80 479 l 1
 96 495 l 1
 153 438 l 1
 184 465 224 481 270 481 c 0
 316 481 356 465 387 438 c 1
 444 495 l 1
 460 479 l 1
 403 422 l 1
 430 391 446 349 446 301 c 0
270 143 m 0
 359 143 422 211 422 301 c 0
 422 391 359 459 270 459 c 0
 181 459 118 391 118 301 c 0
 118 211 181 143 270 143 c 0
EndSplineSet
Validated: 1
EndChar

StartChar: dollar
Encoding: 4 36 280
Width: 540
GlyphClass: 2
Flags: MW
HStem: 23 24<259 259> 686 24<289 312.5>
VStem: 111 25<518 597 518 600.5> 259 24<-68 23 23 23> 264 25<710 801 710 801 710 801> 429 25<137.5 216.5>
LayerCount: 2
Fore
SplineSet
454 183 m 0xf4
 454 91 376 31 283 24 c 1
 283 -68 l 1
 259 -68 l 1
 259 23 l 1xf4
 198 24 131 43 86 75 c 1
 96 95 l 1
 142 66 198 47 264 47 c 0
 349 47 429 92 429 183 c 0
 429 250 390 291 280 355 c 0
 170 418 111 464 111 552 c 0
 111 649 188 700 264 709 c 1
 264 801 l 1
 289 801 l 1
 289 710 l 1xec
 341 710 394 698 439 671 c 1
 430 651 l 1
 387 675 341 686 284 686 c 0
 207 686 136 640 136 554 c 0
 136 482 180 442 294 376 c 0
 415 306 454 256 454 183 c 0xf4
EndSplineSet
Validated: 1
EndChar

StartChar: Euro
Encoding: 401 8364 281
Width: 540
GlyphClass: 2
Flags: MW
HStem: -15 22<275.5 355> 289 23<18 96 18 98 13 96 122 371 122 122> 429 22<36 97 31 99 123 388> 732 22<276.5 368.5>
VStem: 95 24<359 379.5> 98 24<289 289>
LayerCount: 2
Fore
SplineSet
336 732 m 0xf8
 217 732 140 632 123 451 c 1
 394 451 l 1
 388 429 l 1
 121 429 l 1
 120 410 119 390 119 369 c 0
 119 349 119 330 120 312 c 1xf8
 375 312 l 1
 371 289 l 1
 122 289 l 1xf4
 138 86 218 7 333 7 c 0
 390 7 439 22 483 50 c 1
 480 25 l 1
 431 -5 382 -15 328 -15 c 0
 200 -15 115 78 98 289 c 1
 13 289 l 1
 18 312 l 1
 96 312 l 1
 95 330 95 349 95 369 c 0
 95 390 96 410 97 429 c 1
 31 429 l 1
 36 451 l 1
 99 451 l 1
 118 652 209 754 338 754 c 0
 410 754 466 725 501 688 c 1
 486 669 l 1
 452 706 401 732 336 732 c 0xf8
EndSplineSet
Validated: 1
EndChar

StartChar: sterling
Encoding: 97 163 282
Width: 540
GlyphClass: 2
Flags: MW
HStem: 0 22<123 482 123 482> 342 23<75 172 75 176 75 172 200 200 200 409> 731 23<295.5 362.5>
VStem: 151 24<510 602.5 505 603> 193 24<152 203.5>
LayerCount: 2
Fore
SplineSet
123 22 m 1
 482 22 l 1
 482 0 l 1
 66 0 l 1
 66 19 l 1
 137 30 193 102 193 186 c 0
 193 221 189 266 176 342 c 1xf8
 75 342 l 1
 75 365 l 1
 172 365 l 1
 159 440 151 484 151 536 c 0
 151 670 229 754 338 754 c 0
 396 754 446 731 476 690 c 1
 464 676 l 1
 429 711 387 731 338 731 c 0
 253 731 175 672 175 533 c 0
 175 477 184 437 196 365 c 1xf0
 409 365 l 1
 409 342 l 1
 200 342 l 1
 211 276 217 232 217 189 c 0
 217 115 184 50 123 22 c 1
EndSplineSet
Validated: 1
EndChar

StartChar: yen
Encoding: 99 165 283
Width: 540
GlyphClass: 2
Flags: MW
HStem: 0 21G<250 274 250 250> 220 22<85 250 85 250 274 449> 330 22<85 236 85 248 85 236 291 449> 720 20G<28 56 56 56 481 512 512 512>
VStem: 250 24<0 220 0 220 242 323>
LayerCount: 2
Fore
SplineSet
512 740 m 1
 291 352 l 1
 449 352 l 1
 449 330 l 1
 278 330 l 1
 274 323 l 1
 274 242 l 1
 449 242 l 1
 449 220 l 1
 274 220 l 1
 274 0 l 1
 250 0 l 1
 250 220 l 1
 85 220 l 1
 85 242 l 1
 250 242 l 1
 250 325 l 1
 248 330 l 1
 85 330 l 1
 85 352 l 1
 236 352 l 1
 28 740 l 1
 56 740 l 1
 261 352 l 1
 263 347 l 1
 481 740 l 1
 512 740 l 1
EndSplineSet
Validated: 1
EndChar

StartChar: approxequal
Encoding: 411 8776 284
Width: 600
GlyphClass: 2
Flags: MW
HStem: 212 22<382.5 402.5 382.5 413> 287 22<189.5 209.5> 332 22<382.5 402.5 382.5 413> 407 22<189.5 209.5>
VStem: 130 332<252 269 269 372>
LayerCount: 2
Fore
SplineSet
390 332 m 0
 365 332 343 340 289 371 c 0
 244 396 221 407 198 407 c 0
 181 407 165 397 152 366 c 1
 130 372 l 1
 136 396 156 429 202 429 c 0
 227 429 249 421 303 390 c 0
 348 365 371 354 394 354 c 0
 411 354 427 364 440 395 c 1
 462 389 l 1
 456 365 436 332 390 332 c 0
390 212 m 0
 365 212 343 220 289 251 c 0
 244 276 221 287 198 287 c 0
 181 287 165 277 152 246 c 1
 130 252 l 1
 136 276 156 309 202 309 c 0xf8
 227 309 249 301 303 270 c 0
 348 245 371 234 394 234 c 0
 411 234 427 244 440 275 c 1
 462 269 l 1
 456 245 436 212 390 212 c 0
EndSplineSet
Validated: 1
EndChar

StartChar: asciitilde
Encoding: 94 126 285
Width: 579
GlyphClass: 2
Flags: MW
HStem: 242 22<393.5 420 393.5 428> 315 22<159 185.5>
VStem: 97 22<250 273.5 250 279> 460 22<305.5 329>
LayerCount: 2
Fore
SplineSet
406 242 m 0
 372 242 340 254 278 282 c 0
 227 305 198 315 173 315 c 0
 145 315 119 297 119 250 c 1
 97 250 l 1
 97 308 129 337 173 337 c 0
 207 337 239 325 301 297 c 0
 352 274 381 264 406 264 c 0
 434 264 460 282 460 329 c 1
 482 329 l 1
 482 271 450 242 406 242 c 0
EndSplineSet
Validated: 1
EndChar

StartChar: divide
Encoding: 171 247 286
Width: 600
GlyphClass: 2
Flags: MW
HStem: 91 115<278 302 278 302> 288 22<80 500 80 500> 392 115<278 302 278 302>
VStem: 278 24<91 206 91 206 392 507>
LayerCount: 2
Fore
SplineSet
278 392 m 1
 278 507 l 1
 284 510 296 510 302 507 c 1
 302 392 l 1
 296 389 284 389 278 392 c 1
80 288 m 1
 80 310 l 1
 500 310 l 1
 500 288 l 1
 80 288 l 1
278 91 m 1
 278 206 l 1
 284 209 296 209 302 206 c 1
 302 91 l 1
 296 88 284 88 278 91 c 1
EndSplineSet
Validated: 1
EndChar

StartChar: emptyset
Encoding: 404 8709 287
Width: 838
GlyphClass: 2
Flags: MW
HStem: -15 22<373.5 511.5 373.5 518> 703 22<326.5 464.5>
VStem: 55 24<309 454.5 309 460.5> 759 24<255.5 401>
LayerCount: 2
Fore
SplineSet
687 606 m 1
 747 541 783 454 783 355 c 0
 783 144 617 -15 419 -15 c 0
 322 -15 233 23 167 86 c 1
 94 13 l 1
 77 30 l 1
 151 104 l 1
 91 169 55 256 55 355 c 0
 55 566 221 725 419 725 c 0
 516 725 605 687 671 624 c 1
 744 697 l 1
 761 680 l 1
 687 606 l 1
79 355 m 0
 79 263 112 181 167 120 c 1
 654 607 l 1
 593 667 510 703 419 703 c 0
 234 703 79 554 79 355 c 0
419 7 m 0
 604 7 759 156 759 355 c 0
 759 447 726 529 671 590 c 1
 184 103 l 1
 245 43 328 7 419 7 c 0
EndSplineSet
Validated: 1
EndChar

StartChar: equal
Encoding: 29 61 288
Width: 592
GlyphClass: 2
Flags: MW
HStem: 207 22<118 474 118 474> 351 22<118 474 118 474>
VStem: 118 356<207 229 207 229 351 373 207 373>
LayerCount: 2
Fore
SplineSet
118 351 m 1
 118 373 l 1
 474 373 l 1
 474 351 l 1
 118 351 l 1
118 207 m 1
 118 229 l 1
 474 229 l 1
 474 207 l 1
 118 207 l 1
EndSplineSet
Validated: 1
EndChar

StartChar: greater
Encoding: 30 62 289
Width: 459
GlyphClass: 2
Flags: MW
HStem: 70 390<55 55>
VStem: 358 28<265 265>
LayerCount: 2
Fore
SplineSet
55 460 m 1
 386 274 l 1
 386 256 l 1
 55 70 l 1
 55 98 l 1
 358 265 l 1
 55 432 l 1
 55 460 l 1
EndSplineSet
Validated: 1
EndChar

StartChar: greaterequal
Encoding: 414 8805 290
Width: 600
GlyphClass: 2
Flags: MW
HStem: 0 22<90 510 90 510>
VStem: 90 420<0 22 0 22 0 130 0 130>
LayerCount: 2
Fore
SplineSet
90 513 m 1
 510 317 l 1
 510 299 l 1
 90 103 l 1
 90 130 l 1
 476 308 l 1
 90 485 l 1
 90 513 l 1
90 0 m 1
 90 22 l 1
 510 22 l 1
 510 0 l 1
 90 0 l 1
EndSplineSet
Validated: 1
EndChar

StartChar: infinity
Encoding: 409 8734 291
Width: 985
GlyphClass: 2
Flags: MW
HStem: 69 22<207 300 690 778> 445 22<207 295 685 778>
VStem: 71 24<222.5 311 222.5 321> 890 24<225 313.5>
LayerCount: 2
Fore
SplineSet
727 467 m 0
 845 467 914 374 914 268 c 0
 914 162 835 69 727 69 c 0
 653 69 564 115 491 242 c 1
 414 115 342 69 258 69 c 0
 140 69 71 162 71 268 c 0
 71 374 150 467 258 467 c 0
 332 467 421 421 494 294 c 1
 571 421 643 467 727 467 c 0
258 91 m 0
 346 91 428 164 478 268 c 1
 425 388 332 445 258 445 c 0
 156 445 95 354 95 268 c 0
 95 177 156 91 258 91 c 0
727 91 m 0
 829 91 890 182 890 268 c 0
 890 359 829 445 727 445 c 0
 639 445 557 372 507 268 c 1
 560 148 653 91 727 91 c 0
EndSplineSet
Validated: 1
EndChar

StartChar: integral
Encoding: 410 8747 292
Width: 401
GlyphClass: 2
Flags: MW
HStem: -160 22<164 190.5 164 194> 742 22<210.5 237>
VStem: 150 24<592 668.5 592 678.5> 227 24<-64.5 12>
LayerCount: 2
Fore
SplineSet
171 -160 m 0
 149 -160 126 -150 110 -132 c 1
 123 -117 l 1
 139 -133 156 -138 172 -138 c 0
 209 -138 227 -104 227 -25 c 0
 227 49 221 114 189 299 c 0
 158 484 150 553 150 629 c 0
 150 728 184 764 230 764 c 0
 252 764 275 754 291 736 c 1
 278 721 l 1
 262 737 245 742 229 742 c 0
 192 742 174 708 174 629 c 0
 174 555 180 490 212 305 c 0
 243 120 251 51 251 -25 c 0
 251 -124 217 -160 171 -160 c 0
EndSplineSet
Validated: 1
EndChar

StartChar: less
Encoding: 28 60 293
Width: 459
GlyphClass: 2
Flags: MW
HStem: 70 390<404 404>
VStem: 73 28<265 265 265 274 265 274>
LayerCount: 2
Fore
SplineSet
404 460 m 1
 404 432 l 1
 101 265 l 1
 404 98 l 1
 404 70 l 1
 73 256 l 1
 73 274 l 1
 404 460 l 1
EndSplineSet
Validated: 1
EndChar

StartChar: lessequal
Encoding: 413 8804 294
Width: 600
GlyphClass: 2
Flags: MW
HStem: 0 22<90 510 90 510>
VStem: 90 420<0 22 0 22 0 317 0 317>
LayerCount: 2
Fore
SplineSet
510 513 m 1
 510 485 l 1
 124 308 l 1
 510 130 l 1
 510 103 l 1
 90 299 l 1
 90 317 l 1
 510 513 l 1
90 0 m 1
 90 22 l 1
 510 22 l 1
 510 0 l 1
 90 0 l 1
EndSplineSet
Validated: 1
EndChar

StartChar: logicalnot
Encoding: 105 172 295
Width: 600
GlyphClass: 2
Flags: MW
HStem: 350 22<100 428 100 452>
VStem: 428 24<210 350 350 350>
LayerCount: 2
Fore
SplineSet
428 210 m 1
 428 350 l 1
 100 350 l 1
 100 372 l 1
 452 372 l 1
 452 210 l 1
 428 210 l 1
EndSplineSet
Validated: 1
EndChar

StartChar: minus
Encoding: 407 8722 296
Width: 600
GlyphClass: 2
Flags: MW
HStem: 308 22<80 500 80 500>
VStem: 80 420<308 330 308 330>
LayerCount: 2
Fore
SplineSet
80 308 m 1
 80 330 l 1
 500 330 l 1
 500 308 l 1
 80 308 l 1
EndSplineSet
Validated: 1
EndChar

StartChar: multiply
Encoding: 139 215 297
Width: 556
GlyphClass: 2
Flags: MW
HStem: 131 334<128 128 128 428>
VStem: 111 334<148 148 148 448>
LayerCount: 2
Fore
SplineSet
445 448 m 1
 295 298 l 1
 445 148 l 1
 428 131 l 1
 278 281 l 1
 128 131 l 1
 111 148 l 1
 261 298 l 1
 111 448 l 1
 128 465 l 1
 278 315 l 1
 428 465 l 1
 445 448 l 1
EndSplineSet
Validated: 1
EndChar

StartChar: notequal
Encoding: 412 8800 298
Width: 600
GlyphClass: 2
Flags: MW
HStem: 207 22<118 242 118 255 279 474 118 266> 351 22<118 323 118 336 360 474 118 347>
VStem: 118 356<207 229 207 229 351 373 207 373>
LayerCount: 2
Fore
SplineSet
474 351 m 1
 347 351 l 1
 279 229 l 1
 474 229 l 1
 474 207 l 1
 266 207 l 1
 198 85 l 1
 174 85 l 1
 242 207 l 1
 118 207 l 1
 118 229 l 1
 255 229 l 1
 323 351 l 1
 118 351 l 1
 118 373 l 1
 336 373 l 1
 404 495 l 1
 428 495 l 1
 360 373 l 1
 474 373 l 1
 474 351 l 1
EndSplineSet
Validated: 1
EndChar

StartChar: partialdiff
Encoding: 403 8706 299
Width: 600
GlyphClass: 2
Flags: MW
HStem: -14 23<220 327.5 220 341.5> 448 23<237 324.5> 735 23<226 321.5>
VStem: 88 26<163.5 293.5 163.5 298> 459 23
LayerCount: 2
Fore
SplineSet
250 758 m 0
 428 758 482 608 482 343 c 0
 482 128 409 -14 274 -14 c 0
 155 -14 88 80 88 225 c 0
 88 371 170 471 285 471 c 0
 373 471 441 419 459 347 c 1
 460 618 394 735 249 735 c 0
 203 735 169 727 136 709 c 1
 128 729 l 1
 167 750 201 758 250 758 c 0
275 9 m 0
 380 9 452 112 457 295 c 1
 443 395 364 448 285 448 c 0
 189 448 114 360 114 227 c 0
 114 100 165 9 275 9 c 0
EndSplineSet
Validated: 33
EndChar

StartChar: percent
Encoding: 5 37 300
Width: 682
GlyphClass: 2
Flags: MW
HStem: -14 22<458 526 458 534> 282 22<458 526> 436 22<156 224 156 232> 732 22<156 224>
VStem: 60 24<560 630.5 560 637> 296 24<560 630.5> 362 24<110 180.5 110 187> 598 24<110 180.5>
LayerCount: 2
Fore
SplineSet
190 436 m 0
 106 436 60 512 60 595 c 0
 60 679 106 754 190 754 c 0
 274 754 320 679 320 595 c 0
 320 512 274 436 190 436 c 0
79 -14 m 1
 575 754 l 1
 603 754 l 1
 107 -14 l 1
 79 -14 l 1
190 458 m 0
 258 458 296 525 296 595 c 0
 296 666 258 732 190 732 c 0
 122 732 84 666 84 595 c 0
 84 525 122 458 190 458 c 0
492 -14 m 0
 408 -14 362 62 362 145 c 0
 362 229 408 304 492 304 c 0
 576 304 622 229 622 145 c 0
 622 62 576 -14 492 -14 c 0
492 8 m 0
 560 8 598 75 598 145 c 0
 598 216 560 282 492 282 c 0
 424 282 386 216 386 145 c 0
 386 75 424 8 492 8 c 0
EndSplineSet
Validated: 1
EndChar

StartChar: perthousand
Encoding: 397 8240 301
Width: 1014
GlyphClass: 2
Flags: MW
HStem: -14 22<458 526 458 534 790 858> 282 22<458 526 790 858> 436 22<156 224 156 232> 732 22<156 224>
VStem: 60 24<560 630.5 560 637> 296 24<560 630.5> 362 24<110 180.5 110 187> 598 24<110 180.5> 694 24<110 180.5 110 187> 930 24<110 180.5>
LayerCount: 2
Fore
SplineSet
190 436 m 0
 106 436 60 512 60 595 c 0
 60 679 106 754 190 754 c 0
 274 754 320 679 320 595 c 0
 320 512 274 436 190 436 c 0
79 -14 m 1
 575 754 l 1
 603 754 l 1
 107 -14 l 1
 79 -14 l 1
190 458 m 0
 258 458 296 525 296 595 c 0
 296 666 258 732 190 732 c 0
 122 732 84 666 84 595 c 0
 84 525 122 458 190 458 c 0
492 -14 m 0
 408 -14 362 62 362 145 c 0
 362 229 408 304 492 304 c 0
 576 304 622 229 622 145 c 0
 622 62 576 -14 492 -14 c 0
824 -14 m 0
 740 -14 694 62 694 145 c 0
 694 229 740 304 824 304 c 0
 908 304 954 229 954 145 c 0
 954 62 908 -14 824 -14 c 0
492 8 m 0
 560 8 598 75 598 145 c 0
 598 216 560 282 492 282 c 0
 424 282 386 216 386 145 c 0
 386 75 424 8 492 8 c 0
824 8 m 0
 892 8 930 75 930 145 c 0
 930 216 892 282 824 282 c 0
 756 282 718 216 718 145 c 0
 718 75 756 8 824 8 c 0
EndSplineSet
Validated: 1
EndChar

StartChar: plus
Encoding: 11 43 302
Width: 592
GlyphClass: 2
Flags: MW
HStem: 322 22<71 284 71 284 308 521>
VStem: 284 24<78 322 78 322 344 588>
LayerCount: 2
Fore
SplineSet
521 344 m 1
 521 322 l 1
 308 322 l 1
 308 78 l 1
 284 78 l 1
 284 322 l 1
 71 322 l 1
 71 344 l 1
 284 344 l 1
 284 588 l 1
 308 588 l 1
 308 344 l 1
 521 344 l 1
EndSplineSet
Validated: 1
EndChar

StartChar: plusminus
Encoding: 109 177 303
Width: 580
GlyphClass: 2
Flags: MW
HStem: 0 22<90 490 90 490> 309 22<90 278 90 278 302 490> 500 20G<278 302 302 302>
VStem: 278 24<116 309 116 309 331 520>
LayerCount: 2
Fore
SplineSet
278 116 m 1
 278 309 l 1
 90 309 l 1
 90 331 l 1
 278 331 l 1
 278 520 l 1
 302 520 l 1
 302 331 l 1
 490 331 l 1
 490 309 l 1
 302 309 l 1
 302 116 l 1
 278 116 l 1
90 0 m 1
 90 22 l 1
 490 22 l 1
 490 0 l 1
 90 0 l 1
EndSplineSet
Validated: 1
EndChar

StartChar: product
Encoding: 405 8719 304
Width: 620
GlyphClass: 2
Flags: MW
HStem: 668 22<51 153 51 177 177 443 51 177 467 569>
VStem: 153 24<-110 668 -110 668> 443 24<-110 668 -110 668>
LayerCount: 2
Fore
SplineSet
569 690 m 1
 569 668 l 1
 467 668 l 1
 467 -110 l 1
 443 -110 l 1
 443 668 l 1
 177 668 l 1
 177 -110 l 1
 153 -110 l 1
 153 668 l 1
 51 668 l 1
 51 690 l 1
 177 690 l 1
 467 690 l 1
 569 690 l 1
EndSplineSet
Validated: 1
EndChar

StartChar: radical
Encoding: 408 8730 305
Width: 519
GlyphClass: 2
Flags: MW
HStem: -160 33<251 251 251 266 237 251> 288 22<44 103 44 122>
VStem: 44 448
LayerCount: 2
Fore
SplineSet
467 800 m 1
 492 800 l 1
 266 -160 l 1
 237 -160 l 1
 103 288 l 1
 44 288 l 1
 44 310 l 1
 122 310 l 1
 251 -127 l 1
 467 800 l 1
EndSplineSet
Validated: 1
EndChar

StartChar: summation
Encoding: 406 8721 306
Width: 600
GlyphClass: 2
Flags: MW
HStem: -110 22<77 536 77 536> 718 22<103 530 103 103>
VStem: 47 489<-110 -99 -99 -99>
LayerCount: 2
Fore
SplineSet
77 -88 m 1
 536 -88 l 1
 536 -110 l 1
 47 -110 l 1
 47 -99 l 1
 234 325 l 1
 74 729 l 1
 74 740 l 1
 530 740 l 1
 530 718 l 1
 103 718 l 1
 259 325 l 1
 77 -88 l 1
EndSplineSet
Validated: 1
EndChar

StartChar: lozenge
Encoding: 415 9674 307
Width: 532
GlyphClass: 2
Flags: MW
HStem: 0 25<266 266 266 279 253 266> 665 25<266 266>
VStem: 86 360<345 345>
LayerCount: 2
Fore
SplineSet
279 690 m 1
 446 345 l 1
 279 0 l 1
 253 0 l 1
 86 345 l 1
 253 690 l 1
 279 690 l 1
266 25 m 1
 418 345 l 1
 266 665 l 1
 114 345 l 1
 266 25 l 1
EndSplineSet
Validated: 1
EndChar

StartChar: bar
Encoding: 92 124 308
Width: 350
GlyphClass: 2
Flags: MW
HStem: -200 1000<163 187 163 187>
VStem: 163 24<-200 800 -200 800>
LayerCount: 2
Fore
SplineSet
163 -200 m 1
 163 800 l 1
 187 800 l 1
 187 -200 l 1
 163 -200 l 1
EndSplineSet
Validated: 1
EndChar

StartChar: brokenbar
Encoding: 100 166 309
Width: 350
GlyphClass: 2
Flags: MW
HStem: -160 850<163 187 163 187>
VStem: 163 24<-160 180 -160 180 350 690>
LayerCount: 2
Fore
SplineSet
163 350 m 1
 163 690 l 1
 187 690 l 1
 187 350 l 1
 163 350 l 1
163 -160 m 1
 163 180 l 1
 187 180 l 1
 187 -160 l 1
 163 -160 l 1
EndSplineSet
Validated: 1
EndChar

StartChar: at
Encoding: 32 64 310
Width: 1016
GlyphClass: 2
Flags: MW
HStem: -153 22<377.5 533.5 377.5 538> 54 22<437 504.5 437 505.5> 64 22<678 738.5 678 751> 492 22<467 538> 692 22<397.5 629.5>
VStem: 81 24<146.5 380.5 146.5 387> 322 26<206 347.5 206 356.5> 618.5 22.5 893 24<244.5 437.5 244.5 437.5>
LayerCount: 2
Fore
SplineSet
518 514 m 0xdf80
 572 514 605 504 641 480 c 1
 641 198 l 2
 641 111 662 86 694 86 c 0
 783 86 893 155 893 331 c 0
 893 544 738 692 521 692 c 0
 274 692 105 495 105 266 c 0
 105 27 270 -131 485 -131 c 0
 582 -131 689 -100 778 -46 c 1
 787 -62 l 1
 691 -122 592 -153 484 -153 c 0
 256 -153 81 9 81 265 c 0
 81 509 261 714 522 714 c 0
 767 714 917 544 917 331 c 0
 917 158 810 64 692 64 c 0xbf80
 655 64 626 87 620 137 c 1
 584 87 536 54 475 54 c 0
 388 54 322 116 322 270 c 0
 322 443 406 514 518 514 c 0xdf80
477 76 m 0
 532 76 582 106 618 170 c 1
 619 466 l 1
 594 483 558 492 518 492 c 0
 416 492 348 425 348 270 c 0
 348 142 397 76 477 76 c 0
EndSplineSet
Validated: 1
EndChar

StartChar: ampersand
Encoding: 6 38 311
Width: 840
GlyphClass: 2
Flags: MW
HStem: -14 23<274 389 269 390.5> 731 23<332.5 395.5>
VStem: 107 26<138 227 138 232> 224 26<592 652.5> 471 26<598.5 657.5>
LayerCount: 2
Fore
SplineSet
749 1 m 1
 727 -12 l 1
 609 119 l 1
 537 29 442 -14 339 -14 c 0
 209 -14 107 53 107 182 c 0
 107 282 176 353 312 445 c 1
 253 510 224 558 224 622 c 0
 224 683 274 754 362 754 c 0
 449 754 497 698 497 631 c 0
 497 556 450 513 348 442 c 1
 608 155 l 1
 649 215 679 293 695 389 c 1
 720 385 l 1
 701 283 668 201 624 139 c 1
 749 1 l 1
362 731 m 0
 303 731 250 691 250 622 c 0
 250 562 279 517 332 459 c 1
 437 528 471 566 471 631 c 0
 471 684 429 731 362 731 c 0
339 9 m 0
 439 9 528 51 594 135 c 1
 328 428 l 1
 190 338 133 271 133 183 c 0
 133 93 199 9 339 9 c 0
EndSplineSet
Validated: 1
EndChar

StartChar: paragraph
Encoding: 111 182 312
Width: 600
GlyphClass: 2
Flags: MW
HStem: 668 22<326 454 326 326>
VStem: 304 22<-110 320 320 320> 454 22<-110 668 668 668>
LayerCount: 2
Fore
SplineSet
476 690 m 1
 476 -110 l 1
 454 -110 l 1
 454 668 l 1
 326 668 l 1
 326 -110 l 1
 304 -110 l 1
 304 320 l 1
 257 320 l 2
 239 320 218 320 201 321 c 0
 99 327 44 410 44 505 c 0
 44 600 99 683 201 689 c 0
 218 690 239 690 257 690 c 2
 476 690 l 1
EndSplineSet
Validated: 1
EndChar

StartChar: copyright
Encoding: 103 169 313
Width: 918
GlyphClass: 2
Flags: MW
HStem: -64 22<358.5 559.5 358.5 566.5> 117 22<426.5 492.5 426.5 493.5> 518 22<432.5 498> 692 22<358.5 559.5>
VStem: 76 24<221 428.5 221 435> 291 26<262 392 262 395> 818 24<221 428.5>
LayerCount: 2
Fore
SplineSet
459 -64 m 0
 244 -64 76 105 76 325 c 0
 76 545 244 714 459 714 c 0
 674 714 842 545 842 325 c 0
 842 105 674 -64 459 -64 c 0
459 -42 m 0
 660 -42 818 117 818 325 c 0
 818 532 660 692 459 692 c 0
 258 692 100 532 100 325 c 0
 100 117 258 -42 459 -42 c 0
468 117 m 0
 362 117 291 182 291 327 c 0
 291 463 369 540 480 540 c 0
 523 540 553 533 580 519 c 1
 572 499 l 1
 548 510 516 518 480 518 c 0
 385 518 317 455 317 329 c 0
 317 195 383 139 470 139 c 0
 515 139 546 149 578 172 c 1
 590 154 l 1
 557 132 519 117 468 117 c 0
EndSplineSet
Validated: 1
EndChar

StartChar: registered
Encoding: 106 174 314
Width: 918
GlyphClass: 2
Flags: MW
HStem: -64 22<358.5 559.5 358.5 566.5> 308 21<379 478 478 480 379 478> 513 21<379 431 431 441 355 449 379 379> 692 22<358.5 559.5>
VStem: 76 24<221 428.5 221 435> 355 24<127 308 329 513> 555 26<399 454 399 457> 818 24<221 428.5>
LayerCount: 2
Fore
SplineSet
459 714 m 0
 674 714 842 545 842 325 c 0
 842 105 674 -64 459 -64 c 0
 244 -64 76 105 76 325 c 0
 76 545 244 714 459 714 c 0
459 -42 m 0
 660 -42 818 117 818 325 c 0
 818 532 660 692 459 692 c 0
 258 692 100 532 100 325 c 0
 100 117 258 -42 459 -42 c 0
581 426 m 0
 581 372 557 331 504 312 c 1
 590 127 l 1
 561 127 l 1
 480 308 l 1
 379 308 l 1
 379 127 l 1
 355 127 l 1
 355 534 l 1
 431 534 l 2
 451 534 469 533 482 532 c 0
 548 525 581 482 581 426 c 0
379 329 m 1
 478 329 l 2
 532 329 555 375 555 423 c 0
 555 491 513 513 449 513 c 2
 379 513 l 1
 379 329 l 1
EndSplineSet
Validated: 1
EndChar

StartChar: section
Encoding: 101 167 315
Width: 563
GlyphClass: 2
Flags: MW
HStem: -195 22<243 310 243 314.5> 652 22<253 320>
VStem: 94 24<241.5 301> 124 24<509 565 501 572> 415 24<-86 -30 -93 -22> 445 24<178 237.5>
LayerCount: 2
Fore
SplineSet
374 58 m 1
 420 26 439 -7 439 -53 c 0
 439 -133 363 -195 266 -195 c 0
 197 -195 154 -176 118 -145 c 1
 132 -131 l 1
 165 -157 220 -173 266 -173 c 0
 354 -173 415 -118 415 -54 c 0
 415 10 366 48 239 106 c 0
 149 147 94 193 94 273 c 0xe8
 94 332 119 367 189 421 c 1
 143 453 124 486 124 532 c 0
 124 612 200 674 297 674 c 0
 366 674 409 655 445 624 c 1
 431 610 l 1
 398 636 343 652 297 652 c 0
 209 652 148 597 148 533 c 0xd4
 148 469 197 431 324 373 c 0
 414 332 469 286 469 206 c 0
 469 147 444 112 374 58 c 1
118 273 m 0
 118 210 160 169 251 126 c 0
 294 106 329 88 357 70 c 1
 411 112 445 150 445 206 c 0
 445 269 403 310 312 353 c 0
 269 373 234 391 206 409 c 1
 152 367 118 329 118 273 c 0
EndSplineSet
Validated: 1
EndChar

StartChar: trademark
Encoding: 402 8482 316
Width: 597
GlyphClass: 2
Flags: MW
HStem: 1.75438 150
LayerCount: 2
Fore
SplineSet
24 247 m 1
 24 268 l 1
 240 268 l 1
 236 247 l 1
 143 247 l 1
 143 0 l 1
 119 0 l 1
 119 247 l 1
 24 247 l 1
564 0 m 1
 541 0 l 1
 519 239 l 1
 421 8 l 1
 401 8 l 1
 312 233 l 1
 287 0 l 1
 265 0 l 1
 294 268 l 1
 321 268 l 1
 412 35 l 1
 510 268 l 1
 539 268 l 1
 564 0 l 1
EndSplineSet
Validated: 1
EndChar

StartChar: degree
Encoding: 108 176 317
Width: 350
GlyphClass: 2
Flags: MW
HStem: 466 22<138 192 138 198.5> 682 22<138 192>
VStem: 48 24<556 614 556 619> 258 24<556 614>
LayerCount: 2
Fore
SplineSet
165 466 m 0
 98 466 48 517 48 585 c 0
 48 653 98 704 165 704 c 0
 232 704 282 653 282 585 c 0
 282 517 232 466 165 466 c 0
165 488 m 0
 219 488 258 527 258 585 c 0
 258 643 219 682 165 682 c 0
 111 682 72 643 72 585 c 0
 72 527 111 488 165 488 c 0
EndSplineSet
Validated: 1
EndChar

StartChar: asciicircum
Encoding: 62 94 318
Width: 480
GlyphClass: 2
Flags: MW
HStem: 573 29<241 241>
VStem: 84 312<270 270>
LayerCount: 2
Fore
SplineSet
396 270 m 1
 370 270 l 1
 241 573 l 1
 110 270 l 1
 84 270 l 1
 231 602 l 1
 251 602 l 1
 396 270 l 1
EndSplineSet
Validated: 1
EndChar

StartChar: dagger
Encoding: 393 8224 319
Width: 600
GlyphClass: 2
Flags: MW
HStem: 401.5 23
VStem: 263 24
LayerCount: 2
Fore
SplineSet
494 425 m 1
 494 401 l 1
 286 402 l 1
 288 -160 l 1
 262 -160 l 1
 264 402 l 1
 56 401 l 1
 56 425 l 1
 264 424 l 1
 262 690 l 1
 288 690 l 1
 286 424 l 1
 494 425 l 1
EndSplineSet
Validated: 1
EndChar

StartChar: daggerdbl
Encoding: 394 8225 320
Width: 600
GlyphClass: 2
Flags: MW
HStem: 105.5 23 401.5 23
VStem: 263 24
LayerCount: 2
Fore
SplineSet
494 401 m 1
 286 402 l 1
 286 128 l 1
 494 129 l 1
 494 105 l 1
 286 106 l 1
 288 -160 l 1
 262 -160 l 1
 264 106 l 1
 56 105 l 1
 56 129 l 1
 264 128 l 1
 264 402 l 1
 56 401 l 1
 56 425 l 1
 264 424 l 1
 262 690 l 1
 288 690 l 1
 286 424 l 1
 494 425 l 1
 494 401 l 1
EndSplineSet
Validated: 1
EndChar

StartChar: uni0326
Encoding: 290 806 321
Width: 0
GlyphClass: 4
Flags: MW
HStem: -239 189
VStem: -63 23
AnchorPoint: "Anchor-0" -52 0 mark 0
LayerCount: 2
Fore
SplineSet
-123 -239 m 1
 -75 -167 -61 -110 -63 -58 c 1
 -58 -54 -49 -51 -40 -50 c 1
 -36 -118 -56 -177 -102 -239 c 1
 -123 -239 l 1
EndSplineSet
Validated: 33
EndChar

